<?xml version="1.0" encoding="utf-8" standalone="no"?>
<!DOCTYPE svg PUBLIC "-//W3C//DTD SVG 1.1//EN"
  "http://www.w3.org/Graphics/SVG/1.1/DTD/svg11.dtd">
<svg xmlns:xlink="http://www.w3.org/1999/xlink" width="360pt" height="144pt" viewBox="0 0 360 144" xmlns="http://www.w3.org/2000/svg" version="1.1">
 <metadata>
  <rdf:RDF xmlns:dc="http://purl.org/dc/elements/1.1/" xmlns:cc="http://creativecommons.org/ns#" xmlns:rdf="http://www.w3.org/1999/02/22-rdf-syntax-ns#">
   <cc:Work>
    <dc:type rdf:resource="http://purl.org/dc/dcmitype/StillImage"/>
    <dc:date>2024-04-02T17:23:23.480146</dc:date>
    <dc:format>image/svg+xml</dc:format>
    <dc:creator>
     <cc:Agent>
      <dc:title>Matplotlib v3.8.3, https://matplotlib.org/</dc:title>
     </cc:Agent>
    </dc:creator>
   </cc:Work>
  </rdf:RDF>
 </metadata>
 <defs>
  <style type="text/css">*{stroke-linejoin: round; stroke-linecap: butt}</style>
 </defs>
 <g id="figure_1">
  <g id="patch_1">
   <path d="M 0 144
L 360 144
L 360 0
L 0 0
z
" style="fill: #ffffff"/>
  </g>
  <g id="axes_1">
   <g id="LineCollection_1">
    <path d="M 10.8 53.749244
L 349.2 53.749244
" clip-path="url(#p2127ffa6b8)" style="fill: none; stroke-dasharray: 5.55,2.4; stroke-dashoffset: 0; stroke: #000000; stroke-width: 1.5"/>
   </g>
   <g id="line2d_1">
    <path d="M 10.8 21.114205
L 14.184 42.602999
L 17.568 44.935922
L 20.952 46.339324
L 24.336 47.298203
L 27.72 48.044581
L 31.104 48.582907
L 34.488 49.158315
L 37.872 49.621927
L 41.256 50.072712
L 44.64 50.440912
L 48.024 50.885686
L 51.408 51.159922
L 54.792 51.532501
L 58.176 51.892055
L 61.56 52.219699
L 64.944 52.594953
L 68.328 52.838919
L 71.712 53.048776
L 75.096 53.378863
L 78.48 53.671841
L 81.864 53.976
L 85.248 54.125196
L 88.632 54.361461
L 92.016 54.55712
L 95.4 54.991626
L 98.784 55.188579
L 102.168 55.350858
L 105.552 55.496849
L 108.936 55.833782
L 112.32 56.145232
L 115.704 56.151726
L 119.088 56.638553
L 122.472 56.747081
L 125.856 56.847697
L 129.24 56.962899
L 132.624 57.199101
L 136.008 57.727908
L 139.392 57.586407
L 142.776 57.925469
L 146.16 58.006202
L 149.544 58.065397
L 152.928 58.273483
L 156.312 58.879429
L 159.696 58.708852
L 163.08 58.931993
L 166.464 58.853918
L 169.848 59.222703
L 173.232 59.341946
L 176.616 59.539032
L 180 59.893655
L 183.384 59.794367
L 186.768 59.686036
L 190.152 59.222185
L 193.536 60.200831
L 196.92 60.194737
L 200.304 60.670521
L 203.688 60.276126
L 207.072 60.850424
L 210.456 60.692571
L 213.84 60.707173
L 217.224 60.993301
L 220.608 60.890816
L 223.992 61.547211
L 227.376 61.203221
L 230.76 61.086988
L 234.144 61.598097
L 237.528 61.695459
L 240.912 61.406866
L 244.296 61.530874
L 247.68 61.846462
L 251.064 61.640428
L 254.448 62.367845
L 257.832 61.996379
L 261.216 62.327902
L 264.6 62.886933
L 267.984 62.716964
L 271.368 62.60583
L 274.752 62.821159
L 278.136 63.207692
L 281.52 63.165378
L 284.904 62.862434
L 288.288 63.752888
L 291.672 63.139795
L 295.056 63.581377
L 298.44 63.599585
L 301.824 63.874574
L 305.208 63.879524
L 308.592 63.722176
L 311.976 64.087258
L 315.36 64.200594
L 318.744 64.198347
L 322.128 64.160029
L 325.512 64.336345
L 328.896 64.452681
L 332.28 64.517343
L 335.664 64.742778
L 339.048 64.764223
L 342.432 64.838274
L 345.816 64.938659
" clip-path="url(#p2127ffa6b8)" style="fill: none; stroke: #000000; stroke-opacity: 0.1; stroke-width: 1.5; stroke-linecap: square"/>
   </g>
   <g id="line2d_2">
    <path d="M 10.8 21.126396
L 14.184 42.909511
L 17.568 45.113327
L 20.952 46.447378
L 24.336 47.353942
L 27.72 48.081084
L 31.104 48.717894
L 34.488 49.259018
L 37.872 49.693723
L 41.256 50.15684
L 44.64 50.524367
L 48.024 50.882276
L 51.408 51.28476
L 54.792 51.562595
L 58.176 51.985966
L 61.56 52.308024
L 64.944 52.516318
L 68.328 52.902345
L 71.712 53.108572
L 75.096 53.417774
L 78.48 53.622567
L 81.864 53.860088
L 85.248 54.138946
L 88.632 54.420785
L 92.016 54.50322
L 95.4 54.390747
L 98.784 55.056642
L 102.168 55.29328
L 105.552 55.544694
L 108.936 55.837806
L 112.32 55.615583
L 115.704 55.883378
L 119.088 56.256448
L 122.472 56.3749
L 125.856 56.77591
L 129.24 56.981594
L 132.624 56.868864
L 136.008 57.213681
L 139.392 57.483097
L 142.776 57.739379
L 146.16 57.826542
L 149.544 57.928328
L 152.928 57.903709
L 156.312 58.426881
L 159.696 58.242974
L 163.08 58.626336
L 166.464 58.952903
L 169.848 58.571144
L 173.232 58.86173
L 176.616 58.699538
L 180 59.264513
L 183.384 59.591624
L 186.768 59.579346
L 190.152 59.713907
L 193.536 60.097816
L 196.92 59.847047
L 200.304 60.021087
L 203.688 60.077968
L 207.072 60.278633
L 210.456 60.509006
L 213.84 60.590533
L 217.224 60.395905
L 220.608 60.572472
L 223.992 61.235242
L 227.376 61.218934
L 230.76 61.21523
L 234.144 61.301176
L 237.528 61.345162
L 240.912 61.188056
L 244.296 61.343489
L 247.68 61.222034
L 251.064 61.174106
L 254.448 61.816809
L 257.832 61.825958
L 261.216 61.346396
L 264.6 62.091861
L 267.984 62.225749
L 271.368 62.922051
L 274.752 62.494422
L 278.136 62.586163
L 281.52 62.85047
L 284.904 62.989142
L 288.288 62.800926
L 291.672 62.611233
L 295.056 62.765286
L 298.44 63.031362
L 301.824 62.965645
L 305.208 63.252008
L 308.592 62.650587
L 311.976 63.596814
L 315.36 63.718907
L 318.744 63.776399
L 322.128 64.038807
L 325.512 63.986816
L 328.896 64.097211
L 332.28 64.172405
L 335.664 64.320595
L 339.048 64.460364
L 342.432 64.459727
L 345.816 64.553902
" clip-path="url(#p2127ffa6b8)" style="fill: none; stroke: #000000; stroke-opacity: 0.1; stroke-width: 1.5; stroke-linecap: square"/>
   </g>
   <g id="line2d_3">
    <path d="M 10.8 21.440086
L 14.184 43.521928
L 17.568 45.024564
L 20.952 46.096281
L 24.336 47.07579
L 27.72 47.855384
L 31.104 48.537673
L 34.488 49.167426
L 37.872 49.818986
L 41.256 50.383861
L 44.64 50.925757
L 48.024 51.561946
L 51.408 51.936785
L 54.792 52.372811
L 58.176 52.990939
L 61.56 53.320267
L 64.944 53.532032
L 68.328 53.924475
L 71.712 54.283624
L 75.096 54.327419
L 78.48 54.692163
L 81.864 54.952542
L 85.248 55.062946
L 88.632 55.349472
L 92.016 55.671257
L 95.4 55.578763
L 98.784 55.887004
L 102.168 56.012519
L 105.552 56.19632
L 108.936 56.42803
L 112.32 56.490346
L 115.704 56.322471
L 119.088 56.612276
L 122.472 57.002438
L 125.856 57.242307
L 129.24 57.019182
L 132.624 57.391968
L 136.008 57.649258
L 139.392 58.08819
L 142.776 57.6399
L 146.16 57.952317
L 149.544 58.270319
L 152.928 58.780572
L 156.312 58.680367
L 159.696 58.800481
L 163.08 59.366853
L 166.464 59.088931
L 169.848 59.568894
L 173.232 59.072187
L 176.616 58.967509
L 180 59.539532
L 183.384 59.6724
L 186.768 59.930492
L 190.152 60.427898
L 193.536 58.983507
L 196.92 60.839732
L 200.304 60.233526
L 203.688 60.038187
L 207.072 60.106402
L 210.456 60.728615
L 213.84 59.73227
L 217.224 60.432765
L 220.608 61.067518
L 223.992 60.570293
L 227.376 60.664496
L 230.76 60.371415
L 234.144 61.132185
L 237.528 60.719448
L 240.912 61.592616
L 244.296 62.0054
L 247.68 62.130197
L 251.064 62.315334
L 254.448 61.608718
L 257.832 61.32633
L 261.216 61.472077
L 264.6 61.163565
L 267.984 62.432196
L 271.368 63.079132
L 274.752 62.096952
L 278.136 62.343599
L 281.52 62.126981
L 284.904 63.059749
L 288.288 62.704475
L 291.672 63.060598
L 295.056 62.782862
L 298.44 63.036779
L 301.824 63.559335
L 305.208 63.353108
L 308.592 63.768364
L 311.976 64.060889
L 315.36 64.087479
L 318.744 64.285822
L 322.128 63.919437
L 325.512 64.210584
L 328.896 64.369115
L 332.28 64.451768
L 335.664 64.600527
L 339.048 64.774322
L 342.432 64.787151
L 345.816 64.936819
" clip-path="url(#p2127ffa6b8)" style="fill: none; stroke: #000000; stroke-opacity: 0.1; stroke-width: 1.5; stroke-linecap: square"/>
   </g>
   <g id="line2d_4">
    <path d="M 10.8 21.706205
L 14.184 45.27207
L 17.568 47.219559
L 20.952 48.501614
L 24.336 49.462759
L 27.72 50.226756
L 31.104 50.9419
L 34.488 51.549989
L 37.872 52.054161
L 41.256 52.445134
L 44.64 53.001748
L 48.024 53.231257
L 51.408 53.756258
L 54.792 53.986291
L 58.176 54.145687
L 61.56 54.507039
L 64.944 54.700779
L 68.328 54.965114
L 71.712 55.148685
L 75.096 55.302502
L 78.48 55.455288
L 81.864 55.611642
L 85.248 55.741628
L 88.632 55.843203
L 92.016 55.989018
L 95.4 56.11801
L 98.784 56.215939
L 102.168 56.242924
L 105.552 56.305272
L 108.936 56.600291
L 112.32 56.315588
L 115.704 56.680886
L 119.088 56.938604
L 122.472 56.574058
L 125.856 57.193656
L 129.24 57.082636
L 132.624 56.703824
L 136.008 56.886488
L 139.392 57.188012
L 142.776 57.505926
L 146.16 56.790675
L 149.544 57.63607
L 152.928 57.470776
L 156.312 57.827237
L 159.696 57.903293
L 163.08 57.99601
L 166.464 57.793459
L 169.848 57.997413
L 173.232 58.074035
L 176.616 57.896238
L 180 58.352829
L 183.384 58.223965
L 186.768 58.774176
L 190.152 57.891332
L 193.536 59.217672
L 196.92 59.098921
L 200.304 59.418269
L 203.688 59.570249
L 207.072 59.058414
L 210.456 59.023068
L 213.84 59.447372
L 217.224 59.77968
L 220.608 59.637873
L 223.992 59.126383
L 227.376 59.562523
L 230.76 59.929499
L 234.144 60.009504
L 237.528 60.835985
L 240.912 59.688069
L 244.296 59.890682
L 247.68 60.475287
L 251.064 60.203646
L 254.448 60.94886
L 257.832 60.751449
L 261.216 60.972822
L 264.6 61.155333
L 267.984 61.464942
L 271.368 61.142949
L 274.752 61.47275
L 278.136 61.435186
L 281.52 61.779479
L 284.904 61.520858
L 288.288 61.642255
L 291.672 62.245256
L 295.056 62.581066
L 298.44 62.495012
L 301.824 61.420617
L 305.208 62.293267
L 308.592 62.196912
L 311.976 62.536278
L 315.36 62.759371
L 318.744 62.931935
L 322.128 62.925276
L 325.512 62.846444
L 328.896 62.9203
L 332.28 63.188722
L 335.664 63.448479
L 339.048 63.585116
L 342.432 63.502753
L 345.816 63.691301
" clip-path="url(#p2127ffa6b8)" style="fill: none; stroke: #000000; stroke-opacity: 0.1; stroke-width: 1.5; stroke-linecap: square"/>
   </g>
   <g id="line2d_5">
    <path d="M 10.8 17.111336
L 14.184 17.717582
L 17.568 23.90644
L 20.952 29.099573
L 24.336 31.056295
L 27.72 32.553628
L 31.104 33.70809
L 34.488 34.630516
L 37.872 35.346326
L 41.256 35.904411
L 44.64 36.373037
L 48.024 36.786585
L 51.408 37.147552
L 54.792 37.501558
L 58.176 37.828973
L 61.56 38.142105
L 64.944 38.454536
L 68.328 38.742414
L 71.712 39.028427
L 75.096 39.303229
L 78.48 39.568951
L 81.864 39.830304
L 85.248 40.081056
L 88.632 40.321076
L 92.016 40.552212
L 95.4 40.772879
L 98.784 41.005695
L 102.168 41.229451
L 105.552 41.44937
L 108.936 41.652244
L 112.32 41.851332
L 115.704 42.051373
L 119.088 42.229271
L 122.472 42.416296
L 125.856 42.618314
L 129.24 42.794213
L 132.624 42.960968
L 136.008 43.12662
L 139.392 43.308006
L 142.776 43.460972
L 146.16 43.617903
L 149.544 43.780795
L 152.928 43.938651
L 156.312 44.047134
L 159.696 44.229653
L 163.08 44.318841
L 166.464 44.499394
L 169.848 44.638926
L 173.232 44.755865
L 176.616 44.886011
L 180 45.00001
L 183.384 45.123121
L 186.768 45.234668
L 190.152 45.379282
L 193.536 45.482361
L 196.92 45.596805
L 200.304 45.690743
L 203.688 45.797878
L 207.072 45.895191
L 210.456 45.991317
L 213.84 46.091269
L 217.224 46.190361
L 220.608 46.281033
L 223.992 46.363144
L 227.376 46.463253
L 230.76 46.531827
L 234.144 46.627427
L 237.528 46.666489
L 240.912 46.784727
L 244.296 46.8182
L 247.68 46.888758
L 251.064 46.951781
L 254.448 47.008879
L 257.832 47.09503
L 261.216 47.150428
L 264.6 47.196553
L 267.984 47.254548
L 271.368 47.300036
L 274.752 47.369448
L 278.136 47.402173
L 281.52 47.435667
L 284.904 47.491827
L 288.288 47.530937
L 291.672 47.567826
L 295.056 47.60406
L 298.44 47.642653
L 301.824 47.670871
L 305.208 47.721947
L 308.592 47.743081
L 311.976 47.766151
L 315.36 47.788033
L 318.744 47.813342
L 322.128 47.821648
L 325.512 47.843933
L 328.896 47.86455
L 332.28 47.8752
L 335.664 47.889877
L 339.048 47.902505
L 342.432 47.909178
L 345.816 47.911073
" clip-path="url(#p2127ffa6b8)" style="fill: none; stroke: #000000; stroke-opacity: 0.1; stroke-width: 1.5; stroke-linecap: square"/>
   </g>
   <g id="line2d_6">
    <path d="M 10.8 17.081078
L 14.184 17.114772
L 17.568 17.894167
L 20.952 20.548531
L 24.336 22.420206
L 27.72 24.343243
L 31.104 26.505256
L 34.488 28.550489
L 37.872 30.185744
L 41.256 31.410963
L 44.64 32.362083
L 48.024 33.143232
L 51.408 33.815709
L 54.792 34.409864
L 58.176 34.944489
L 61.56 35.435459
L 64.944 35.884367
L 68.328 36.301493
L 71.712 36.684728
L 75.096 37.04808
L 78.48 37.385879
L 81.864 37.700349
L 85.248 38.007579
L 88.632 38.289595
L 92.016 38.562698
L 95.4 38.823658
L 98.784 39.066329
L 102.168 39.307706
L 105.552 39.538596
L 108.936 39.75093
L 112.32 39.966534
L 115.704 40.189572
L 119.088 40.387463
L 122.472 40.58099
L 125.856 40.770665
L 129.24 40.954011
L 132.624 41.132919
L 136.008 41.320078
L 139.392 41.476752
L 142.776 41.651733
L 146.16 41.818714
L 149.544 41.992585
L 152.928 42.139661
L 156.312 42.291448
L 159.696 42.451038
L 163.08 42.605038
L 166.464 42.752945
L 169.848 42.895719
L 173.232 43.023784
L 176.616 43.160564
L 180 43.300908
L 183.384 43.434235
L 186.768 43.563138
L 190.152 43.69033
L 193.536 43.813506
L 196.92 43.9309
L 200.304 44.035187
L 203.688 44.16922
L 207.072 44.284404
L 210.456 44.393231
L 213.84 44.496375
L 217.224 44.610655
L 220.608 44.714072
L 223.992 44.816983
L 227.376 44.911674
L 230.76 44.993038
L 234.144 45.104256
L 237.528 45.188844
L 240.912 45.269572
L 244.296 45.364699
L 247.68 45.422611
L 251.064 45.527201
L 254.448 45.595951
L 257.832 45.671191
L 261.216 45.751644
L 264.6 45.803701
L 267.984 45.890183
L 271.368 45.944327
L 274.752 46.011132
L 278.136 46.062775
L 281.52 46.130871
L 284.904 46.173011
L 288.288 46.229794
L 291.672 46.274651
L 295.056 46.334438
L 298.44 46.36531
L 301.824 46.397618
L 305.208 46.451264
L 308.592 46.490197
L 311.976 46.519804
L 315.36 46.550957
L 318.744 46.577697
L 322.128 46.60335
L 325.512 46.627763
L 328.896 46.64603
L 332.28 46.663933
L 335.664 46.678232
L 339.048 46.688823
L 342.432 46.697365
L 345.816 46.704823
" clip-path="url(#p2127ffa6b8)" style="fill: none; stroke: #000000; stroke-opacity: 0.1; stroke-width: 1.5; stroke-linecap: square"/>
   </g>
   <g id="line2d_7">
    <path d="M 10.8 16.98707
L 14.184 19.028964
L 17.568 21.41228
L 20.952 23.505115
L 24.336 25.169124
L 27.72 26.640046
L 31.104 28.000288
L 34.488 29.251739
L 37.872 30.359054
L 41.256 31.323539
L 44.64 32.142007
L 48.024 32.848939
L 51.408 33.472931
L 54.792 34.035618
L 58.176 34.554594
L 61.56 35.029934
L 64.944 35.468944
L 68.328 35.874913
L 71.712 36.254151
L 75.096 36.60505
L 78.48 36.93893
L 81.864 37.253462
L 85.248 37.546331
L 88.632 37.824551
L 92.016 38.096196
L 95.4 38.357337
L 98.784 38.609891
L 102.168 38.85564
L 105.552 39.0754
L 108.936 39.310275
L 112.32 39.531047
L 115.704 39.739674
L 119.088 39.945618
L 122.472 40.165312
L 125.856 40.354377
L 129.24 40.540517
L 132.624 40.735234
L 136.008 40.927766
L 139.392 41.096821
L 142.776 41.280437
L 146.16 41.461284
L 149.544 41.611067
L 152.928 41.773935
L 156.312 41.95561
L 159.696 42.105214
L 163.08 42.238768
L 166.464 42.403686
L 169.848 42.545521
L 173.232 42.732532
L 176.616 42.856833
L 180 42.998961
L 183.384 43.15626
L 186.768 43.297618
L 190.152 43.42471
L 193.536 43.56175
L 196.92 43.687703
L 200.304 43.800627
L 203.688 43.932516
L 207.072 44.06022
L 210.456 44.171362
L 213.84 44.28663
L 217.224 44.409637
L 220.608 44.510026
L 223.992 44.619517
L 227.376 44.730644
L 230.76 44.825762
L 234.144 44.943582
L 237.528 45.02846
L 240.912 45.144077
L 244.296 45.236057
L 247.68 45.315931
L 251.064 45.385497
L 254.448 45.467842
L 257.832 45.546756
L 261.216 45.631313
L 264.6 45.7021
L 267.984 45.766307
L 271.368 45.837218
L 274.752 45.904126
L 278.136 45.985303
L 281.52 46.05601
L 284.904 46.107169
L 288.288 46.165031
L 291.672 46.211427
L 295.056 46.281827
L 298.44 46.325233
L 301.824 46.35223
L 305.208 46.413216
L 308.592 46.442688
L 311.976 46.490614
L 315.36 46.526416
L 318.744 46.560476
L 322.128 46.591228
L 325.512 46.607645
L 328.896 46.624823
L 332.28 46.658182
L 335.664 46.670452
L 339.048 46.681712
L 342.432 46.694079
L 345.816 46.696866
" clip-path="url(#p2127ffa6b8)" style="fill: none; stroke: #000000; stroke-opacity: 0.1; stroke-width: 1.5; stroke-linecap: square"/>
   </g>
   <g id="line2d_8">
    <path d="M 10.8 16.431214
L 14.184 16.982662
L 17.568 17.098409
L 20.952 17.305552
L 24.336 18.770152
L 27.72 21.346698
L 31.104 23.266087
L 34.488 25.78482
L 37.872 28.758315
L 41.256 30.954534
L 44.64 32.042289
L 48.024 32.734898
L 51.408 33.334583
L 54.792 33.89141
L 58.176 34.414311
L 61.56 34.916363
L 64.944 35.378292
L 68.328 35.817972
L 71.712 36.225752
L 75.096 36.618866
L 78.48 36.986368
L 81.864 37.336913
L 85.248 37.666286
L 88.632 37.982477
L 92.016 38.278294
L 95.4 38.554329
L 98.784 38.837259
L 102.168 39.08405
L 105.552 39.329814
L 108.936 39.573462
L 112.32 39.800807
L 115.704 40.014639
L 119.088 40.22759
L 122.472 40.43268
L 125.856 40.635153
L 129.24 40.813699
L 132.624 40.985082
L 136.008 41.177049
L 139.392 41.339944
L 142.776 41.528212
L 146.16 41.704252
L 149.544 41.858216
L 152.928 42.019307
L 156.312 42.153395
L 159.696 42.310655
L 163.08 42.468229
L 166.464 42.599873
L 169.848 42.74487
L 173.232 42.88835
L 176.616 43.036518
L 180 43.143088
L 183.384 43.274869
L 186.768 43.419217
L 190.152 43.540546
L 193.536 43.68463
L 196.92 43.793139
L 200.304 43.898505
L 203.688 44.025465
L 207.072 44.12361
L 210.456 44.237452
L 213.84 44.320595
L 217.224 44.425541
L 220.608 44.548906
L 223.992 44.653342
L 227.376 44.750108
L 230.76 44.818311
L 234.144 44.952969
L 237.528 45.017706
L 240.912 45.108447
L 244.296 45.19263
L 247.68 45.269783
L 251.064 45.345352
L 254.448 45.426831
L 257.832 45.501726
L 261.216 45.568709
L 264.6 45.616086
L 267.984 45.691131
L 271.368 45.756744
L 274.752 45.826231
L 278.136 45.87162
L 281.52 45.938176
L 284.904 45.999776
L 288.288 46.045574
L 291.672 46.069682
L 295.056 46.141367
L 298.44 46.173999
L 301.824 46.212922
L 305.208 46.234224
L 308.592 46.270548
L 311.976 46.319561
L 315.36 46.350302
L 318.744 46.37925
L 322.128 46.396029
L 325.512 46.420552
L 328.896 46.441903
L 332.28 46.457371
L 335.664 46.465653
L 339.048 46.481512
L 342.432 46.486416
L 345.816 46.497077
" clip-path="url(#p2127ffa6b8)" style="fill: none; stroke: #000000; stroke-opacity: 0.1; stroke-width: 1.5; stroke-linecap: square"/>
   </g>
   <g id="line2d_9">
    <path d="M 10.8 16.363636
L 14.184 16.900643
L 17.568 17.047527
L 20.952 17.106601
L 24.336 17.160271
L 27.72 17.2547
L 31.104 17.416088
L 34.488 17.875366
L 37.872 20.014669
L 41.256 24.87778
L 44.64 28.275503
L 48.024 29.864995
L 51.408 30.991217
L 54.792 31.975225
L 58.176 32.828057
L 61.56 33.483172
L 64.944 34.025584
L 68.328 34.504248
L 71.712 34.937085
L 75.096 35.340772
L 78.48 35.718963
L 81.864 36.075859
L 85.248 36.406202
L 88.632 36.720632
L 92.016 37.019121
L 95.4 37.30866
L 98.784 37.585578
L 102.168 37.842133
L 105.552 38.102082
L 108.936 38.3216
L 112.32 38.577022
L 115.704 38.804697
L 119.088 39.018701
L 122.472 39.235254
L 125.856 39.454601
L 129.24 39.65247
L 132.624 39.845779
L 136.008 40.052064
L 139.392 40.231583
L 142.776 40.392
L 146.16 40.590485
L 149.544 40.734075
L 152.928 40.922975
L 156.312 41.097217
L 159.696 41.260809
L 163.08 41.421014
L 166.464 41.56696
L 169.848 41.665335
L 173.232 41.858389
L 176.616 41.999652
L 180 42.112696
L 183.384 42.292912
L 186.768 42.419657
L 190.152 42.555452
L 193.536 42.666594
L 196.92 42.793987
L 200.304 42.920717
L 203.688 43.043309
L 207.072 43.14392
L 210.456 43.266214
L 213.84 43.358154
L 217.224 43.45462
L 220.608 43.562263
L 223.992 43.675263
L 227.376 43.790601
L 230.76 43.876748
L 234.144 43.949627
L 237.528 44.066103
L 240.912 44.143565
L 244.296 44.239247
L 247.68 44.310566
L 251.064 44.375319
L 254.448 44.439773
L 257.832 44.529713
L 261.216 44.613582
L 264.6 44.662237
L 267.984 44.73724
L 271.368 44.792233
L 274.752 44.829241
L 278.136 44.895845
L 281.52 44.979692
L 284.904 45.002165
L 288.288 45.039726
L 291.672 45.099863
L 295.056 45.159788
L 298.44 45.184783
L 301.824 45.247485
L 305.208 45.268446
L 308.592 45.320822
L 311.976 45.335032
L 315.36 45.365631
L 318.744 45.394789
L 322.128 45.413444
L 325.512 45.43083
L 328.896 45.453419
L 332.28 45.475394
L 335.664 45.491165
L 339.048 45.497525
L 342.432 45.50841
L 345.816 45.514388
" clip-path="url(#p2127ffa6b8)" style="fill: none; stroke: #000000; stroke-opacity: 0.1; stroke-width: 1.5; stroke-linecap: square"/>
   </g>
   <g id="line2d_10">
    <path d="M 10.8 18.212647
L 14.184 25.549661
L 17.568 43.859477
L 20.952 65.135513
L 24.336 83.846434
L 27.72 104.198634
L 31.104 120.175178
L 34.488 123.605762
L 37.872 123.185371
L 41.256 119.16419
L 44.64 112.098776
L 48.024 96.265145
L 51.408 88.109148
L 54.792 95.137305
L 58.176 108.923123
L 61.56 111.532472
L 64.944 95.533332
L 68.328 84.096906
L 71.712 99.40805
L 75.096 90.871695
L 78.48 100.46521
L 81.864 96.72814
L 85.248 83.9972
L 88.632 86.485236
L 92.016 101.750832
L 95.4 84.803516
L 98.784 86.593761
L 102.168 94.331142
L 105.552 100.542687
L 108.936 92.905753
L 112.32 95.379209
L 115.704 96.558365
L 119.088 93.001117
L 122.472 82.94708
L 125.856 85.507274
L 129.24 105.52453
L 132.624 98.650624
L 136.008 84.820578
L 139.392 85.583649
L 142.776 95.74011
L 146.16 111.326739
L 149.544 90.857446
L 152.928 87.591614
L 156.312 101.01804
L 159.696 85.510289
L 163.08 78.886977
L 166.464 88.288829
L 169.848 71.047189
L 173.232 72.456988
L 176.616 93.330139
L 180 99.097395
L 183.384 94.921194
L 186.768 81.226581
L 190.152 72.472674
L 193.536 82.771611
L 196.92 98.943928
L 200.304 88.208
L 203.688 89.620631
L 207.072 103.200797
L 210.456 98.994388
L 213.84 92.304486
L 217.224 109.343893
L 220.608 109.263896
L 223.992 96.037657
L 227.376 97.775577
L 230.76 103.746308
L 234.144 101.441063
L 237.528 101.651988
L 240.912 88.796297
L 244.296 92.296365
L 247.68 77.149924
L 251.064 75.602895
L 254.448 92.935475
L 257.832 111.325413
L 261.216 119.207928
L 264.6 110.663195
L 267.984 95.481701
L 271.368 103.839868
L 274.752 99.638731
L 278.136 100.588698
L 281.52 105.751964
L 284.904 94.228003
L 288.288 86.710685
L 291.672 90.917324
L 295.056 115.609926
L 298.44 120.37964
L 301.824 114.040393
L 305.208 120.011353
L 308.592 115.844315
L 311.976 116.454252
L 315.36 121.099622
L 318.744 122.720381
L 322.128 125.098875
L 325.512 123.220012
L 328.896 123.518365
L 332.28 125.792318
L 335.664 125.667457
L 339.048 126.697058
L 342.432 127.209041
L 345.816 127.636364
" clip-path="url(#p2127ffa6b8)" style="fill: none; stroke: #000000; stroke-width: 1.5; stroke-linecap: square"/>
   </g>
  </g>
 </g>
 <defs>
  <clipPath id="p2127ffa6b8">
   <rect x="10.8" y="10.8" width="338.4" height="122.4"/>
  </clipPath>
 </defs>
</svg>
