<?xml version="1.0" encoding="utf-8" standalone="no"?>
<!DOCTYPE svg PUBLIC "-//W3C//DTD SVG 1.1//EN"
  "http://www.w3.org/Graphics/SVG/1.1/DTD/svg11.dtd">
<svg xmlns:xlink="http://www.w3.org/1999/xlink" width="360pt" height="144pt" viewBox="0 0 360 144" xmlns="http://www.w3.org/2000/svg" version="1.1">
 <metadata>
  <rdf:RDF xmlns:dc="http://purl.org/dc/elements/1.1/" xmlns:cc="http://creativecommons.org/ns#" xmlns:rdf="http://www.w3.org/1999/02/22-rdf-syntax-ns#">
   <cc:Work>
    <dc:type rdf:resource="http://purl.org/dc/dcmitype/StillImage"/>
    <dc:date>2024-04-02T17:23:23.614466</dc:date>
    <dc:format>image/svg+xml</dc:format>
    <dc:creator>
     <cc:Agent>
      <dc:title>Matplotlib v3.8.3, https://matplotlib.org/</dc:title>
     </cc:Agent>
    </dc:creator>
   </cc:Work>
  </rdf:RDF>
 </metadata>
 <defs>
  <style type="text/css">*{stroke-linejoin: round; stroke-linecap: butt}</style>
 </defs>
 <g id="figure_1">
  <g id="patch_1">
   <path d="M 0 144
L 360 144
L 360 0
L 0 0
z
" style="fill: #ffffff"/>
  </g>
  <g id="axes_1">
   <g id="LineCollection_1">
    <path d="M 10.8 127.636364
L 349.2 127.636364
" clip-path="url(#p8e9bfb0c13)" style="fill: none; stroke-dasharray: 5.55,2.4; stroke-dashoffset: 0; stroke: #000000; stroke-width: 1.5"/>
   </g>
   <g id="line2d_1">
    <path d="M 10.8 28.132593
L 14.184 29.525915
L 17.568 30.135303
L 20.952 30.509432
L 24.336 30.725375
L 27.72 30.872176
L 31.104 30.981919
L 34.488 31.063101
L 37.872 31.136347
L 41.256 31.1978
L 44.64 31.254172
L 48.024 31.306554
L 51.408 31.330312
L 54.792 31.37221
L 58.176 31.403197
L 61.56 31.425901
L 64.944 31.452608
L 68.328 31.472839
L 71.712 31.488672
L 75.096 31.500976
L 78.48 31.525906
L 81.864 31.537582
L 85.248 31.543942
L 88.632 31.560915
L 92.016 31.576788
L 95.4 31.586215
L 98.784 31.589859
L 102.168 31.603029
L 105.552 31.607297
L 108.936 31.619089
L 112.32 31.626051
L 115.704 31.628253
L 119.088 31.639234
L 122.472 31.64245
L 125.856 31.657654
L 129.24 31.661643
L 132.624 31.668138
L 136.008 31.673312
L 139.392 31.684174
L 142.776 31.684507
L 146.16 31.694261
L 149.544 31.702992
L 152.928 31.710755
L 156.312 31.707316
L 159.696 31.719453
L 163.08 31.717009
L 166.464 31.724585
L 169.848 31.731453
L 173.232 31.740499
L 176.616 31.736664
L 180 31.748536
L 183.384 31.750326
L 186.768 31.753236
L 190.152 31.757834
L 193.536 31.760184
L 196.92 31.772371
L 200.304 31.770388
L 203.688 31.777654
L 207.072 31.775666
L 210.456 31.787178
L 213.84 31.787658
L 217.224 31.788956
L 220.608 31.794163
L 223.992 31.796566
L 227.376 31.798807
L 230.76 31.803656
L 234.144 31.80249
L 237.528 31.809077
L 240.912 31.810958
L 244.296 31.813991
L 247.68 31.81299
L 251.064 31.817423
L 254.448 31.818501
L 257.832 31.825096
L 261.216 31.832621
L 264.6 31.829692
L 267.984 31.833571
L 271.368 31.834045
L 274.752 31.8354
L 278.136 31.838241
L 281.52 31.839758
L 284.904 31.841373
L 288.288 31.845555
L 291.672 31.847054
L 295.056 31.849052
L 298.44 31.850845
L 301.824 31.854321
L 305.208 31.853696
L 308.592 31.856143
L 311.976 31.857629
L 315.36 31.859513
L 318.744 31.863392
L 322.128 31.862419
L 325.512 31.86465
L 328.896 31.865573
L 332.28 31.867091
L 335.664 31.869455
L 339.048 31.870222
L 342.432 31.871612
L 345.816 31.873171
" clip-path="url(#p8e9bfb0c13)" style="fill: none; stroke: #000000; stroke-opacity: 0.1; stroke-width: 1.5; stroke-linecap: square"/>
   </g>
   <g id="line2d_2">
    <path d="M 10.8 28.611898
L 14.184 30.190609
L 17.568 30.774057
L 20.952 31.033394
L 24.336 31.170119
L 27.72 31.250936
L 31.104 31.301008
L 34.488 31.36803
L 37.872 31.406242
L 41.256 31.447373
L 44.64 31.482812
L 48.024 31.49465
L 51.408 31.530858
L 54.792 31.537236
L 58.176 31.560743
L 61.56 31.579109
L 64.944 31.598157
L 68.328 31.604364
L 71.712 31.613266
L 75.096 31.62137
L 78.48 31.634665
L 81.864 31.663833
L 85.248 31.673351
L 88.632 31.680655
L 92.016 31.681902
L 95.4 31.698787
L 98.784 31.687308
L 102.168 31.71052
L 105.552 31.708942
L 108.936 31.721362
L 112.32 31.712551
L 115.704 31.74564
L 119.088 31.740518
L 122.472 31.739173
L 125.856 31.748433
L 129.24 31.742738
L 132.624 31.772613
L 136.008 31.763074
L 139.392 31.775583
L 142.776 31.771182
L 146.16 31.790368
L 149.544 31.788658
L 152.928 31.795863
L 156.312 31.80769
L 159.696 31.812195
L 163.08 31.80971
L 166.464 31.817017
L 169.848 31.824046
L 173.232 31.827489
L 176.616 31.827617
L 180 31.834906
L 183.384 31.833126
L 186.768 31.835679
L 190.152 31.832676
L 193.536 31.836048
L 196.92 31.861341
L 200.304 31.852456
L 203.688 31.856176
L 207.072 31.86342
L 210.456 31.860658
L 213.84 31.86805
L 217.224 31.866383
L 220.608 31.870399
L 223.992 31.878049
L 227.376 31.887876
L 230.76 31.872275
L 234.144 31.888185
L 237.528 31.881486
L 240.912 31.892812
L 244.296 31.888304
L 247.68 31.88517
L 251.064 31.896649
L 254.448 31.90075
L 257.832 31.898811
L 261.216 31.896151
L 264.6 31.901435
L 267.984 31.908133
L 271.368 31.908688
L 274.752 31.907061
L 278.136 31.913551
L 281.52 31.91218
L 284.904 31.912072
L 288.288 31.921323
L 291.672 31.917725
L 295.056 31.923013
L 298.44 31.922908
L 301.824 31.924057
L 305.208 31.928944
L 308.592 31.928445
L 311.976 31.930543
L 315.36 31.934768
L 318.744 31.936286
L 322.128 31.934966
L 325.512 31.939441
L 328.896 31.939488
L 332.28 31.941528
L 335.664 31.944796
L 339.048 31.946652
L 342.432 31.94815
L 345.816 31.949872
" clip-path="url(#p8e9bfb0c13)" style="fill: none; stroke: #000000; stroke-opacity: 0.1; stroke-width: 1.5; stroke-linecap: square"/>
   </g>
   <g id="line2d_3">
    <path d="M 10.8 27.960261
L 14.184 29.668397
L 17.568 30.210832
L 20.952 30.578767
L 24.336 30.783871
L 27.72 30.89528
L 31.104 30.967446
L 34.488 31.032526
L 37.872 31.086107
L 41.256 31.127379
L 44.64 31.169329
L 48.024 31.21304
L 51.408 31.261818
L 54.792 31.287841
L 58.176 31.315557
L 61.56 31.341332
L 64.944 31.377716
L 68.328 31.390902
L 71.712 31.413556
L 75.096 31.442936
L 78.48 31.457348
L 81.864 31.471521
L 85.248 31.494491
L 88.632 31.495583
L 92.016 31.512222
L 95.4 31.520088
L 98.784 31.527134
L 102.168 31.540277
L 105.552 31.558937
L 108.936 31.574437
L 112.32 31.574097
L 115.704 31.578554
L 119.088 31.589928
L 122.472 31.599867
L 125.856 31.610916
L 129.24 31.620063
L 132.624 31.624818
L 136.008 31.631033
L 139.392 31.637316
L 142.776 31.638756
L 146.16 31.655887
L 149.544 31.65609
L 152.928 31.66803
L 156.312 31.667682
L 159.696 31.674488
L 163.08 31.678762
L 166.464 31.682704
L 169.848 31.693914
L 173.232 31.692343
L 176.616 31.70098
L 180 31.70177
L 183.384 31.708626
L 186.768 31.716968
L 190.152 31.717989
L 193.536 31.727924
L 196.92 31.723195
L 200.304 31.73698
L 203.688 31.73615
L 207.072 31.742683
L 210.456 31.741053
L 213.84 31.752034
L 217.224 31.748932
L 220.608 31.753181
L 223.992 31.75667
L 227.376 31.760341
L 230.76 31.763585
L 234.144 31.768523
L 237.528 31.768427
L 240.912 31.772424
L 244.296 31.775531
L 247.68 31.780999
L 251.064 31.78005
L 254.448 31.78529
L 257.832 31.787855
L 261.216 31.791574
L 264.6 31.792208
L 267.984 31.794173
L 271.368 31.79978
L 274.752 31.799449
L 278.136 31.799299
L 281.52 31.803757
L 284.904 31.805948
L 288.288 31.805815
L 291.672 31.813145
L 295.056 31.811098
L 298.44 31.813858
L 301.824 31.816145
L 305.208 31.816302
L 308.592 31.81912
L 311.976 31.819715
L 315.36 31.822957
L 318.744 31.82232
L 322.128 31.823732
L 325.512 31.825744
L 328.896 31.827511
L 332.28 31.828845
L 335.664 31.829404
L 339.048 31.831231
L 342.432 31.832358
L 345.816 31.83351
" clip-path="url(#p8e9bfb0c13)" style="fill: none; stroke: #000000; stroke-opacity: 0.1; stroke-width: 1.5; stroke-linecap: square"/>
   </g>
   <g id="line2d_4">
    <path d="M 10.8 28.858915
L 14.184 30.703758
L 17.568 31.146674
L 20.952 31.351253
L 24.336 31.49201
L 27.72 31.586779
L 31.104 31.638431
L 34.488 31.723149
L 37.872 31.759715
L 41.256 31.81287
L 44.64 31.850247
L 48.024 31.895254
L 51.408 31.926176
L 54.792 31.957678
L 58.176 31.988137
L 61.56 32.025597
L 64.944 32.045056
L 68.328 32.076488
L 71.712 32.126019
L 75.096 32.130767
L 78.48 32.155693
L 81.864 32.186658
L 85.248 32.218742
L 88.632 32.24105
L 92.016 32.247318
L 95.4 32.275635
L 98.784 32.308584
L 102.168 32.324507
L 105.552 32.354162
L 108.936 32.367609
L 112.32 32.388775
L 115.704 32.395437
L 119.088 32.435638
L 122.472 32.428488
L 125.856 32.447696
L 129.24 32.465682
L 132.624 32.47932
L 136.008 32.502061
L 139.392 32.519513
L 142.776 32.545725
L 146.16 32.559181
L 149.544 32.562778
L 152.928 32.578082
L 156.312 32.5951
L 159.696 32.611926
L 163.08 32.630903
L 166.464 32.634305
L 169.848 32.666438
L 173.232 32.67782
L 176.616 32.676094
L 180 32.69727
L 183.384 32.71698
L 186.768 32.732779
L 190.152 32.730852
L 193.536 32.754117
L 196.92 32.765768
L 200.304 32.775887
L 203.688 32.790563
L 207.072 32.808086
L 210.456 32.800745
L 213.84 32.81571
L 217.224 32.828442
L 220.608 32.840072
L 223.992 32.848911
L 227.376 32.857026
L 230.76 32.885896
L 234.144 32.867716
L 237.528 32.883105
L 240.912 32.896132
L 244.296 32.912532
L 247.68 32.913297
L 251.064 32.924884
L 254.448 32.931409
L 257.832 32.94589
L 261.216 32.952669
L 264.6 32.966064
L 267.984 32.966094
L 271.368 32.976904
L 274.752 32.994378
L 278.136 32.996729
L 281.52 32.993295
L 284.904 33.007809
L 288.288 33.01168
L 291.672 33.018412
L 295.056 33.026893
L 298.44 33.028237
L 301.824 33.037051
L 305.208 33.045905
L 308.592 33.050018
L 311.976 33.054937
L 315.36 33.060211
L 318.744 33.065516
L 322.128 33.072809
L 325.512 33.07767
L 328.896 33.0806
L 332.28 33.084649
L 335.664 33.089705
L 339.048 33.094409
L 342.432 33.098358
L 345.816 33.102488
" clip-path="url(#p8e9bfb0c13)" style="fill: none; stroke: #000000; stroke-opacity: 0.1; stroke-width: 1.5; stroke-linecap: square"/>
   </g>
   <g id="line2d_5">
    <path d="M 10.8 22.870069
L 14.184 28.413811
L 17.568 28.723948
L 20.952 28.822296
L 24.336 28.922475
L 27.72 29.028204
L 31.104 29.140488
L 34.488 29.264604
L 37.872 29.384645
L 41.256 29.50187
L 44.64 29.610012
L 48.024 29.703922
L 51.408 29.771179
L 54.792 29.821504
L 58.176 29.855727
L 61.56 29.885312
L 64.944 29.904827
L 68.328 29.918039
L 71.712 29.936009
L 75.096 29.942065
L 78.48 29.95431
L 81.864 29.964559
L 85.248 29.975897
L 88.632 29.982827
L 92.016 29.992309
L 95.4 30.004613
L 98.784 30.008423
L 102.168 30.016591
L 105.552 30.025597
L 108.936 30.031767
L 112.32 30.041561
L 115.704 30.047035
L 119.088 30.055676
L 122.472 30.063342
L 125.856 30.071598
L 129.24 30.075351
L 132.624 30.083878
L 136.008 30.090982
L 139.392 30.10339
L 142.776 30.109351
L 146.16 30.1175
L 149.544 30.126048
L 152.928 30.13405
L 156.312 30.142909
L 159.696 30.151152
L 163.08 30.158227
L 166.464 30.166157
L 169.848 30.172623
L 173.232 30.180303
L 176.616 30.18729
L 180 30.195971
L 183.384 30.201514
L 186.768 30.209669
L 190.152 30.217394
L 193.536 30.223352
L 196.92 30.230337
L 200.304 30.236962
L 203.688 30.240283
L 207.072 30.247333
L 210.456 30.252267
L 213.84 30.257269
L 217.224 30.262781
L 220.608 30.268315
L 223.992 30.272775
L 227.376 30.276873
L 230.76 30.281176
L 234.144 30.285918
L 237.528 30.28931
L 240.912 30.293913
L 244.296 30.297106
L 247.68 30.301668
L 251.064 30.304458
L 254.448 30.307768
L 257.832 30.310457
L 261.216 30.313014
L 264.6 30.316647
L 267.984 30.31831
L 271.368 30.320588
L 274.752 30.323858
L 278.136 30.325321
L 281.52 30.327709
L 284.904 30.329123
L 288.288 30.331198
L 291.672 30.332686
L 295.056 30.334756
L 298.44 30.336282
L 301.824 30.337614
L 305.208 30.339059
L 308.592 30.339721
L 311.976 30.340994
L 315.36 30.34221
L 318.744 30.343024
L 322.128 30.343712
L 325.512 30.344549
L 328.896 30.345235
L 332.28 30.345983
L 335.664 30.34651
L 339.048 30.347089
L 342.432 30.347446
L 345.816 30.347765
" clip-path="url(#p8e9bfb0c13)" style="fill: none; stroke: #000000; stroke-opacity: 0.1; stroke-width: 1.5; stroke-linecap: square"/>
   </g>
   <g id="line2d_6">
    <path d="M 10.8 16.363636
L 14.184 24.520424
L 17.568 27.874074
L 20.952 28.486177
L 24.336 28.605455
L 27.72 28.695465
L 31.104 28.779704
L 34.488 28.865022
L 37.872 28.936761
L 41.256 28.998894
L 44.64 29.046205
L 48.024 29.081963
L 51.408 29.112458
L 54.792 29.135929
L 58.176 29.154182
L 61.56 29.170606
L 64.944 29.186465
L 68.328 29.198478
L 71.712 29.209429
L 75.096 29.218116
L 78.48 29.228094
L 81.864 29.23422
L 85.248 29.245589
L 88.632 29.250064
L 92.016 29.26116
L 95.4 29.263799
L 98.784 29.271677
L 102.168 29.279265
L 105.552 29.285392
L 108.936 29.293876
L 112.32 29.301199
L 115.704 29.308158
L 119.088 29.313114
L 122.472 29.321617
L 125.856 29.325724
L 129.24 29.331127
L 132.624 29.336602
L 136.008 29.343642
L 139.392 29.344923
L 142.776 29.350549
L 146.16 29.352158
L 149.544 29.355335
L 152.928 29.358107
L 156.312 29.362234
L 159.696 29.364472
L 163.08 29.365497
L 166.464 29.369793
L 169.848 29.368897
L 173.232 29.371657
L 176.616 29.371116
L 180 29.373749
L 183.384 29.375493
L 186.768 29.37682
L 190.152 29.37824
L 193.536 29.37757
L 196.92 29.37821
L 200.304 29.378655
L 203.688 29.381023
L 207.072 29.381595
L 210.456 29.383671
L 213.84 29.382921
L 217.224 29.382524
L 220.608 29.384701
L 223.992 29.384208
L 227.376 29.385503
L 230.76 29.385054
L 234.144 29.385596
L 237.528 29.386905
L 240.912 29.387056
L 244.296 29.387014
L 247.68 29.388288
L 251.064 29.387781
L 254.448 29.38852
L 257.832 29.38863
L 261.216 29.388624
L 264.6 29.389428
L 267.984 29.389383
L 271.368 29.389554
L 274.752 29.390663
L 278.136 29.39077
L 281.52 29.390801
L 284.904 29.391491
L 288.288 29.391249
L 291.672 29.391345
L 295.056 29.391619
L 298.44 29.392136
L 301.824 29.392212
L 305.208 29.392382
L 308.592 29.392527
L 311.976 29.393045
L 315.36 29.393326
L 318.744 29.393512
L 322.128 29.393551
L 325.512 29.393793
L 328.896 29.393963
L 332.28 29.394277
L 335.664 29.394499
L 339.048 29.394635
L 342.432 29.394843
L 345.816 29.394993
" clip-path="url(#p8e9bfb0c13)" style="fill: none; stroke: #000000; stroke-opacity: 0.1; stroke-width: 1.5; stroke-linecap: square"/>
   </g>
   <g id="line2d_7">
    <path d="M 10.8 23.06034
L 14.184 26.243959
L 17.568 28.114009
L 20.952 28.480202
L 24.336 28.498111
L 27.72 28.500157
L 31.104 28.498484
L 34.488 28.497393
L 37.872 28.499566
L 41.256 28.497403
L 44.64 28.499255
L 48.024 28.496637
L 51.408 28.498867
L 54.792 28.498434
L 58.176 28.500307
L 61.56 28.499689
L 64.944 28.499757
L 68.328 28.498419
L 71.712 28.498572
L 75.096 28.497957
L 78.48 28.499779
L 81.864 28.498871
L 85.248 28.498859
L 88.632 28.499278
L 92.016 28.498454
L 95.4 28.499806
L 98.784 28.499796
L 102.168 28.499091
L 105.552 28.500016
L 108.936 28.500175
L 112.32 28.498925
L 115.704 28.498128
L 119.088 28.498979
L 122.472 28.499689
L 125.856 28.500074
L 129.24 28.500194
L 132.624 28.499911
L 136.008 28.500242
L 139.392 28.499481
L 142.776 28.501925
L 146.16 28.500326
L 149.544 28.500475
L 152.928 28.49991
L 156.312 28.500445
L 159.696 28.500522
L 163.08 28.500372
L 166.464 28.500716
L 169.848 28.501104
L 173.232 28.499759
L 176.616 28.500905
L 180 28.500617
L 183.384 28.501015
L 186.768 28.500325
L 190.152 28.50071
L 193.536 28.502613
L 196.92 28.501105
L 200.304 28.500778
L 203.688 28.500549
L 207.072 28.501224
L 210.456 28.5008
L 213.84 28.501063
L 217.224 28.501521
L 220.608 28.501228
L 223.992 28.500775
L 227.376 28.502277
L 230.76 28.501547
L 234.144 28.501195
L 237.528 28.501942
L 240.912 28.502527
L 244.296 28.501787
L 247.68 28.501966
L 251.064 28.502511
L 254.448 28.501672
L 257.832 28.501654
L 261.216 28.501979
L 264.6 28.502466
L 267.984 28.502041
L 271.368 28.502021
L 274.752 28.502149
L 278.136 28.502376
L 281.52 28.502524
L 284.904 28.502583
L 288.288 28.502757
L 291.672 28.502712
L 295.056 28.502748
L 298.44 28.502876
L 301.824 28.502913
L 305.208 28.50287
L 308.592 28.503059
L 311.976 28.503188
L 315.36 28.503288
L 318.744 28.503349
L 322.128 28.50337
L 325.512 28.503334
L 328.896 28.50353
L 332.28 28.503551
L 335.664 28.503644
L 339.048 28.503751
L 342.432 28.503822
L 345.816 28.503926
" clip-path="url(#p8e9bfb0c13)" style="fill: none; stroke: #000000; stroke-opacity: 0.1; stroke-width: 1.5; stroke-linecap: square"/>
   </g>
   <g id="line2d_8">
    <path d="M 10.8 26.436025
L 14.184 28.547264
L 17.568 28.561876
L 20.952 28.555601
L 24.336 28.560227
L 27.72 28.557934
L 31.104 28.556563
L 34.488 28.558354
L 37.872 28.561194
L 41.256 28.559539
L 44.64 28.561076
L 48.024 28.557997
L 51.408 28.559795
L 54.792 28.564026
L 58.176 28.561545
L 61.56 28.562023
L 64.944 28.560163
L 68.328 28.56028
L 71.712 28.56298
L 75.096 28.56317
L 78.48 28.56286
L 81.864 28.566117
L 85.248 28.56203
L 88.632 28.561933
L 92.016 28.563631
L 95.4 28.562506
L 98.784 28.56261
L 102.168 28.56506
L 105.552 28.565363
L 108.936 28.566271
L 112.32 28.564013
L 115.704 28.565827
L 119.088 28.563713
L 122.472 28.566885
L 125.856 28.564068
L 129.24 28.566653
L 132.624 28.566952
L 136.008 28.565215
L 139.392 28.564518
L 142.776 28.567558
L 146.16 28.566914
L 149.544 28.566754
L 152.928 28.565417
L 156.312 28.566556
L 159.696 28.566441
L 163.08 28.567765
L 166.464 28.568222
L 169.848 28.566743
L 173.232 28.568386
L 176.616 28.568236
L 180 28.56721
L 183.384 28.571225
L 186.768 28.569297
L 190.152 28.567108
L 193.536 28.567564
L 196.92 28.569128
L 200.304 28.568492
L 203.688 28.568917
L 207.072 28.570542
L 210.456 28.569837
L 213.84 28.56887
L 217.224 28.56914
L 220.608 28.569353
L 223.992 28.569806
L 227.376 28.571386
L 230.76 28.570971
L 234.144 28.570696
L 237.528 28.571326
L 240.912 28.569466
L 244.296 28.571266
L 247.68 28.57034
L 251.064 28.57206
L 254.448 28.570819
L 257.832 28.571342
L 261.216 28.571414
L 264.6 28.571286
L 267.984 28.572397
L 271.368 28.572192
L 274.752 28.571877
L 278.136 28.572391
L 281.52 28.572889
L 284.904 28.572548
L 288.288 28.572002
L 291.672 28.572842
L 295.056 28.573212
L 298.44 28.573441
L 301.824 28.573842
L 305.208 28.573284
L 308.592 28.573666
L 311.976 28.574299
L 315.36 28.574134
L 318.744 28.57445
L 322.128 28.574692
L 325.512 28.574803
L 328.896 28.575142
L 332.28 28.575258
L 335.664 28.575347
L 339.048 28.575644
L 342.432 28.57591
L 345.816 28.576056
" clip-path="url(#p8e9bfb0c13)" style="fill: none; stroke: #000000; stroke-opacity: 0.1; stroke-width: 1.5; stroke-linecap: square"/>
   </g>
   <g id="line2d_9">
    <path d="M 10.8 26.984412
L 14.184 28.414071
L 17.568 28.408685
L 20.952 28.406751
L 24.336 28.405504
L 27.72 28.409938
L 31.104 28.41283
L 34.488 28.408074
L 37.872 28.408992
L 41.256 28.402038
L 44.64 28.412365
L 48.024 28.408779
L 51.408 28.412208
L 54.792 28.407661
L 58.176 28.411678
L 61.56 28.408359
L 64.944 28.413761
L 68.328 28.411361
L 71.712 28.414411
L 75.096 28.41212
L 78.48 28.413425
L 81.864 28.414951
L 85.248 28.410956
L 88.632 28.410795
L 92.016 28.414277
L 95.4 28.415801
L 98.784 28.416301
L 102.168 28.416588
L 105.552 28.416035
L 108.936 28.419295
L 112.32 28.411533
L 115.704 28.410917
L 119.088 28.415316
L 122.472 28.415199
L 125.856 28.414611
L 129.24 28.415879
L 132.624 28.414962
L 136.008 28.413624
L 139.392 28.417471
L 142.776 28.415769
L 146.16 28.413575
L 149.544 28.414704
L 152.928 28.416811
L 156.312 28.417831
L 159.696 28.417067
L 163.08 28.417845
L 166.464 28.419215
L 169.848 28.417039
L 173.232 28.414759
L 176.616 28.416962
L 180 28.418183
L 183.384 28.417137
L 186.768 28.4181
L 190.152 28.416804
L 193.536 28.418323
L 196.92 28.416873
L 200.304 28.41931
L 203.688 28.419203
L 207.072 28.420031
L 210.456 28.420717
L 213.84 28.420022
L 217.224 28.418946
L 220.608 28.419715
L 223.992 28.419138
L 227.376 28.419541
L 230.76 28.419401
L 234.144 28.421559
L 237.528 28.421636
L 240.912 28.421354
L 244.296 28.420003
L 247.68 28.421334
L 251.064 28.421702
L 254.448 28.421793
L 257.832 28.422186
L 261.216 28.421313
L 264.6 28.421916
L 267.984 28.421991
L 271.368 28.423564
L 274.752 28.422744
L 278.136 28.422347
L 281.52 28.422521
L 284.904 28.422628
L 288.288 28.423332
L 291.672 28.423759
L 295.056 28.422933
L 298.44 28.423923
L 301.824 28.423671
L 305.208 28.423705
L 308.592 28.424373
L 311.976 28.42436
L 315.36 28.424452
L 318.744 28.424988
L 322.128 28.424797
L 325.512 28.424979
L 328.896 28.425638
L 332.28 28.425566
L 335.664 28.425965
L 339.048 28.426137
L 342.432 28.426433
L 345.816 28.426668
" clip-path="url(#p8e9bfb0c13)" style="fill: none; stroke: #000000; stroke-opacity: 0.1; stroke-width: 1.5; stroke-linecap: square"/>
   </g>
   <g id="line2d_10">
    <path d="M 10.8 27.566173
L 14.184 29.709262
L 17.568 30.351383
L 20.952 30.769777
L 24.336 30.967273
L 27.72 31.063855
L 31.104 31.140602
L 34.488 31.200071
L 37.872 31.25232
L 41.256 31.304963
L 44.64 31.334379
L 48.024 31.363357
L 51.408 31.397151
L 54.792 31.425531
L 58.176 31.452021
L 61.56 31.477284
L 64.944 31.48662
L 68.328 31.506967
L 71.712 31.52377
L 75.096 31.532229
L 78.48 31.546301
L 81.864 31.560172
L 85.248 31.586698
L 88.632 31.588329
L 92.016 31.603437
L 95.4 31.609797
L 98.784 31.616642
L 102.168 31.625901
L 105.552 31.638341
L 108.936 31.650591
L 112.32 31.658798
L 115.704 31.651703
L 119.088 31.664447
L 122.472 31.67707
L 125.856 31.676354
L 129.24 31.68768
L 132.624 31.690392
L 136.008 31.701481
L 139.392 31.705469
L 142.776 31.705511
L 146.16 31.716207
L 149.544 31.719942
L 152.928 31.729623
L 156.312 31.73579
L 159.696 31.736794
L 163.08 31.736466
L 166.464 31.73454
L 169.848 31.752595
L 173.232 31.75403
L 176.616 31.75892
L 180 31.764263
L 183.384 31.769718
L 186.768 31.773195
L 190.152 31.77341
L 193.536 31.77898
L 196.92 31.784314
L 200.304 31.788797
L 203.688 31.795441
L 207.072 31.795264
L 210.456 31.801567
L 213.84 31.802754
L 217.224 31.804022
L 220.608 31.806715
L 223.992 31.809513
L 227.376 31.814354
L 230.76 31.817915
L 234.144 31.817075
L 237.528 31.824343
L 240.912 31.825364
L 244.296 31.830029
L 247.68 31.831984
L 251.064 31.83094
L 254.448 31.834191
L 257.832 31.833569
L 261.216 31.840076
L 264.6 31.843852
L 267.984 31.848536
L 271.368 31.845367
L 274.752 31.84873
L 278.136 31.848929
L 281.52 31.852896
L 284.904 31.853316
L 288.288 31.857696
L 291.672 31.859645
L 295.056 31.860994
L 298.44 31.861771
L 301.824 31.863324
L 305.208 31.86479
L 308.592 31.867004
L 311.976 31.867899
L 315.36 31.8715
L 318.744 31.868759
L 322.128 31.873041
L 325.512 31.874335
L 328.896 31.874626
L 332.28 31.877146
L 335.664 31.877527
L 339.048 31.878918
L 342.432 31.880442
L 345.816 31.881553
" clip-path="url(#p8e9bfb0c13)" style="fill: none; stroke: #000000; stroke-width: 1.5; stroke-linecap: square"/>
   </g>
  </g>
 </g>
 <defs>
  <clipPath id="p8e9bfb0c13">
   <rect x="10.8" y="10.8" width="338.4" height="122.4"/>
  </clipPath>
 </defs>
</svg>
