<?xml version="1.0" encoding="utf-8" standalone="no"?>
<!DOCTYPE svg PUBLIC "-//W3C//DTD SVG 1.1//EN"
  "http://www.w3.org/Graphics/SVG/1.1/DTD/svg11.dtd">
<svg xmlns:xlink="http://www.w3.org/1999/xlink" width="360pt" height="144pt" viewBox="0 0 360 144" xmlns="http://www.w3.org/2000/svg" version="1.1">
 <metadata>
  <rdf:RDF xmlns:dc="http://purl.org/dc/elements/1.1/" xmlns:cc="http://creativecommons.org/ns#" xmlns:rdf="http://www.w3.org/1999/02/22-rdf-syntax-ns#">
   <cc:Work>
    <dc:type rdf:resource="http://purl.org/dc/dcmitype/StillImage"/>
    <dc:date>2024-04-02T17:23:23.560487</dc:date>
    <dc:format>image/svg+xml</dc:format>
    <dc:creator>
     <cc:Agent>
      <dc:title>Matplotlib v3.8.3, https://matplotlib.org/</dc:title>
     </cc:Agent>
    </dc:creator>
   </cc:Work>
  </rdf:RDF>
 </metadata>
 <defs>
  <style type="text/css">*{stroke-linejoin: round; stroke-linecap: butt}</style>
 </defs>
 <g id="figure_1">
  <g id="patch_1">
   <path d="M 0 144
L 360 144
L 360 0
L 0 0
z
" style="fill: #ffffff"/>
  </g>
  <g id="axes_1">
   <g id="LineCollection_1">
    <path d="M 10.8 127.636364
L 349.2 127.636364
" clip-path="url(#p6358aaaaa2)" style="fill: none; stroke-dasharray: 5.55,2.4; stroke-dashoffset: 0; stroke: #000000; stroke-width: 1.5"/>
   </g>
   <g id="line2d_1">
    <path d="M 10.8 20.135316
L 14.184 38.984133
L 17.568 42.122539
L 20.952 42.482162
L 24.336 40.729485
L 27.72 48.506561
L 31.104 45.703661
L 34.488 50.403206
L 37.872 54.659969
L 41.256 54.24935
L 44.64 46.40963
L 48.024 56.47225
L 51.408 53.83718
L 54.792 51.569783
L 58.176 53.950431
L 61.56 60.90271
L 64.944 46.380629
L 68.328 53.205493
L 71.712 57.640136
L 75.096 63.297883
L 78.48 51.900911
L 81.864 53.14303
L 85.248 57.733459
L 88.632 62.909239
L 92.016 67.198243
L 95.4 52.849886
L 98.784 66.814825
L 102.168 63.080209
L 105.552 55.750584
L 108.936 67.677304
L 112.32 68.882388
L 115.704 55.917932
L 119.088 69.907417
L 122.472 72.23334
L 125.856 65.338408
L 129.24 59.489152
L 132.624 74.151704
L 136.008 70.592559
L 139.392 63.178067
L 142.776 72.577392
L 146.16 76.406536
L 149.544 66.493485
L 152.928 77.015196
L 156.312 67.826698
L 159.696 67.126311
L 163.08 71.188371
L 166.464 82.564636
L 169.848 84.338843
L 173.232 83.634582
L 176.616 70.254061
L 180 66.236353
L 183.384 83.218248
L 186.768 86.427516
L 190.152 85.829717
L 193.536 82.664807
L 196.92 78.298135
L 200.304 79.871873
L 203.688 83.714192
L 207.072 88.265661
L 210.456 87.794465
L 213.84 88.641614
L 217.224 83.655297
L 220.608 69.526465
L 223.992 88.912857
L 227.376 89.841768
L 230.76 90.334267
L 234.144 90.652488
L 237.528 91.019521
L 240.912 80.73897
L 244.296 74.415937
L 247.68 90.974489
L 251.064 89.774357
L 254.448 91.659199
L 257.832 92.137165
L 261.216 92.416873
L 264.6 92.328975
L 267.984 92.138873
L 271.368 93.236994
L 274.752 92.400892
L 278.136 92.34899
L 281.52 91.363858
L 284.904 88.136294
L 288.288 92.917326
L 291.672 94.522446
L 295.056 94.422951
L 298.44 94.252426
L 301.824 94.64074
L 305.208 95.000652
L 308.592 95.309195
L 311.976 95.442349
L 315.36 95.616415
L 318.744 95.779589
L 322.128 95.917735
L 325.512 96.043219
L 328.896 96.036857
L 332.28 96.254505
L 335.664 96.299488
L 339.048 96.427001
L 342.432 96.524931
L 345.816 96.56628
" clip-path="url(#p6358aaaaa2)" style="fill: none; stroke: #000000; stroke-opacity: 0.1; stroke-width: 1.5; stroke-linecap: square"/>
   </g>
   <g id="line2d_2">
    <path d="M 10.8 16.363636
L 14.184 32.079432
L 17.568 41.775839
L 20.952 42.309714
L 24.336 42.850798
L 27.72 42.85255
L 31.104 43.639342
L 34.488 45.021901
L 37.872 45.277419
L 41.256 47.210136
L 44.64 49.963257
L 48.024 53.23995
L 51.408 55.789383
L 54.792 60.27819
L 58.176 62.019658
L 61.56 66.322682
L 64.944 68.017577
L 68.328 68.692199
L 71.712 65.367162
L 75.096 72.530927
L 78.48 74.755257
L 81.864 76.488867
L 85.248 75.707667
L 88.632 72.029545
L 92.016 61.275579
L 95.4 78.85006
L 98.784 79.234748
L 102.168 81.319389
L 105.552 80.168861
L 108.936 82.282554
L 112.32 80.969012
L 115.704 68.451803
L 119.088 76.084868
L 122.472 84.034707
L 125.856 75.619851
L 129.24 78.277685
L 132.624 83.715871
L 136.008 80.439189
L 139.392 83.547408
L 142.776 76.211346
L 146.16 82.380379
L 149.544 76.481756
L 152.928 82.458682
L 156.312 81.40667
L 159.696 83.672575
L 163.08 83.107376
L 166.464 79.63773
L 169.848 78.178049
L 173.232 84.798362
L 176.616 79.702928
L 180 78.856388
L 183.384 87.32314
L 186.768 88.017222
L 190.152 89.017245
L 193.536 86.906333
L 196.92 84.409841
L 200.304 88.989407
L 203.688 84.78955
L 207.072 89.204924
L 210.456 89.610531
L 213.84 82.327822
L 217.224 68.278728
L 220.608 81.061427
L 223.992 90.899214
L 227.376 91.249544
L 230.76 91.536027
L 234.144 91.067288
L 237.528 91.370435
L 240.912 90.845288
L 244.296 91.579892
L 247.68 91.538887
L 251.064 90.869995
L 254.448 90.594532
L 257.832 91.68138
L 261.216 90.798359
L 264.6 91.640527
L 267.984 92.423914
L 271.368 91.388791
L 274.752 88.974407
L 278.136 92.373986
L 281.52 92.243446
L 284.904 93.119871
L 288.288 92.768391
L 291.672 93.317949
L 295.056 92.615072
L 298.44 93.025713
L 301.824 93.365882
L 305.208 94.255523
L 308.592 94.458845
L 311.976 94.427008
L 315.36 94.418136
L 318.744 94.964903
L 322.128 94.319558
L 325.512 95.204806
L 328.896 95.234757
L 332.28 95.376153
L 335.664 95.483221
L 339.048 95.52692
L 342.432 95.637104
L 345.816 95.688314
" clip-path="url(#p6358aaaaa2)" style="fill: none; stroke: #000000; stroke-opacity: 0.1; stroke-width: 1.5; stroke-linecap: square"/>
   </g>
   <g id="line2d_3">
    <path d="M 10.8 19.505789
L 14.184 26.013169
L 17.568 33.981225
L 20.952 34.847977
L 24.336 35.629614
L 27.72 36.420973
L 31.104 37.381625
L 34.488 38.560039
L 37.872 39.967358
L 41.256 41.505792
L 44.64 42.834631
L 48.024 43.800814
L 51.408 44.439047
L 54.792 44.901583
L 58.176 45.381296
L 61.56 45.971943
L 64.944 46.655412
L 68.328 47.678957
L 71.712 48.985226
L 75.096 51.175394
L 78.48 53.806371
L 81.864 56.607323
L 85.248 59.511207
L 88.632 62.198625
L 92.016 63.969525
L 95.4 66.173325
L 98.784 67.277785
L 102.168 67.051294
L 105.552 68.585175
L 108.936 69.602289
L 112.32 70.32292
L 115.704 70.377506
L 119.088 70.808734
L 122.472 71.874867
L 125.856 72.430346
L 129.24 73.00782
L 132.624 73.295728
L 136.008 73.737613
L 139.392 73.909122
L 142.776 73.8231
L 146.16 74.042873
L 149.544 75.698678
L 152.928 75.89304
L 156.312 76.318668
L 159.696 76.679658
L 163.08 77.015135
L 166.464 76.862385
L 169.848 75.24268
L 173.232 77.352161
L 176.616 77.01009
L 180 78.322509
L 183.384 78.58121
L 186.768 78.559153
L 190.152 78.887623
L 193.536 77.595053
L 196.92 79.511511
L 200.304 79.248972
L 203.688 79.695902
L 207.072 79.752295
L 210.456 80.031526
L 213.84 80.378787
L 217.224 80.618723
L 220.608 80.175315
L 223.992 80.819703
L 227.376 80.702417
L 230.76 81.281233
L 234.144 79.447619
L 237.528 81.494335
L 240.912 81.753346
L 244.296 81.781016
L 247.68 81.912019
L 251.064 82.123073
L 254.448 81.846913
L 257.832 81.510805
L 261.216 82.266686
L 264.6 82.500825
L 267.984 82.619586
L 271.368 82.732383
L 274.752 82.875202
L 278.136 82.955284
L 281.52 83.043593
L 284.904 83.07633
L 288.288 83.167091
L 291.672 83.165594
L 295.056 83.4123
L 298.44 83.454327
L 301.824 83.424032
L 305.208 83.509071
L 308.592 83.616434
L 311.976 83.720033
L 315.36 83.780776
L 318.744 83.785529
L 322.128 83.883474
L 325.512 83.935942
L 328.896 83.95956
L 332.28 83.982637
L 335.664 84.045777
L 339.048 84.062354
L 342.432 84.091551
L 345.816 84.101249
" clip-path="url(#p6358aaaaa2)" style="fill: none; stroke: #000000; stroke-opacity: 0.1; stroke-width: 1.5; stroke-linecap: square"/>
   </g>
   <g id="line2d_4">
    <path d="M 10.8 20.129209
L 14.184 30.993907
L 17.568 33.816974
L 20.952 34.298814
L 24.336 34.684504
L 27.72 35.053629
L 31.104 35.46401
L 34.488 35.98198
L 37.872 36.667178
L 41.256 37.621968
L 44.64 38.973018
L 48.024 40.763693
L 51.408 42.714744
L 54.792 43.996039
L 58.176 45.549482
L 61.56 46.889487
L 64.944 48.817032
L 68.328 52.063776
L 71.712 52.819091
L 75.096 58.985424
L 78.48 61.771335
L 81.864 65.600729
L 85.248 68.106287
L 88.632 70.062525
L 92.016 71.263942
L 95.4 71.332251
L 98.784 72.317946
L 102.168 73.784843
L 105.552 71.119857
L 108.936 64.984696
L 112.32 69.197507
L 115.704 74.991291
L 119.088 75.682818
L 122.472 75.995017
L 125.856 76.073873
L 129.24 75.890836
L 132.624 63.941835
L 136.008 73.716579
L 139.392 76.997272
L 142.776 77.272766
L 146.16 77.392775
L 149.544 77.584325
L 152.928 75.409042
L 156.312 77.190578
L 159.696 77.987239
L 163.08 77.570484
L 166.464 77.731377
L 169.848 75.387482
L 173.232 73.74215
L 176.616 78.495396
L 180 78.452034
L 183.384 78.943526
L 186.768 75.957653
L 190.152 63.954414
L 193.536 75.803825
L 196.92 78.971999
L 200.304 79.463396
L 203.688 79.646382
L 207.072 79.873212
L 210.456 79.254214
L 213.84 79.258908
L 217.224 79.068767
L 220.608 79.894982
L 223.992 80.251983
L 227.376 77.676616
L 230.76 80.22651
L 234.144 79.444804
L 237.528 76.380769
L 240.912 80.435691
L 244.296 80.74855
L 247.68 80.596314
L 251.064 80.933116
L 254.448 78.594372
L 257.832 81.072837
L 261.216 81.285888
L 264.6 81.395247
L 267.984 81.335097
L 271.368 81.584215
L 274.752 81.636709
L 278.136 81.698629
L 281.52 81.801317
L 284.904 81.910536
L 288.288 81.948662
L 291.672 82.039724
L 295.056 81.335733
L 298.44 82.201374
L 301.824 82.215905
L 305.208 82.162678
L 308.592 82.429439
L 311.976 82.450749
L 315.36 82.456051
L 318.744 82.602595
L 322.128 82.667718
L 325.512 82.691707
L 328.896 82.609754
L 332.28 82.788485
L 335.664 82.825489
L 339.048 82.853012
L 342.432 82.869998
L 345.816 82.887433
" clip-path="url(#p6358aaaaa2)" style="fill: none; stroke: #000000; stroke-opacity: 0.1; stroke-width: 1.5; stroke-linecap: square"/>
   </g>
   <g id="line2d_5">
    <path d="M 10.8 19.556712
L 14.184 27.292584
L 17.568 33.105195
L 20.952 33.641506
L 24.336 34.027399
L 27.72 34.370256
L 31.104 34.686005
L 34.488 35.014458
L 37.872 35.373617
L 41.256 35.776287
L 44.64 36.228105
L 48.024 36.736551
L 51.408 37.312122
L 54.792 37.984657
L 58.176 38.806704
L 61.56 39.848886
L 64.944 41.21677
L 68.328 42.972309
L 71.712 45.080657
L 75.096 47.650329
L 78.48 50.626714
L 81.864 53.628251
L 85.248 56.518156
L 88.632 58.780944
L 92.016 60.788807
L 95.4 62.610339
L 98.784 63.361959
L 102.168 64.61463
L 105.552 65.715643
L 108.936 66.28692
L 112.32 65.808207
L 115.704 67.119899
L 119.088 67.61385
L 122.472 68.017008
L 125.856 67.714287
L 129.24 68.456306
L 132.624 68.070442
L 136.008 65.558503
L 139.392 68.994874
L 142.776 69.410395
L 146.16 69.577307
L 149.544 69.672655
L 152.928 69.775378
L 156.312 69.013001
L 159.696 66.895363
L 163.08 69.703437
L 166.464 70.432529
L 169.848 70.526493
L 173.232 70.667357
L 176.616 70.763629
L 180 70.891955
L 183.384 71.013315
L 186.768 71.085265
L 190.152 71.29703
L 193.536 71.424134
L 196.92 70.993224
L 200.304 71.608704
L 203.688 71.771946
L 207.072 71.925781
L 210.456 71.906374
L 213.84 72.100756
L 217.224 72.332679
L 220.608 72.457255
L 223.992 72.601713
L 227.376 72.763824
L 230.76 70.731191
L 234.144 72.862457
L 237.528 73.067598
L 240.912 73.169678
L 244.296 72.876863
L 247.68 73.205179
L 251.064 73.439676
L 254.448 73.543034
L 257.832 73.644666
L 261.216 73.686972
L 264.6 73.81146
L 267.984 73.894055
L 271.368 73.90041
L 274.752 74.07419
L 278.136 74.171913
L 281.52 74.181545
L 284.904 74.332635
L 288.288 74.415714
L 291.672 74.354008
L 295.056 74.592492
L 298.44 74.662134
L 301.824 74.734102
L 305.208 74.788986
L 308.592 74.87761
L 311.976 74.942105
L 315.36 75.015428
L 318.744 75.06995
L 322.128 75.126275
L 325.512 75.176772
L 328.896 75.230663
L 332.28 75.272829
L 335.664 75.309177
L 339.048 75.34003
L 342.432 75.36425
L 345.816 75.378864
" clip-path="url(#p6358aaaaa2)" style="fill: none; stroke: #000000; stroke-opacity: 0.1; stroke-width: 1.5; stroke-linecap: square"/>
   </g>
   <g id="line2d_6">
    <path d="M 10.8 19.342142
L 14.184 25.398011
L 17.568 31.591142
L 20.952 32.086004
L 24.336 32.288431
L 27.72 32.42993
L 31.104 32.628309
L 34.488 32.778046
L 37.872 32.932792
L 41.256 33.094428
L 44.64 33.276111
L 48.024 33.433239
L 51.408 33.672881
L 54.792 33.88448
L 58.176 34.074112
L 61.56 34.150377
L 64.944 34.543264
L 68.328 34.764546
L 71.712 34.97608
L 75.096 35.232154
L 78.48 35.523524
L 81.864 35.796586
L 85.248 35.618749
L 88.632 36.590368
L 92.016 36.968337
L 95.4 37.397763
L 98.784 37.785027
L 102.168 38.703241
L 105.552 38.224022
L 108.936 39.965775
L 112.32 41.489229
L 115.704 41.171976
L 119.088 41.395553
L 122.472 44.495597
L 125.856 45.728474
L 129.24 42.942227
L 132.624 45.32364
L 136.008 49.154158
L 139.392 50.289989
L 142.776 52.237321
L 146.16 53.52178
L 149.544 50.84211
L 152.928 55.741316
L 156.312 57.793022
L 159.696 58.656864
L 163.08 40.14779
L 166.464 44.890518
L 169.848 52.67327
L 173.232 58.251824
L 176.616 60.850988
L 180 63.360777
L 183.384 63.172665
L 186.768 61.989729
L 190.152 50.946864
L 193.536 63.454116
L 196.92 66.210898
L 200.304 66.952925
L 203.688 67.35856
L 207.072 67.118586
L 210.456 67.721389
L 213.84 68.169616
L 217.224 68.590455
L 220.608 68.715984
L 223.992 68.784089
L 227.376 56.877564
L 230.76 68.008646
L 234.144 69.60187
L 237.528 66.086435
L 240.912 69.90584
L 244.296 69.624336
L 247.68 70.029213
L 251.064 69.773268
L 254.448 70.39087
L 257.832 70.173172
L 261.216 67.915003
L 264.6 59.619362
L 267.984 69.765491
L 271.368 70.883667
L 274.752 70.90231
L 278.136 71.037226
L 281.52 70.195057
L 284.904 67.813332
L 288.288 70.895953
L 291.672 71.329117
L 295.056 71.163798
L 298.44 71.406682
L 301.824 71.519861
L 305.208 71.525914
L 308.592 71.585739
L 311.976 71.61605
L 315.36 71.706318
L 318.744 71.756441
L 322.128 71.819759
L 325.512 71.859553
L 328.896 71.905081
L 332.28 71.942761
L 335.664 71.955457
L 339.048 71.99574
L 342.432 72.017225
L 345.816 72.029355
" clip-path="url(#p6358aaaaa2)" style="fill: none; stroke: #000000; stroke-opacity: 0.1; stroke-width: 1.5; stroke-linecap: square"/>
   </g>
   <g id="line2d_7">
    <path d="M 10.8 19.609799
L 14.184 27.717532
L 17.568 32.474981
L 20.952 32.951823
L 24.336 33.281567
L 27.72 33.533525
L 31.104 33.772526
L 34.488 34.025569
L 37.872 34.166535
L 41.256 34.543004
L 44.64 34.826369
L 48.024 35.116498
L 51.408 35.423254
L 54.792 35.751253
L 58.176 36.095048
L 61.56 36.45594
L 64.944 36.855852
L 68.328 37.310834
L 71.712 37.844343
L 75.096 38.756091
L 78.48 40.437376
L 81.864 43.210009
L 85.248 46.190299
L 88.632 50.173669
L 92.016 50.407132
L 95.4 55.077099
L 98.784 57.572265
L 102.168 59.475834
L 105.552 60.746701
L 108.936 60.730852
L 112.32 55.95658
L 115.704 61.236649
L 119.088 62.698355
L 122.472 60.959467
L 125.856 63.205493
L 129.24 65.090096
L 132.624 65.75098
L 136.008 66.185637
L 139.392 66.512891
L 142.776 66.830504
L 146.16 66.905364
L 149.544 65.674195
L 152.928 54.395949
L 156.312 64.246802
L 159.696 67.476511
L 163.08 67.845986
L 166.464 66.19921
L 169.848 65.575216
L 173.232 68.144397
L 176.616 68.306476
L 180 68.435064
L 183.384 68.506591
L 186.768 66.845977
L 190.152 66.627747
L 193.536 68.810727
L 196.92 68.957684
L 200.304 68.229116
L 203.688 68.873441
L 207.072 58.779307
L 210.456 65.942681
L 213.84 69.097125
L 217.224 69.314008
L 220.608 69.455351
L 223.992 69.552207
L 227.376 69.638368
L 230.76 69.758011
L 234.144 69.853184
L 237.528 68.819375
L 240.912 69.3927
L 244.296 69.998127
L 247.68 70.188816
L 251.064 70.234044
L 254.448 70.348065
L 257.832 70.329408
L 261.216 70.315022
L 264.6 70.488418
L 267.984 70.607873
L 271.368 64.038495
L 274.752 70.726602
L 278.136 70.84252
L 281.52 70.903624
L 284.904 70.962628
L 288.288 71.023671
L 291.672 71.078209
L 295.056 71.143922
L 298.44 71.181518
L 301.824 71.039066
L 305.208 71.06571
L 308.592 71.354871
L 311.976 71.392704
L 315.36 71.446772
L 318.744 71.487077
L 322.128 71.528657
L 325.512 71.565744
L 328.896 71.598702
L 332.28 71.631266
L 335.664 71.65806
L 339.048 71.680686
L 342.432 71.697288
L 345.816 71.708255
" clip-path="url(#p6358aaaaa2)" style="fill: none; stroke: #000000; stroke-opacity: 0.1; stroke-width: 1.5; stroke-linecap: square"/>
   </g>
   <g id="line2d_8">
    <path d="M 10.8 19.753618
L 14.184 28.387341
L 17.568 30.467261
L 20.952 30.898946
L 24.336 31.31413
L 27.72 31.752728
L 31.104 32.122228
L 34.488 32.376653
L 37.872 32.76391
L 41.256 33.058127
L 44.64 32.693007
L 48.024 33.863131
L 51.408 34.273836
L 54.792 34.700089
L 58.176 35.134667
L 61.56 34.983336
L 64.944 35.967782
L 68.328 36.202784
L 71.712 36.38256
L 75.096 37.315212
L 78.48 37.750802
L 81.864 38.544792
L 85.248 39.407357
L 88.632 39.344185
L 92.016 41.421693
L 95.4 42.446158
L 98.784 36.986969
L 102.168 43.958019
L 105.552 45.339466
L 108.936 46.709352
L 112.32 48.001044
L 115.704 47.673045
L 119.088 50.417663
L 122.472 50.478461
L 125.856 49.382193
L 129.24 52.064587
L 132.624 48.271126
L 136.008 53.267556
L 139.392 52.816938
L 142.776 56.638495
L 146.16 57.483243
L 149.544 57.993464
L 152.928 54.062355
L 156.312 50.546926
L 159.696 57.852485
L 163.08 55.744845
L 166.464 60.090525
L 169.848 60.498408
L 173.232 60.985113
L 176.616 50.567834
L 180 58.926323
L 183.384 60.95456
L 186.768 61.742981
L 190.152 62.220407
L 193.536 59.99926
L 196.92 62.904486
L 200.304 58.743007
L 203.688 59.41696
L 207.072 63.57706
L 210.456 63.466585
L 213.84 57.695401
L 217.224 53.130131
L 220.608 64.062273
L 223.992 64.431469
L 227.376 64.766203
L 230.76 64.45795
L 234.144 64.821976
L 237.528 63.609086
L 240.912 57.521714
L 244.296 65.287406
L 247.68 65.693769
L 251.064 65.927009
L 254.448 58.013306
L 257.832 65.711846
L 261.216 66.279342
L 264.6 66.428479
L 267.984 66.58578
L 271.368 66.735463
L 274.752 66.775682
L 278.136 67.000031
L 281.52 66.988614
L 284.904 67.145002
L 288.288 67.387137
L 291.672 67.307585
L 295.056 67.377029
L 298.44 67.725934
L 301.824 63.794191
L 305.208 63.645107
L 308.592 68.008366
L 311.976 68.096928
L 315.36 68.169715
L 318.744 68.22668
L 322.128 68.286688
L 325.512 68.347788
L 328.896 68.381768
L 332.28 68.444786
L 335.664 68.489383
L 339.048 68.520047
L 342.432 68.547184
L 345.816 68.566071
" clip-path="url(#p6358aaaaa2)" style="fill: none; stroke: #000000; stroke-opacity: 0.1; stroke-width: 1.5; stroke-linecap: square"/>
   </g>
   <g id="line2d_9">
    <path d="M 10.8 19.313003
L 14.184 22.754521
L 17.568 31.539112
L 20.952 32.192049
L 24.336 32.590628
L 27.72 32.831144
L 31.104 33.124821
L 34.488 33.381831
L 37.872 33.603073
L 41.256 33.874621
L 44.64 34.131296
L 48.024 34.392611
L 51.408 34.702903
L 54.792 35.037988
L 58.176 35.565316
L 61.56 36.01751
L 64.944 36.422657
L 68.328 37.42819
L 71.712 38.122616
L 75.096 39.312122
L 78.48 40.480099
L 81.864 41.007983
L 85.248 43.060785
L 88.632 44.548128
L 92.016 45.024029
L 95.4 47.935551
L 98.784 49.044786
L 102.168 51.060827
L 105.552 51.659019
L 108.936 49.422815
L 112.32 54.643601
L 115.704 56.034113
L 119.088 56.731565
L 122.472 57.60921
L 125.856 58.162476
L 129.24 58.548385
L 132.624 54.260095
L 136.008 47.308079
L 139.392 58.772001
L 142.776 59.871253
L 146.16 59.709734
L 149.544 60.409215
L 152.928 59.744898
L 156.312 60.116769
L 159.696 60.846731
L 163.08 60.00273
L 166.464 59.957055
L 169.848 61.220275
L 173.232 61.672917
L 176.616 61.791714
L 180 61.871029
L 183.384 61.991705
L 186.768 61.986518
L 190.152 62.190824
L 193.536 62.398739
L 196.92 62.290954
L 200.304 53.327259
L 203.688 61.380327
L 207.072 62.870389
L 210.456 63.063058
L 213.84 63.179601
L 217.224 63.278038
L 220.608 63.36918
L 223.992 63.498738
L 227.376 63.131787
L 230.76 63.681642
L 234.144 63.62481
L 237.528 63.66079
L 240.912 62.968034
L 244.296 60.933625
L 247.68 64.23717
L 251.064 64.316893
L 254.448 64.398855
L 257.832 64.479081
L 261.216 64.547541
L 264.6 64.370831
L 267.984 64.695709
L 271.368 64.799952
L 274.752 64.892704
L 278.136 64.986033
L 281.52 65.065031
L 284.904 65.090411
L 288.288 65.178253
L 291.672 65.332067
L 295.056 65.397018
L 298.44 65.457917
L 301.824 65.595584
L 305.208 65.668519
L 308.592 65.774027
L 311.976 65.848774
L 315.36 65.924666
L 318.744 65.995037
L 322.128 66.063471
L 325.512 66.13285
L 328.896 66.185691
L 332.28 66.243197
L 335.664 66.289078
L 339.048 66.325976
L 342.432 66.354849
L 345.816 66.373636
" clip-path="url(#p6358aaaaa2)" style="fill: none; stroke: #000000; stroke-opacity: 0.1; stroke-width: 1.5; stroke-linecap: square"/>
   </g>
   <g id="line2d_10">
    <path d="M 10.8 18.290034
L 14.184 39.234212
L 17.568 43.238315
L 20.952 43.07852
L 24.336 46.815841
L 27.72 48.66662
L 31.104 46.898445
L 34.488 51.347209
L 37.872 57.437117
L 41.256 58.124373
L 44.64 62.187763
L 48.024 58.628302
L 51.408 76.597279
L 54.792 80.363516
L 58.176 70.40354
L 61.56 55.289695
L 64.944 74.796476
L 68.328 84.655158
L 71.712 86.37388
L 75.096 81.973928
L 78.48 64.781727
L 81.864 85.523809
L 85.248 80.187996
L 88.632 89.722941
L 92.016 90.421795
L 95.4 86.673652
L 98.784 61.385781
L 102.168 71.066044
L 105.552 81.71923
L 108.936 92.202432
L 112.32 92.129642
L 115.704 92.713685
L 119.088 80.929596
L 122.472 80.443046
L 125.856 78.010627
L 129.24 69.855962
L 132.624 94.869005
L 136.008 97.152688
L 139.392 97.84694
L 142.776 89.073007
L 146.16 76.127548
L 149.544 92.786926
L 152.928 97.172703
L 156.312 78.979303
L 159.696 71.161342
L 163.08 93.685581
L 166.464 85.955232
L 169.848 85.357798
L 173.232 100.921967
L 176.616 95.427216
L 180 94.143594
L 183.384 83.824937
L 186.768 87.540303
L 190.152 93.038074
L 193.536 100.477787
L 196.92 90.976803
L 200.304 90.136125
L 203.688 99.135175
L 207.072 99.810889
L 210.456 99.394689
L 213.84 90.865691
L 217.224 75.929599
L 220.608 100.995337
L 223.992 106.70227
L 227.376 100.682256
L 230.76 107.251043
L 234.144 112.575834
L 237.528 112.109217
L 240.912 106.577281
L 244.296 104.611304
L 247.68 80.652753
L 251.064 109.828852
L 254.448 111.366491
L 257.832 109.255325
L 261.216 111.741241
L 264.6 113.708289
L 267.984 105.707609
L 271.368 112.945196
L 274.752 103.741711
L 278.136 103.702982
L 281.52 109.015861
L 284.904 103.787376
L 288.288 108.813299
L 291.672 103.154879
L 295.056 113.692026
L 298.44 113.805367
L 301.824 115.87621
L 305.208 113.969632
L 308.592 110.372875
L 311.976 116.848604
L 315.36 117.07544
L 318.744 115.58182
L 322.128 116.913235
L 325.512 117.556018
L 328.896 117.685094
L 332.28 117.853106
L 335.664 117.969738
L 339.048 118.1335
L 342.432 118.289886
L 345.816 118.343641
" clip-path="url(#p6358aaaaa2)" style="fill: none; stroke: #000000; stroke-width: 1.5; stroke-linecap: square"/>
   </g>
  </g>
 </g>
 <defs>
  <clipPath id="p6358aaaaa2">
   <rect x="10.8" y="10.8" width="338.4" height="122.4"/>
  </clipPath>
 </defs>
</svg>
