<?xml version="1.0" encoding="utf-8" standalone="no"?>
<!DOCTYPE svg PUBLIC "-//W3C//DTD SVG 1.1//EN"
  "http://www.w3.org/Graphics/SVG/1.1/DTD/svg11.dtd">
<svg xmlns:xlink="http://www.w3.org/1999/xlink" width="360pt" height="144pt" viewBox="0 0 360 144" xmlns="http://www.w3.org/2000/svg" version="1.1">
 <metadata>
  <rdf:RDF xmlns:dc="http://purl.org/dc/elements/1.1/" xmlns:cc="http://creativecommons.org/ns#" xmlns:rdf="http://www.w3.org/1999/02/22-rdf-syntax-ns#">
   <cc:Work>
    <dc:type rdf:resource="http://purl.org/dc/dcmitype/StillImage"/>
    <dc:date>2024-04-02T17:23:23.507780</dc:date>
    <dc:format>image/svg+xml</dc:format>
    <dc:creator>
     <cc:Agent>
      <dc:title>Matplotlib v3.8.3, https://matplotlib.org/</dc:title>
     </cc:Agent>
    </dc:creator>
   </cc:Work>
  </rdf:RDF>
 </metadata>
 <defs>
  <style type="text/css">*{stroke-linejoin: round; stroke-linecap: butt}</style>
 </defs>
 <g id="figure_1">
  <g id="patch_1">
   <path d="M 0 144
L 360 144
L 360 0
L 0 0
z
" style="fill: #ffffff"/>
  </g>
  <g id="axes_1">
   <g id="LineCollection_1">
    <path d="M 10.8 127.636364
L 349.2 127.636364
" clip-path="url(#p89d01cd1fc)" style="fill: none; stroke-dasharray: 5.55,2.4; stroke-dashoffset: 0; stroke: #000000; stroke-width: 1.5"/>
   </g>
   <g id="line2d_1">
    <path d="M 10.8 16.363636
L 14.184 40.465419
L 17.568 42.942385
L 20.952 44.759962
L 24.336 48.05025
L 27.72 54.191399
L 31.104 59.554993
L 34.488 65.24937
L 37.872 68.537768
L 41.256 70.07804
L 44.64 73.221054
L 48.024 73.193078
L 51.408 74.511337
L 54.792 75.754548
L 58.176 75.185337
L 61.56 65.743416
L 64.944 68.989662
L 68.328 82.275737
L 71.712 81.711912
L 75.096 76.839088
L 78.48 82.457487
L 81.864 82.820966
L 85.248 82.132558
L 88.632 84.833894
L 92.016 88.365876
L 95.4 83.851896
L 98.784 72.826624
L 102.168 73.498347
L 105.552 79.604261
L 108.936 89.868728
L 112.32 91.318473
L 115.704 92.887103
L 119.088 91.1832
L 122.472 90.667352
L 125.856 92.120083
L 129.24 71.364998
L 132.624 89.09273
L 136.008 93.907491
L 139.392 92.628516
L 142.776 78.800819
L 146.16 83.386284
L 149.544 98.061275
L 152.928 87.488082
L 156.312 94.542568
L 159.696 96.130227
L 163.08 96.261338
L 166.464 96.795582
L 169.848 88.305367
L 173.232 98.099973
L 176.616 96.08406
L 180 91.9729
L 183.384 86.893124
L 186.768 94.734604
L 190.152 102.748976
L 193.536 101.822726
L 196.92 99.88134
L 200.304 96.503411
L 203.688 101.631177
L 207.072 102.556338
L 210.456 93.748303
L 213.84 100.304495
L 217.224 99.389878
L 220.608 101.834686
L 223.992 81.830722
L 227.376 104.91539
L 230.76 107.998456
L 234.144 106.163442
L 237.528 102.296913
L 240.912 93.188171
L 244.296 95.834913
L 247.68 109.851855
L 251.064 109.819698
L 254.448 109.577171
L 257.832 100.600103
L 261.216 108.031991
L 264.6 111.969726
L 267.984 113.084757
L 271.368 108.461569
L 274.752 109.962847
L 278.136 108.954772
L 281.52 109.853882
L 284.904 105.440457
L 288.288 108.760608
L 291.672 114.285824
L 295.056 109.968779
L 298.44 111.865248
L 301.824 113.68691
L 305.208 115.95442
L 308.592 115.550635
L 311.976 115.944329
L 315.36 116.132693
L 318.744 114.265228
L 322.128 116.483484
L 325.512 116.575055
L 328.896 118.100281
L 332.28 118.680877
L 335.664 118.293389
L 339.048 118.907544
L 342.432 119.223912
L 345.816 119.332591
" clip-path="url(#p89d01cd1fc)" style="fill: none; stroke: #000000; stroke-opacity: 0.1; stroke-width: 1.5; stroke-linecap: square"/>
   </g>
   <g id="line2d_2">
    <path d="M 10.8 22.136333
L 14.184 41.632492
L 17.568 50.325806
L 20.952 58.798614
L 24.336 63.508282
L 27.72 67.467826
L 31.104 71.657341
L 34.488 74.530038
L 37.872 75.975073
L 41.256 75.039553
L 44.64 76.81116
L 48.024 70.538649
L 51.408 81.57789
L 54.792 76.779221
L 58.176 84.167726
L 61.56 88.901203
L 64.944 89.556492
L 68.328 87.227756
L 71.712 85.310973
L 75.096 89.054493
L 78.48 67.24351
L 81.864 62.446354
L 85.248 94.051903
L 88.632 96.516284
L 92.016 98.256682
L 95.4 98.361581
L 98.784 98.306946
L 102.168 99.202551
L 105.552 99.199498
L 108.936 90.649461
L 112.32 96.438396
L 115.704 97.427104
L 119.088 85.118556
L 122.472 101.815222
L 125.856 98.180493
L 129.24 77.258116
L 132.624 86.376155
L 136.008 88.391338
L 139.392 100.330131
L 142.776 104.476271
L 146.16 104.752481
L 149.544 99.648378
L 152.928 97.845495
L 156.312 95.563106
L 159.696 98.095575
L 163.08 95.257538
L 166.464 100.663111
L 169.848 91.002146
L 173.232 90.811512
L 176.616 78.044174
L 180 93.204503
L 183.384 104.053218
L 186.768 105.973911
L 190.152 109.085211
L 193.536 106.673409
L 196.92 100.218103
L 200.304 106.899304
L 203.688 106.746561
L 207.072 95.748553
L 210.456 78.780528
L 213.84 106.587958
L 217.224 110.693682
L 220.608 110.945485
L 223.992 109.480055
L 227.376 110.882774
L 230.76 108.012376
L 234.144 109.105358
L 237.528 111.317115
L 240.912 108.835106
L 244.296 106.533464
L 247.68 86.375068
L 251.064 108.870932
L 254.448 109.834176
L 257.832 108.377239
L 261.216 107.111702
L 264.6 111.489821
L 267.984 111.60382
L 271.368 112.796265
L 274.752 111.775461
L 278.136 111.953835
L 281.52 107.564989
L 284.904 109.792919
L 288.288 112.991087
L 291.672 111.613207
L 295.056 108.405407
L 298.44 113.577545
L 301.824 114.062532
L 305.208 113.893397
L 308.592 114.324462
L 311.976 112.563467
L 315.36 110.710598
L 318.744 112.021048
L 322.128 114.451962
L 325.512 114.481306
L 328.896 115.035019
L 332.28 115.203498
L 335.664 115.323519
L 339.048 115.443539
L 342.432 115.492943
L 345.816 115.587278
" clip-path="url(#p89d01cd1fc)" style="fill: none; stroke: #000000; stroke-opacity: 0.1; stroke-width: 1.5; stroke-linecap: square"/>
   </g>
   <g id="line2d_3">
    <path d="M 10.8 23.304248
L 14.184 43.637858
L 17.568 45.624563
L 20.952 50.267965
L 24.336 56.263691
L 27.72 61.894503
L 31.104 67.046185
L 34.488 69.042971
L 37.872 75.497136
L 41.256 78.894897
L 44.64 80.560624
L 48.024 82.858579
L 51.408 80.657398
L 54.792 79.542352
L 58.176 86.223296
L 61.56 77.866705
L 64.944 77.085111
L 68.328 89.504926
L 71.712 90.691416
L 75.096 90.294237
L 78.48 88.138226
L 81.864 91.679993
L 85.248 92.473223
L 88.632 83.933815
L 92.016 77.25917
L 95.4 94.651295
L 98.784 95.980768
L 102.168 96.970207
L 105.552 97.285771
L 108.936 92.077378
L 112.32 87.483485
L 115.704 94.209043
L 119.088 100.799057
L 122.472 102.248115
L 125.856 100.173285
L 129.24 98.211497
L 132.624 102.904905
L 136.008 94.067681
L 139.392 103.867242
L 142.776 93.653189
L 146.16 104.791861
L 149.544 99.208371
L 152.928 81.115146
L 156.312 101.942936
L 159.696 106.239522
L 163.08 102.853888
L 166.464 104.054037
L 169.848 106.796686
L 173.232 106.203278
L 176.616 82.971902
L 180 104.416794
L 183.384 106.169288
L 186.768 106.156514
L 190.152 102.994077
L 193.536 108.072718
L 196.92 105.775817
L 200.304 108.503388
L 203.688 97.087077
L 207.072 105.109152
L 210.456 106.000254
L 213.84 110.465317
L 217.224 98.972485
L 220.608 80.364061
L 223.992 98.681955
L 227.376 110.642665
L 230.76 112.138705
L 234.144 109.651588
L 237.528 110.993088
L 240.912 108.597835
L 244.296 108.026408
L 247.68 108.280676
L 251.064 109.416282
L 254.448 112.409657
L 257.832 112.861715
L 261.216 110.373016
L 264.6 108.112818
L 267.984 103.231983
L 271.368 111.826494
L 274.752 110.235709
L 278.136 113.880016
L 281.52 109.358762
L 284.904 108.143254
L 288.288 113.009009
L 291.672 113.03412
L 295.056 114.825843
L 298.44 109.438241
L 301.824 111.564575
L 305.208 114.994845
L 308.592 113.60288
L 311.976 115.269214
L 315.36 115.757184
L 318.744 116.238709
L 322.128 116.016328
L 325.512 116.090882
L 328.896 116.752992
L 332.28 117.16535
L 335.664 117.324249
L 339.048 117.549217
L 342.432 117.649388
L 345.816 117.754699
" clip-path="url(#p89d01cd1fc)" style="fill: none; stroke: #000000; stroke-opacity: 0.1; stroke-width: 1.5; stroke-linecap: square"/>
   </g>
   <g id="line2d_4">
    <path d="M 10.8 21.748573
L 14.184 40.9708
L 17.568 42.669086
L 20.952 42.641673
L 24.336 44.290648
L 27.72 46.642538
L 31.104 50.997458
L 34.488 55.891023
L 37.872 60.264752
L 41.256 63.780254
L 44.64 67.978418
L 48.024 70.435071
L 51.408 73.133922
L 54.792 74.610028
L 58.176 75.575165
L 61.56 77.036988
L 64.944 77.897124
L 68.328 75.929938
L 71.712 78.768238
L 75.096 79.634748
L 78.48 80.096461
L 81.864 78.443595
L 85.248 79.510975
L 88.632 84.011175
L 92.016 84.367401
L 95.4 85.646797
L 98.784 86.469032
L 102.168 86.851068
L 105.552 87.580145
L 108.936 83.818531
L 112.32 80.67458
L 115.704 87.732735
L 119.088 90.076919
L 122.472 90.825922
L 125.856 88.24083
L 129.24 92.196777
L 132.624 93.500387
L 136.008 94.50898
L 139.392 93.835986
L 142.776 93.809543
L 146.16 86.266119
L 149.544 92.349188
L 152.928 93.877925
L 156.312 94.079125
L 159.696 93.575962
L 163.08 95.278471
L 166.464 96.319115
L 169.848 96.914322
L 173.232 95.73012
L 176.616 97.272645
L 180 94.237815
L 183.384 87.704541
L 186.768 100.082905
L 190.152 98.810083
L 193.536 94.575837
L 196.92 99.807849
L 200.304 96.786474
L 203.688 97.84139
L 207.072 101.583087
L 210.456 95.645733
L 213.84 100.114597
L 217.224 103.469176
L 220.608 104.032107
L 223.992 103.781181
L 227.376 104.514599
L 230.76 102.272016
L 234.144 103.516347
L 237.528 104.519538
L 240.912 103.861288
L 244.296 101.479673
L 247.68 92.637784
L 251.064 104.502555
L 254.448 107.017151
L 257.832 107.95496
L 261.216 107.699065
L 264.6 107.724466
L 267.984 107.723365
L 271.368 105.559897
L 274.752 108.166017
L 278.136 94.068656
L 281.52 108.38875
L 284.904 109.154393
L 288.288 109.107452
L 291.672 109.636036
L 295.056 109.920034
L 298.44 110.055465
L 301.824 110.141347
L 305.208 110.278958
L 308.592 110.581615
L 311.976 110.375907
L 315.36 110.472219
L 318.744 110.90634
L 322.128 111.058275
L 325.512 111.194248
L 328.896 111.30317
L 332.28 111.632748
L 335.664 111.642918
L 339.048 111.729457
L 342.432 111.851724
L 345.816 111.969502
" clip-path="url(#p89d01cd1fc)" style="fill: none; stroke: #000000; stroke-opacity: 0.1; stroke-width: 1.5; stroke-linecap: square"/>
   </g>
   <g id="line2d_5">
    <path d="M 10.8 23.008665
L 14.184 41.519216
L 17.568 42.605442
L 20.952 42.884985
L 24.336 42.976355
L 27.72 44.093013
L 31.104 45.798401
L 34.488 46.506084
L 37.872 51.436535
L 41.256 52.617494
L 44.64 53.676866
L 48.024 54.423654
L 51.408 56.122342
L 54.792 55.170093
L 58.176 59.302805
L 61.56 61.44119
L 64.944 62.745699
L 68.328 67.194203
L 71.712 70.444478
L 75.096 75.112612
L 78.48 70.785898
L 81.864 72.844873
L 85.248 81.634264
L 88.632 83.045669
L 92.016 85.662038
L 95.4 84.894255
L 98.784 86.629712
L 102.168 85.829478
L 105.552 74.201219
L 108.936 91.237453
L 112.32 91.299436
L 115.704 92.106468
L 119.088 84.589374
L 122.472 90.775165
L 125.856 82.264129
L 129.24 90.751368
L 132.624 88.07533
L 136.008 83.226356
L 139.392 95.925817
L 142.776 76.375048
L 146.16 75.733456
L 149.544 96.104962
L 152.928 97.216725
L 156.312 96.41652
L 159.696 94.563003
L 163.08 95.472278
L 166.464 90.56844
L 169.848 86.194383
L 173.232 94.333061
L 176.616 97.001197
L 180 95.930557
L 183.384 93.427605
L 186.768 97.279746
L 190.152 96.399735
L 193.536 94.70702
L 196.92 97.930013
L 200.304 99.191804
L 203.688 96.95446
L 207.072 98.483832
L 210.456 98.344893
L 213.84 95.097735
L 217.224 97.560952
L 220.608 88.226842
L 223.992 98.865298
L 227.376 100.07286
L 230.76 100.254231
L 234.144 96.217215
L 237.528 97.28019
L 240.912 98.709454
L 244.296 99.471804
L 247.68 98.703079
L 251.064 97.426428
L 254.448 99.134162
L 257.832 97.509592
L 261.216 98.682585
L 264.6 100.410983
L 267.984 89.055525
L 271.368 96.751149
L 274.752 100.123337
L 278.136 100.216614
L 281.52 100.822348
L 284.904 101.09661
L 288.288 100.996893
L 291.672 100.698144
L 295.056 99.795389
L 298.44 101.324696
L 301.824 101.51674
L 305.208 101.441345
L 308.592 101.57186
L 311.976 101.563147
L 315.36 101.508277
L 318.744 101.459156
L 322.128 101.700726
L 325.512 101.804032
L 328.896 101.846439
L 332.28 101.942029
L 335.664 102.017805
L 339.048 102.018436
L 342.432 102.097655
L 345.816 102.127077
" clip-path="url(#p89d01cd1fc)" style="fill: none; stroke: #000000; stroke-opacity: 0.1; stroke-width: 1.5; stroke-linecap: square"/>
   </g>
   <g id="line2d_6">
    <path d="M 10.8 23.130362
L 14.184 37.65059
L 17.568 42.189387
L 20.952 43.415291
L 24.336 45.367207
L 27.72 46.223176
L 31.104 49.362779
L 34.488 50.49928
L 37.872 51.303033
L 41.256 49.772608
L 44.64 52.807268
L 48.024 54.095518
L 51.408 54.981986
L 54.792 53.251772
L 58.176 55.927977
L 61.56 58.212351
L 64.944 59.024464
L 68.328 60.072037
L 71.712 53.287715
L 75.096 64.492923
L 78.48 66.779935
L 81.864 69.853034
L 85.248 73.04956
L 88.632 74.410596
L 92.016 79.403135
L 95.4 79.097063
L 98.784 80.273233
L 102.168 84.385201
L 105.552 82.992218
L 108.936 65.304774
L 112.32 80.59319
L 115.704 88.724008
L 119.088 88.097332
L 122.472 80.852781
L 125.856 81.781891
L 129.24 88.216804
L 132.624 90.771077
L 136.008 90.13104
L 139.392 90.325062
L 142.776 89.703507
L 146.16 89.555169
L 149.544 91.427578
L 152.928 79.880457
L 156.312 88.923436
L 159.696 91.903663
L 163.08 89.249764
L 166.464 83.612458
L 169.848 87.784392
L 173.232 88.052252
L 176.616 87.260781
L 180 92.470095
L 183.384 90.962997
L 186.768 93.266927
L 190.152 91.979542
L 193.536 79.18364
L 196.92 66.525489
L 200.304 93.750017
L 203.688 93.884914
L 207.072 94.34149
L 210.456 94.639208
L 213.84 94.6827
L 217.224 92.749961
L 220.608 95.447374
L 223.992 95.637824
L 227.376 95.391184
L 230.76 96.2217
L 234.144 96.02966
L 237.528 96.551055
L 240.912 94.180697
L 244.296 88.255534
L 247.68 93.797448
L 251.064 95.984547
L 254.448 97.068147
L 257.832 97.216938
L 261.216 96.070423
L 264.6 96.719968
L 267.984 97.414903
L 271.368 97.196328
L 274.752 97.673779
L 278.136 96.673863
L 281.52 97.73154
L 284.904 98.69066
L 288.288 98.055229
L 291.672 96.713305
L 295.056 98.710898
L 298.44 98.914875
L 301.824 99.312528
L 305.208 99.633356
L 308.592 99.750476
L 311.976 98.807973
L 315.36 99.588444
L 318.744 100.067207
L 322.128 99.451856
L 325.512 100.414211
L 328.896 100.436267
L 332.28 100.660988
L 335.664 100.753738
L 339.048 100.810857
L 342.432 100.929439
L 345.816 100.980813
" clip-path="url(#p89d01cd1fc)" style="fill: none; stroke: #000000; stroke-opacity: 0.1; stroke-width: 1.5; stroke-linecap: square"/>
   </g>
   <g id="line2d_7">
    <path d="M 10.8 19.263343
L 14.184 24.470525
L 17.568 42.872882
L 20.952 45.440637
L 24.336 49.113606
L 27.72 55.595735
L 31.104 60.642657
L 34.488 66.216261
L 37.872 68.534884
L 41.256 70.208895
L 44.64 71.300792
L 48.024 70.343737
L 51.408 72.689041
L 54.792 74.1809
L 58.176 75.850135
L 61.56 76.771621
L 64.944 77.58854
L 68.328 78.60921
L 71.712 78.404587
L 75.096 79.828693
L 78.48 80.072577
L 81.864 79.358812
L 85.248 81.051739
L 88.632 81.5369
L 92.016 82.064873
L 95.4 83.734907
L 98.784 85.387391
L 102.168 85.50898
L 105.552 86.452096
L 108.936 85.470011
L 112.32 86.73274
L 115.704 86.867134
L 119.088 85.893422
L 122.472 88.837617
L 125.856 83.944912
L 129.24 87.717968
L 132.624 90.837728
L 136.008 89.510497
L 139.392 88.533366
L 142.776 90.159012
L 146.16 88.56924
L 149.544 90.424504
L 152.928 89.86856
L 156.312 87.027324
L 159.696 84.638933
L 163.08 91.318256
L 166.464 93.220003
L 169.848 93.027523
L 173.232 93.161841
L 176.616 92.470093
L 180 90.180023
L 183.384 93.148068
L 186.768 93.250931
L 190.152 92.095355
L 193.536 92.303246
L 196.92 92.420994
L 200.304 91.975188
L 203.688 94.581806
L 207.072 95.397288
L 210.456 94.7064
L 213.84 91.635928
L 217.224 95.46391
L 220.608 95.068599
L 223.992 95.521435
L 227.376 96.073455
L 230.76 96.419904
L 234.144 94.281044
L 237.528 95.92192
L 240.912 95.875281
L 244.296 93.850102
L 247.68 95.506018
L 251.064 96.281246
L 254.448 95.638719
L 257.832 96.558915
L 261.216 96.978384
L 264.6 97.338726
L 267.984 97.472167
L 271.368 97.747082
L 274.752 97.779542
L 278.136 97.98397
L 281.52 97.479362
L 284.904 97.970259
L 288.288 98.329059
L 291.672 98.561364
L 295.056 98.058008
L 298.44 98.599734
L 301.824 98.332099
L 305.208 98.610634
L 308.592 98.778702
L 311.976 99.247546
L 315.36 99.055946
L 318.744 99.098482
L 322.128 99.428008
L 325.512 99.547947
L 328.896 99.654437
L 332.28 99.680397
L 335.664 99.682599
L 339.048 99.843316
L 342.432 99.932836
L 345.816 99.995836
" clip-path="url(#p89d01cd1fc)" style="fill: none; stroke: #000000; stroke-opacity: 0.1; stroke-width: 1.5; stroke-linecap: square"/>
   </g>
   <g id="line2d_8">
    <path d="M 10.8 17.992484
L 14.184 20.482326
L 17.568 26.812709
L 20.952 34.285901
L 24.336 35.076416
L 27.72 35.580671
L 31.104 36.096786
L 34.488 36.647811
L 37.872 37.359055
L 41.256 38.248895
L 44.64 39.312536
L 48.024 39.723138
L 51.408 41.311752
L 54.792 42.193073
L 58.176 42.655985
L 61.56 43.708529
L 64.944 44.333306
L 68.328 44.828133
L 71.712 47.369336
L 75.096 49.675737
L 78.48 50.514586
L 81.864 54.146302
L 85.248 56.46296
L 88.632 58.466794
L 92.016 60.547196
L 95.4 62.13953
L 98.784 64.429867
L 102.168 60.899695
L 105.552 66.065341
L 108.936 68.132696
L 112.32 69.53241
L 115.704 70.835369
L 119.088 72.087077
L 122.472 73.318643
L 125.856 74.486453
L 129.24 75.674422
L 132.624 75.988405
L 136.008 77.370892
L 139.392 77.948362
L 142.776 78.889287
L 146.16 78.74387
L 149.544 80.375785
L 152.928 81.354031
L 156.312 81.013261
L 159.696 81.87061
L 163.08 81.686308
L 166.464 83.117829
L 169.848 82.322294
L 173.232 83.529619
L 176.616 84.157817
L 180 83.596507
L 183.384 82.876929
L 186.768 85.798731
L 190.152 86.76208
L 193.536 87.179092
L 196.92 86.673142
L 200.304 87.758905
L 203.688 87.586476
L 207.072 86.22025
L 210.456 89.011671
L 213.84 89.808388
L 217.224 89.366605
L 220.608 91.337287
L 223.992 91.23629
L 227.376 90.922602
L 230.76 91.559909
L 234.144 92.550968
L 237.528 91.702861
L 240.912 92.131278
L 244.296 91.656957
L 247.68 91.438106
L 251.064 93.213561
L 254.448 93.665426
L 257.832 92.720687
L 261.216 94.133943
L 264.6 94.303633
L 267.984 93.963479
L 271.368 93.407102
L 274.752 94.498451
L 278.136 93.372237
L 281.52 94.785371
L 284.904 94.936961
L 288.288 93.81525
L 291.672 93.908744
L 295.056 95.419106
L 298.44 95.429247
L 301.824 95.442413
L 305.208 95.892356
L 308.592 95.853957
L 311.976 96.124684
L 315.36 96.112527
L 318.744 96.488182
L 322.128 96.570697
L 325.512 96.450041
L 328.896 96.673238
L 332.28 96.817065
L 335.664 96.837222
L 339.048 96.979785
L 342.432 97.008795
L 345.816 97.062979
" clip-path="url(#p89d01cd1fc)" style="fill: none; stroke: #000000; stroke-opacity: 0.1; stroke-width: 1.5; stroke-linecap: square"/>
   </g>
   <g id="line2d_9">
    <path d="M 10.8 18.575865
L 14.184 22.220203
L 17.568 33.77685
L 20.952 36.954392
L 24.336 40.694335
L 27.72 42.871913
L 31.104 44.440992
L 34.488 46.46838
L 37.872 48.129753
L 41.256 49.294
L 44.64 50.997187
L 48.024 52.007117
L 51.408 53.129552
L 54.792 53.258933
L 58.176 54.213431
L 61.56 55.371432
L 64.944 56.390196
L 68.328 57.692454
L 71.712 58.557875
L 75.096 57.376458
L 78.48 59.568735
L 81.864 54.252406
L 85.248 61.284659
L 88.632 62.523064
L 92.016 63.264845
L 95.4 64.169025
L 98.784 62.628648
L 102.168 59.956777
L 105.552 65.916245
L 108.936 66.837096
L 112.32 68.266127
L 115.704 69.185281
L 119.088 62.731169
L 122.472 69.772813
L 125.856 71.318084
L 129.24 72.356516
L 132.624 73.1139
L 136.008 72.593105
L 139.392 61.272313
L 142.776 74.481043
L 146.16 76.261283
L 149.544 75.416949
L 152.928 75.857907
L 156.312 78.359085
L 159.696 77.912155
L 163.08 79.535393
L 166.464 80.042682
L 169.848 73.892206
L 173.232 75.444911
L 176.616 81.790209
L 180 81.280969
L 183.384 82.603967
L 186.768 82.02592
L 190.152 79.466032
L 193.536 83.836765
L 196.92 85.229192
L 200.304 85.612113
L 203.688 85.813137
L 207.072 86.683601
L 210.456 86.667989
L 213.84 82.015371
L 217.224 84.057542
L 220.608 85.592837
L 223.992 88.01817
L 227.376 87.121071
L 230.76 87.10825
L 234.144 89.243964
L 237.528 88.276778
L 240.912 87.399129
L 244.296 85.318657
L 247.68 76.940793
L 251.064 87.319714
L 254.448 90.727221
L 257.832 91.005494
L 261.216 91.208436
L 264.6 91.179945
L 267.984 91.461607
L 271.368 91.535197
L 274.752 90.258672
L 278.136 91.795189
L 281.52 91.966704
L 284.904 92.069277
L 288.288 91.949116
L 291.672 92.308638
L 295.056 92.438022
L 298.44 92.148713
L 301.824 92.68166
L 305.208 92.826614
L 308.592 92.48184
L 311.976 93.023197
L 315.36 93.079222
L 318.744 93.18467
L 322.128 93.25248
L 325.512 93.370739
L 328.896 93.450875
L 332.28 93.522872
L 335.664 93.564005
L 339.048 93.624874
L 342.432 93.664777
L 345.816 93.689888
" clip-path="url(#p89d01cd1fc)" style="fill: none; stroke: #000000; stroke-opacity: 0.1; stroke-width: 1.5; stroke-linecap: square"/>
   </g>
   <g id="line2d_10">
    <path d="M 10.8 27.912045
L 14.184 42.590636
L 17.568 43.620739
L 20.952 45.026085
L 24.336 48.175457
L 27.72 51.544971
L 31.104 60.511002
L 34.488 63.575001
L 37.872 68.30322
L 41.256 71.404921
L 44.64 74.169969
L 48.024 74.274586
L 51.408 78.163159
L 54.792 79.867945
L 58.176 65.431488
L 61.56 80.384199
L 64.944 84.070455
L 68.328 84.1004
L 71.712 84.077468
L 75.096 83.822751
L 78.48 82.520748
L 81.864 86.736594
L 85.248 79.937627
L 88.632 88.40198
L 92.016 90.139301
L 95.4 86.927216
L 98.784 87.366417
L 102.168 88.230431
L 105.552 91.245796
L 108.936 86.400079
L 112.32 93.228593
L 115.704 80.953033
L 119.088 72.325896
L 122.472 96.324631
L 125.856 97.209752
L 129.24 97.410141
L 132.624 99.631349
L 136.008 97.520647
L 139.392 92.53876
L 142.776 101.308511
L 146.16 99.301811
L 149.544 99.324048
L 152.928 98.818643
L 156.312 100.239676
L 159.696 82.495708
L 163.08 101.227733
L 166.464 100.992205
L 169.848 97.470598
L 173.232 101.572639
L 176.616 102.521
L 180 104.582903
L 183.384 103.938991
L 186.768 96.281713
L 190.152 98.032452
L 193.536 103.800541
L 196.92 100.416092
L 200.304 102.952755
L 203.688 103.614235
L 207.072 87.967444
L 210.456 95.457553
L 213.84 109.505993
L 217.224 108.267306
L 220.608 106.579473
L 223.992 105.804229
L 227.376 104.954262
L 230.76 103.544471
L 234.144 106.533604
L 237.528 102.559965
L 240.912 111.033898
L 244.296 110.197947
L 247.68 95.27919
L 251.064 107.152346
L 254.448 104.694844
L 257.832 113.096581
L 261.216 113.827508
L 264.6 112.658203
L 267.984 114.572051
L 271.368 111.460158
L 274.752 114.705114
L 278.136 116.91884
L 281.52 113.90829
L 284.904 101.746894
L 288.288 109.603735
L 291.672 117.666515
L 295.056 117.977915
L 298.44 117.785114
L 301.824 117.093076
L 305.208 111.495703
L 308.592 113.815492
L 311.976 119.332354
L 315.36 119.86938
L 318.744 119.922471
L 322.128 120.091939
L 325.512 120.428581
L 328.896 120.777898
L 332.28 120.308341
L 335.664 121.147793
L 339.048 121.62023
L 342.432 121.666102
L 345.816 121.844852
" clip-path="url(#p89d01cd1fc)" style="fill: none; stroke: #000000; stroke-width: 1.5; stroke-linecap: square"/>
   </g>
  </g>
 </g>
 <defs>
  <clipPath id="p89d01cd1fc">
   <rect x="10.8" y="10.8" width="338.4" height="122.4"/>
  </clipPath>
 </defs>
</svg>
