<?xml version="1.0" encoding="utf-8" standalone="no"?>
<!DOCTYPE svg PUBLIC "-//W3C//DTD SVG 1.1//EN"
  "http://www.w3.org/Graphics/SVG/1.1/DTD/svg11.dtd">
<svg xmlns:xlink="http://www.w3.org/1999/xlink" width="360pt" height="144pt" viewBox="0 0 360 144" xmlns="http://www.w3.org/2000/svg" version="1.1">
 <metadata>
  <rdf:RDF xmlns:dc="http://purl.org/dc/elements/1.1/" xmlns:cc="http://creativecommons.org/ns#" xmlns:rdf="http://www.w3.org/1999/02/22-rdf-syntax-ns#">
   <cc:Work>
    <dc:type rdf:resource="http://purl.org/dc/dcmitype/StillImage"/>
    <dc:date>2024-04-02T17:23:23.494453</dc:date>
    <dc:format>image/svg+xml</dc:format>
    <dc:creator>
     <cc:Agent>
      <dc:title>Matplotlib v3.8.3, https://matplotlib.org/</dc:title>
     </cc:Agent>
    </dc:creator>
   </cc:Work>
  </rdf:RDF>
 </metadata>
 <defs>
  <style type="text/css">*{stroke-linejoin: round; stroke-linecap: butt}</style>
 </defs>
 <g id="figure_1">
  <g id="patch_1">
   <path d="M 0 144
L 360 144
L 360 0
L 0 0
z
" style="fill: #ffffff"/>
  </g>
  <g id="axes_1">
   <g id="LineCollection_1">
    <path d="M 10.8 107.173757
L 349.2 107.173757
" clip-path="url(#pc7bbd2c804)" style="fill: none; stroke-dasharray: 5.55,2.4; stroke-dashoffset: 0; stroke: #000000; stroke-width: 1.5"/>
   </g>
   <g id="line2d_1">
    <path d="M 10.8 18.853639
L 14.184 33.131009
L 17.568 61.63805
L 20.952 74.800166
L 24.336 79.684204
L 27.72 75.606701
L 31.104 49.784781
L 34.488 63.200368
L 37.872 83.105498
L 41.256 76.982414
L 44.64 62.510472
L 48.024 79.528853
L 51.408 85.926212
L 54.792 71.11291
L 58.176 54.973718
L 61.56 76.268286
L 64.944 63.950326
L 68.328 47.602783
L 71.712 83.469302
L 75.096 93.825549
L 78.48 99.257835
L 81.864 98.150456
L 85.248 99.850091
L 88.632 94.42765
L 92.016 62.88335
L 95.4 61.014785
L 98.784 62.666531
L 102.168 80.206911
L 105.552 89.25142
L 108.936 60.437951
L 112.32 66.990827
L 115.704 53.318218
L 119.088 67.090175
L 122.472 94.240458
L 125.856 100.269911
L 129.24 102.334506
L 132.624 103.612845
L 136.008 87.269937
L 139.392 91.481982
L 142.776 58.459037
L 146.16 60.280974
L 149.544 77.679655
L 152.928 91.23639
L 156.312 91.523092
L 159.696 76.2271
L 163.08 67.520295
L 166.464 71.446396
L 169.848 65.410725
L 173.232 64.599285
L 176.616 71.608448
L 180 63.61783
L 183.384 74.653385
L 186.768 96.436984
L 190.152 93.046019
L 193.536 88.634282
L 196.92 83.840336
L 200.304 81.92936
L 203.688 66.955334
L 207.072 61.081336
L 210.456 88.191574
L 213.84 79.474166
L 217.224 90.73016
L 220.608 86.67344
L 223.992 89.906951
L 227.376 90.266597
L 230.76 81.817495
L 234.144 63.927965
L 237.528 73.682988
L 240.912 92.453916
L 244.296 95.435109
L 247.68 103.073438
L 251.064 86.984509
L 254.448 93.541035
L 257.832 71.342332
L 261.216 75.838128
L 264.6 96.731751
L 267.984 98.794504
L 271.368 89.876774
L 274.752 98.227992
L 278.136 102.269322
L 281.52 102.830759
L 284.904 102.400929
L 288.288 105.53426
L 291.672 99.114286
L 295.056 99.632252
L 298.44 104.041387
L 301.824 103.096122
L 305.208 105.038963
L 308.592 105.318398
L 311.976 111.308629
L 315.36 115.89213
L 318.744 113.796534
L 322.128 116.230334
L 325.512 117.211053
L 328.896 120.187237
L 332.28 119.991272
L 335.664 123.120496
L 339.048 124.337897
L 342.432 125.221559
L 345.816 126.241084
" clip-path="url(#pc7bbd2c804)" style="fill: none; stroke: #000000; stroke-opacity: 0.1; stroke-width: 1.5; stroke-linecap: square"/>
   </g>
   <g id="line2d_2">
    <path d="M 10.8 16.363636
L 14.184 30.253081
L 17.568 57.136491
L 20.952 67.037359
L 24.336 72.828922
L 27.72 63.352846
L 31.104 58.686381
L 34.488 72.152628
L 37.872 58.852129
L 41.256 62.314104
L 44.64 48.754403
L 48.024 59.506341
L 51.408 77.999858
L 54.792 91.256693
L 58.176 91.950566
L 61.56 64.675871
L 64.944 59.685598
L 68.328 84.105445
L 71.712 73.255567
L 75.096 65.375648
L 78.48 58.846499
L 81.864 62.0665
L 85.248 58.267843
L 88.632 79.264184
L 92.016 87.746351
L 95.4 77.835443
L 98.784 55.502969
L 102.168 77.109572
L 105.552 89.413431
L 108.936 93.943711
L 112.32 69.941936
L 115.704 60.27999
L 119.088 50.884046
L 122.472 67.918964
L 125.856 90.621335
L 129.24 94.215545
L 132.624 101.044992
L 136.008 98.435654
L 139.392 90.650154
L 142.776 79.450632
L 146.16 48.596648
L 149.544 80.584246
L 152.928 94.621375
L 156.312 96.174195
L 159.696 99.467518
L 163.08 81.932313
L 166.464 98.521981
L 169.848 93.089779
L 173.232 69.216238
L 176.616 63.176006
L 180 63.786072
L 183.384 69.641942
L 186.768 65.973543
L 190.152 88.209274
L 193.536 95.025975
L 196.92 99.282222
L 200.304 96.572122
L 203.688 81.995537
L 207.072 85.175263
L 210.456 64.851195
L 213.84 76.057507
L 217.224 80.839402
L 220.608 78.249632
L 223.992 57.305927
L 227.376 94.900648
L 230.76 103.415363
L 234.144 91.710569
L 237.528 89.488275
L 240.912 77.86216
L 244.296 84.433302
L 247.68 95.888374
L 251.064 85.435758
L 254.448 70.435908
L 257.832 78.383084
L 261.216 80.859233
L 264.6 101.005075
L 267.984 100.097619
L 271.368 108.474285
L 274.752 105.580529
L 278.136 89.069419
L 281.52 90.413775
L 284.904 98.610504
L 288.288 105.835163
L 291.672 105.632764
L 295.056 90.746829
L 298.44 96.855854
L 301.824 95.567169
L 305.208 82.339572
L 308.592 92.488931
L 311.976 88.636228
L 315.36 109.521448
L 318.744 115.652009
L 322.128 117.273346
L 325.512 119.119977
L 328.896 119.534758
L 332.28 120.827144
L 335.664 122.222112
L 339.048 122.760166
L 342.432 123.507061
L 345.816 124.018092
" clip-path="url(#pc7bbd2c804)" style="fill: none; stroke: #000000; stroke-opacity: 0.1; stroke-width: 1.5; stroke-linecap: square"/>
   </g>
   <g id="line2d_3">
    <path d="M 10.8 22.577123
L 14.184 38.632886
L 17.568 69.163438
L 20.952 53.02235
L 24.336 54.599494
L 27.72 85.679081
L 31.104 68.230748
L 34.488 54.889781
L 37.872 88.12931
L 41.256 94.175549
L 44.64 51.159885
L 48.024 83.534571
L 51.408 84.578123
L 54.792 93.950764
L 58.176 64.809753
L 61.56 56.354887
L 64.944 67.134699
L 68.328 97.757744
L 71.712 97.394069
L 75.096 78.782743
L 78.48 69.764685
L 81.864 59.895934
L 85.248 66.165268
L 88.632 58.798113
L 92.016 52.628734
L 95.4 87.929138
L 98.784 95.170026
L 102.168 90.419175
L 105.552 88.249783
L 108.936 91.250542
L 112.32 88.310033
L 115.704 59.25124
L 119.088 63.615515
L 122.472 53.72214
L 125.856 85.478749
L 129.24 93.828376
L 132.624 94.454211
L 136.008 100.540869
L 139.392 87.416907
L 142.776 66.164963
L 146.16 74.385966
L 149.544 81.886386
L 152.928 59.252076
L 156.312 88.025881
L 159.696 100.108163
L 163.08 90.717374
L 166.464 95.70607
L 169.848 51.901909
L 173.232 73.219505
L 176.616 96.996356
L 180 94.600875
L 183.384 99.218793
L 186.768 100.340392
L 190.152 99.231323
L 193.536 98.619158
L 196.92 66.391374
L 200.304 68.379557
L 203.688 81.125085
L 207.072 96.583689
L 210.456 99.232282
L 213.84 87.076386
L 217.224 82.219761
L 220.608 70.801006
L 223.992 88.581234
L 227.376 80.849422
L 230.76 74.959748
L 234.144 76.615918
L 237.528 76.267436
L 240.912 97.926484
L 244.296 103.972202
L 247.68 90.353861
L 251.064 93.760596
L 254.448 90.029975
L 257.832 94.010894
L 261.216 90.100047
L 264.6 82.967342
L 267.984 82.914069
L 271.368 84.273619
L 274.752 90.578468
L 278.136 79.237269
L 281.52 87.860733
L 284.904 93.883071
L 288.288 87.781778
L 291.672 95.988934
L 295.056 101.843884
L 298.44 85.992592
L 301.824 93.101797
L 305.208 107.2531
L 308.592 110.734192
L 311.976 106.755383
L 315.36 107.925867
L 318.744 117.351287
L 322.128 114.820005
L 325.512 115.881528
L 328.896 117.0552
L 332.28 119.820372
L 335.664 120.58617
L 339.048 121.901969
L 342.432 122.735319
L 345.816 123.681344
" clip-path="url(#pc7bbd2c804)" style="fill: none; stroke: #000000; stroke-opacity: 0.1; stroke-width: 1.5; stroke-linecap: square"/>
   </g>
   <g id="line2d_4">
    <path d="M 10.8 20.522431
L 14.184 49.533053
L 17.568 61.701861
L 20.952 43.5612
L 24.336 73.940688
L 27.72 79.37186
L 31.104 81.188547
L 34.488 72.822106
L 37.872 73.073694
L 41.256 67.51527
L 44.64 53.956896
L 48.024 69.103443
L 51.408 60.678017
L 54.792 59.373833
L 58.176 74.603374
L 61.56 83.846187
L 64.944 53.761306
L 68.328 69.152705
L 71.712 72.119229
L 75.096 71.555459
L 78.48 61.74493
L 81.864 51.66409
L 85.248 83.758464
L 88.632 83.398359
L 92.016 82.457554
L 95.4 91.682917
L 98.784 57.039267
L 102.168 56.840706
L 105.552 83.71742
L 108.936 95.521326
L 112.32 75.801251
L 115.704 73.643572
L 119.088 79.027898
L 122.472 58.792894
L 125.856 78.125919
L 129.24 53.883942
L 132.624 74.548354
L 136.008 81.446192
L 139.392 87.271033
L 142.776 97.303449
L 146.16 100.209789
L 149.544 79.748314
L 152.928 84.113284
L 156.312 59.585694
L 159.696 59.091722
L 163.08 87.765699
L 166.464 93.825531
L 169.848 91.288958
L 173.232 86.533919
L 176.616 74.551924
L 180 69.501658
L 183.384 70.827809
L 186.768 80.959348
L 190.152 72.577002
L 193.536 75.979666
L 196.92 79.290693
L 200.304 65.362361
L 203.688 61.14239
L 207.072 71.185973
L 210.456 91.409844
L 213.84 100.625331
L 217.224 90.237019
L 220.608 99.002229
L 223.992 96.605375
L 227.376 87.50545
L 230.76 76.415021
L 234.144 88.2941
L 237.528 91.870278
L 240.912 71.023753
L 244.296 83.776281
L 247.68 87.804742
L 251.064 83.313147
L 254.448 89.972894
L 257.832 59.036185
L 261.216 82.470688
L 264.6 104.679375
L 267.984 107.996527
L 271.368 108.172329
L 274.752 109.737598
L 278.136 106.181679
L 281.52 107.412578
L 284.904 101.100449
L 288.288 107.110294
L 291.672 108.98344
L 295.056 103.65625
L 298.44 103.398601
L 301.824 109.836763
L 305.208 108.729746
L 308.592 112.586408
L 311.976 110.628687
L 315.36 113.775798
L 318.744 113.09202
L 322.128 115.773259
L 325.512 115.1526
L 328.896 116.028883
L 332.28 117.979198
L 335.664 118.543697
L 339.048 120.050399
L 342.432 121.038591
L 345.816 121.87319
" clip-path="url(#pc7bbd2c804)" style="fill: none; stroke: #000000; stroke-opacity: 0.1; stroke-width: 1.5; stroke-linecap: square"/>
   </g>
   <g id="line2d_5">
    <path d="M 10.8 21.867319
L 14.184 43.509676
L 17.568 59.107073
L 20.952 55.323963
L 24.336 58.935608
L 27.72 59.296119
L 31.104 75.391812
L 34.488 54.653652
L 37.872 51.389884
L 41.256 83.565227
L 44.64 85.580616
L 48.024 85.849413
L 51.408 83.444047
L 54.792 64.744875
L 58.176 62.339659
L 61.56 80.004234
L 64.944 75.299492
L 68.328 64.078907
L 71.712 55.9014
L 75.096 61.870109
L 78.48 59.082402
L 81.864 88.128393
L 85.248 83.167027
L 88.632 86.928156
L 92.016 76.515215
L 95.4 64.244365
L 98.784 73.15796
L 102.168 63.518864
L 105.552 82.326166
L 108.936 59.988621
L 112.32 63.406819
L 115.704 75.543188
L 119.088 90.994997
L 122.472 82.06599
L 125.856 68.716784
L 129.24 63.102323
L 132.624 84.505141
L 136.008 84.79283
L 139.392 66.739065
L 142.776 76.053755
L 146.16 85.810373
L 149.544 56.101895
L 152.928 66.944635
L 156.312 83.47869
L 159.696 92.553938
L 163.08 84.235841
L 166.464 91.603478
L 169.848 81.000408
L 173.232 81.286533
L 176.616 68.362416
L 180 65.007433
L 183.384 92.342172
L 186.768 72.8797
L 190.152 88.017501
L 193.536 90.291604
L 196.92 70.495071
L 200.304 60.771926
L 203.688 79.322378
L 207.072 87.533943
L 210.456 94.641849
L 213.84 82.169604
L 217.224 93.144815
L 220.608 76.021149
L 223.992 78.722666
L 227.376 74.709473
L 230.76 79.877237
L 234.144 89.054738
L 237.528 76.96308
L 240.912 72.630106
L 244.296 88.447433
L 247.68 88.999803
L 251.064 82.353168
L 254.448 75.583883
L 257.832 87.378948
L 261.216 83.219329
L 264.6 100.455436
L 267.984 95.235715
L 271.368 92.857838
L 274.752 84.463946
L 278.136 93.792879
L 281.52 104.613634
L 284.904 89.295986
L 288.288 96.693901
L 291.672 99.411479
L 295.056 104.568172
L 298.44 99.341655
L 301.824 102.154747
L 305.208 108.599757
L 308.592 103.688445
L 311.976 108.693911
L 315.36 103.59561
L 318.744 108.454045
L 322.128 106.525536
L 325.512 111.223063
L 328.896 114.153757
L 332.28 115.875314
L 335.664 118.057353
L 339.048 119.86591
L 342.432 119.512828
L 345.816 121.270151
" clip-path="url(#pc7bbd2c804)" style="fill: none; stroke: #000000; stroke-opacity: 0.1; stroke-width: 1.5; stroke-linecap: square"/>
   </g>
   <g id="line2d_6">
    <path d="M 10.8 25.004306
L 14.184 47.811212
L 17.568 62.31909
L 20.952 56.687529
L 24.336 55.601569
L 27.72 74.375626
L 31.104 76.576863
L 34.488 59.498325
L 37.872 56.663177
L 41.256 55.24062
L 44.64 87.890148
L 48.024 92.484971
L 51.408 84.329491
L 54.792 93.579526
L 58.176 91.524316
L 61.56 49.407948
L 64.944 60.546027
L 68.328 83.845791
L 71.712 89.181193
L 75.096 91.364736
L 78.48 95.160788
L 81.864 81.483176
L 85.248 79.907813
L 88.632 79.510242
L 92.016 70.583124
L 95.4 55.224659
L 98.784 91.320616
L 102.168 92.761789
L 105.552 76.659421
L 108.936 89.803339
L 112.32 75.69274
L 115.704 90.960287
L 119.088 80.844297
L 122.472 66.649618
L 125.856 56.414725
L 129.24 83.294062
L 132.624 96.399282
L 136.008 91.803503
L 139.392 91.194727
L 142.776 95.769667
L 146.16 72.243479
L 149.544 62.869256
L 152.928 76.326667
L 156.312 88.354282
L 159.696 80.39184
L 163.08 89.94565
L 166.464 80.46871
L 169.848 60.382746
L 173.232 60.906123
L 176.616 98.69926
L 180 100.290066
L 183.384 93.815835
L 186.768 102.9106
L 190.152 102.697314
L 193.536 96.94239
L 196.92 86.518773
L 200.304 65.861137
L 203.688 85.152924
L 207.072 102.440228
L 210.456 102.339665
L 213.84 104.488568
L 217.224 96.093536
L 220.608 89.774243
L 223.992 78.72022
L 227.376 85.628781
L 230.76 89.434573
L 234.144 81.613688
L 237.528 89.984927
L 240.912 72.604649
L 244.296 80.700896
L 247.68 95.274845
L 251.064 102.600741
L 254.448 103.904144
L 257.832 99.280993
L 261.216 106.119221
L 264.6 82.865177
L 267.984 82.12162
L 271.368 98.368886
L 274.752 101.595002
L 278.136 99.319301
L 281.52 98.32474
L 284.904 93.295564
L 288.288 94.498802
L 291.672 96.123591
L 295.056 98.300593
L 298.44 110.206869
L 301.824 108.482895
L 305.208 112.545227
L 308.592 112.133488
L 311.976 111.56138
L 315.36 115.109479
L 318.744 115.245039
L 322.128 113.848702
L 325.512 116.686955
L 328.896 118.037554
L 332.28 118.783747
L 335.664 119.984233
L 339.048 120.497167
L 342.432 120.836099
L 345.816 121.139569
" clip-path="url(#pc7bbd2c804)" style="fill: none; stroke: #000000; stroke-opacity: 0.1; stroke-width: 1.5; stroke-linecap: square"/>
   </g>
   <g id="line2d_7">
    <path d="M 10.8 24.988079
L 14.184 41.019957
L 17.568 49.744091
L 20.952 54.107895
L 24.336 59.000876
L 27.72 63.485981
L 31.104 66.223834
L 34.488 61.411074
L 37.872 75.369515
L 41.256 78.538096
L 44.64 76.469878
L 48.024 64.792466
L 51.408 76.568586
L 54.792 87.882898
L 58.176 60.245399
L 61.56 76.253421
L 64.944 92.087426
L 68.328 88.044304
L 71.712 85.660161
L 75.096 93.890623
L 78.48 87.911068
L 81.864 71.073192
L 85.248 66.785196
L 88.632 91.804818
L 92.016 84.636665
L 95.4 91.874699
L 98.784 91.976723
L 102.168 79.918442
L 105.552 60.479274
L 108.936 62.987419
L 112.32 96.22028
L 115.704 98.643965
L 119.088 99.70633
L 122.472 99.804051
L 125.856 100.52634
L 129.24 98.783194
L 132.624 98.776379
L 136.008 95.668012
L 139.392 98.147084
L 142.776 99.268403
L 146.16 88.952988
L 149.544 99.101784
L 152.928 70.964972
L 156.312 72.80005
L 159.696 98.981218
L 163.08 87.944298
L 166.464 94.557515
L 169.848 86.29461
L 173.232 81.848554
L 176.616 91.303921
L 180 87.761223
L 183.384 90.137599
L 186.768 78.864855
L 190.152 89.954149
L 193.536 99.270724
L 196.92 91.443894
L 200.304 67.81419
L 203.688 90.916534
L 207.072 103.330645
L 210.456 106.385692
L 213.84 102.526066
L 217.224 102.263444
L 220.608 101.921623
L 223.992 100.620852
L 227.376 104.086424
L 230.76 103.067115
L 234.144 101.062712
L 237.528 95.864964
L 240.912 83.696027
L 244.296 79.585203
L 247.68 106.85509
L 251.064 106.980683
L 254.448 105.441234
L 257.832 105.777077
L 261.216 104.726381
L 264.6 106.505319
L 267.984 108.938561
L 271.368 105.119854
L 274.752 105.932713
L 278.136 108.652477
L 281.52 99.089339
L 284.904 96.983405
L 288.288 102.908387
L 291.672 107.552707
L 295.056 102.09316
L 298.44 100.516196
L 301.824 104.402956
L 305.208 105.584809
L 308.592 109.881395
L 311.976 110.234847
L 315.36 112.115415
L 318.744 110.183785
L 322.128 112.410513
L 325.512 108.900666
L 328.896 111.955022
L 332.28 111.929464
L 335.664 114.034661
L 339.048 114.208618
L 342.432 114.356871
L 345.816 115.458716
" clip-path="url(#pc7bbd2c804)" style="fill: none; stroke: #000000; stroke-opacity: 0.1; stroke-width: 1.5; stroke-linecap: square"/>
   </g>
   <g id="line2d_8">
    <path d="M 10.8 27.876553
L 14.184 52.233978
L 17.568 59.977514
L 20.952 55.741759
L 24.336 60.053783
L 27.72 67.627886
L 31.104 75.39284
L 34.488 73.620424
L 37.872 63.49747
L 41.256 52.570785
L 44.64 83.401966
L 48.024 86.193647
L 51.408 87.852786
L 54.792 61.351191
L 58.176 79.079706
L 61.56 87.417878
L 64.944 85.021318
L 68.328 79.999296
L 71.712 80.223887
L 75.096 79.141666
L 78.48 79.222389
L 81.864 60.994228
L 85.248 69.121019
L 88.632 85.007616
L 92.016 89.628243
L 95.4 90.685726
L 98.784 79.421534
L 102.168 64.936232
L 105.552 83.401839
L 108.936 83.369323
L 112.32 90.676243
L 115.704 83.618457
L 119.088 84.852883
L 122.472 81.224012
L 125.856 69.133738
L 129.24 71.059411
L 132.624 79.009088
L 136.008 79.197686
L 139.392 85.173589
L 142.776 60.19561
L 146.16 69.205603
L 149.544 94.49758
L 152.928 99.648733
L 156.312 98.207002
L 159.696 93.738081
L 163.08 99.427783
L 166.464 98.477204
L 169.848 83.777218
L 173.232 86.64488
L 176.616 61.971952
L 180 77.575712
L 183.384 99.671562
L 186.768 99.061832
L 190.152 98.380668
L 193.536 99.097691
L 196.92 80.584339
L 200.304 80.018218
L 203.688 97.58462
L 207.072 98.568282
L 210.456 96.563336
L 213.84 98.617591
L 217.224 98.518795
L 220.608 86.312507
L 223.992 81.102063
L 227.376 63.694033
L 230.76 92.527968
L 234.144 104.903507
L 237.528 104.868832
L 240.912 101.276662
L 244.296 102.535035
L 247.68 102.377067
L 251.064 98.200206
L 254.448 103.977947
L 257.832 100.695548
L 261.216 102.522475
L 264.6 103.729963
L 267.984 90.214787
L 271.368 76.012291
L 274.752 101.08043
L 278.136 105.537425
L 281.52 103.837846
L 284.904 107.197683
L 288.288 107.88332
L 291.672 107.081761
L 295.056 104.418038
L 298.44 107.371065
L 301.824 106.509883
L 305.208 107.275427
L 308.592 107.178786
L 311.976 105.315426
L 315.36 107.233106
L 318.744 107.373164
L 322.128 109.792811
L 325.512 109.13707
L 328.896 110.243583
L 332.28 111.932527
L 335.664 111.639713
L 339.048 111.382037
L 342.432 111.809757
L 345.816 113.051429
" clip-path="url(#pc7bbd2c804)" style="fill: none; stroke: #000000; stroke-opacity: 0.1; stroke-width: 1.5; stroke-linecap: square"/>
   </g>
   <g id="line2d_9">
    <path d="M 10.8 24.733088
L 14.184 47.285713
L 17.568 53.558442
L 20.952 63.057272
L 24.336 67.136903
L 27.72 68.535382
L 31.104 55.056962
L 34.488 70.518809
L 37.872 73.879705
L 41.256 82.785529
L 44.64 81.228462
L 48.024 67.387264
L 51.408 64.204876
L 54.792 79.551926
L 58.176 89.549721
L 61.56 89.228004
L 64.944 73.729138
L 68.328 62.463145
L 71.712 62.860424
L 75.096 89.238159
L 78.48 88.158513
L 81.864 86.242125
L 85.248 90.516373
L 88.632 81.47063
L 92.016 92.426105
L 95.4 73.946788
L 98.784 61.423595
L 102.168 86.659244
L 105.552 85.582597
L 108.936 92.746882
L 112.32 77.516273
L 115.704 74.302135
L 119.088 61.832411
L 122.472 66.065102
L 125.856 79.476765
L 129.24 83.061743
L 132.624 86.265116
L 136.008 90.927998
L 139.392 93.707307
L 142.776 93.833482
L 146.16 90.583123
L 149.544 82.740675
L 152.928 82.729092
L 156.312 70.366688
L 159.696 67.132324
L 163.08 84.477166
L 166.464 97.563394
L 169.848 86.458697
L 173.232 81.030411
L 176.616 93.345502
L 180 79.220144
L 183.384 80.544116
L 186.768 81.510098
L 190.152 92.586113
L 193.536 79.318254
L 196.92 71.699845
L 200.304 87.768876
L 203.688 81.737151
L 207.072 96.5874
L 210.456 98.902545
L 213.84 97.02627
L 217.224 94.278285
L 220.608 96.213918
L 223.992 84.305364
L 227.376 78.175684
L 230.76 86.958293
L 234.144 85.489443
L 237.528 89.183083
L 240.912 83.516526
L 244.296 70.738569
L 247.68 99.1091
L 251.064 100.158237
L 254.448 100.99399
L 257.832 104.194311
L 261.216 99.860029
L 264.6 102.17558
L 267.984 100.369447
L 271.368 102.938034
L 274.752 103.866084
L 278.136 99.52842
L 281.52 101.541179
L 284.904 103.025392
L 288.288 103.905511
L 291.672 104.563806
L 295.056 104.139161
L 298.44 103.07423
L 301.824 103.405803
L 305.208 104.909955
L 308.592 101.580412
L 311.976 105.457812
L 315.36 109.233198
L 318.744 107.026576
L 322.128 104.98729
L 325.512 106.304505
L 328.896 109.580565
L 332.28 111.363768
L 335.664 111.418115
L 339.048 111.590877
L 342.432 112.408
L 345.816 113.855577
" clip-path="url(#pc7bbd2c804)" style="fill: none; stroke: #000000; stroke-opacity: 0.1; stroke-width: 1.5; stroke-linecap: square"/>
   </g>
   <g id="line2d_10">
    <path d="M 10.8 22.181813
L 14.184 43.941613
L 17.568 67.497423
L 20.952 73.271888
L 24.336 55.854224
L 27.72 63.847311
L 31.104 80.667523
L 34.488 48.25226
L 37.872 58.120876
L 41.256 88.890936
L 44.64 91.555004
L 48.024 84.331726
L 51.408 66.005531
L 54.792 56.448949
L 58.176 74.827671
L 61.56 98.28003
L 64.944 86.844268
L 68.328 65.887175
L 71.712 55.894836
L 75.096 66.816361
L 78.48 67.252199
L 81.864 78.962344
L 85.248 63.160568
L 88.632 62.773619
L 92.016 82.179183
L 95.4 83.311892
L 98.784 47.719128
L 102.168 69.557485
L 105.552 76.422265
L 108.936 77.888728
L 112.32 77.809731
L 115.704 77.871072
L 119.088 87.954289
L 122.472 80.597935
L 125.856 78.570495
L 129.24 71.206858
L 132.624 50.228002
L 136.008 90.948334
L 139.392 94.5459
L 142.776 94.944094
L 146.16 95.645365
L 149.544 98.322525
L 152.928 96.803325
L 156.312 84.172695
L 159.696 63.51496
L 163.08 58.071487
L 166.464 76.838606
L 169.848 75.412846
L 173.232 82.270406
L 176.616 100.584889
L 180 101.488072
L 183.384 69.016795
L 186.768 73.051215
L 190.152 74.096779
L 193.536 84.681466
L 196.92 76.209772
L 200.304 60.789799
L 203.688 78.866362
L 207.072 97.043061
L 210.456 92.239077
L 213.84 97.222827
L 217.224 77.927991
L 220.608 62.581948
L 223.992 84.887517
L 227.376 81.895077
L 230.76 94.266359
L 234.144 86.48334
L 237.528 80.452077
L 240.912 82.286243
L 244.296 103.386467
L 247.68 89.804767
L 251.064 60.84021
L 254.448 81.556134
L 257.832 103.824872
L 261.216 102.531197
L 264.6 108.192695
L 267.984 103.194784
L 271.368 109.773816
L 274.752 104.071988
L 278.136 102.125403
L 281.52 101.284258
L 284.904 90.939785
L 288.288 100.058075
L 291.672 111.683429
L 295.056 98.556372
L 298.44 107.655079
L 301.824 111.461183
L 305.208 115.67849
L 308.592 114.301201
L 311.976 114.560011
L 315.36 114.199063
L 318.744 116.02563
L 322.128 121.405526
L 325.512 108.506755
L 328.896 117.496927
L 332.28 123.649869
L 335.664 124.920518
L 339.048 125.821923
L 342.432 127.008948
L 345.816 127.636364
" clip-path="url(#pc7bbd2c804)" style="fill: none; stroke: #000000; stroke-width: 1.5; stroke-linecap: square"/>
   </g>
  </g>
 </g>
 <defs>
  <clipPath id="pc7bbd2c804">
   <rect x="10.8" y="10.8" width="338.4" height="122.4"/>
  </clipPath>
 </defs>
</svg>
