<?xml version="1.0" encoding="utf-8" standalone="no"?>
<!DOCTYPE svg PUBLIC "-//W3C//DTD SVG 1.1//EN"
  "http://www.w3.org/Graphics/SVG/1.1/DTD/svg11.dtd">
<svg xmlns:xlink="http://www.w3.org/1999/xlink" width="360pt" height="144pt" viewBox="0 0 360 144" xmlns="http://www.w3.org/2000/svg" version="1.1">
 <metadata>
  <rdf:RDF xmlns:dc="http://purl.org/dc/elements/1.1/" xmlns:cc="http://creativecommons.org/ns#" xmlns:rdf="http://www.w3.org/1999/02/22-rdf-syntax-ns#">
   <cc:Work>
    <dc:type rdf:resource="http://purl.org/dc/dcmitype/StillImage"/>
    <dc:date>2024-04-02T17:23:23.574525</dc:date>
    <dc:format>image/svg+xml</dc:format>
    <dc:creator>
     <cc:Agent>
      <dc:title>Matplotlib v3.8.3, https://matplotlib.org/</dc:title>
     </cc:Agent>
    </dc:creator>
   </cc:Work>
  </rdf:RDF>
 </metadata>
 <defs>
  <style type="text/css">*{stroke-linejoin: round; stroke-linecap: butt}</style>
 </defs>
 <g id="figure_1">
  <g id="patch_1">
   <path d="M 0 144
L 360 144
L 360 0
L 0 0
z
" style="fill: #ffffff"/>
  </g>
  <g id="axes_1">
   <g id="LineCollection_1">
    <path d="M 10.8 127.636364
L 349.2 127.636364
" clip-path="url(#pd4c822534d)" style="fill: none; stroke-dasharray: 5.55,2.4; stroke-dashoffset: 0; stroke: #000000; stroke-width: 1.5"/>
   </g>
   <g id="line2d_1">
    <path d="M 10.8 27.715192
L 14.184 47.227942
L 17.568 55.107605
L 20.952 55.791982
L 24.336 53.132228
L 27.72 59.512841
L 31.104 60.551494
L 34.488 60.38055
L 37.872 58.715184
L 41.256 59.471896
L 44.64 61.258312
L 48.024 62.795555
L 51.408 62.590185
L 54.792 63.538968
L 58.176 62.865179
L 61.56 62.806682
L 64.944 64.466275
L 68.328 63.593135
L 71.712 66.106391
L 75.096 65.280555
L 78.48 66.074428
L 81.864 67.760486
L 85.248 66.229099
L 88.632 67.915718
L 92.016 68.93295
L 95.4 67.038945
L 98.784 69.308742
L 102.168 68.064881
L 105.552 68.81212
L 108.936 70.231538
L 112.32 70.054517
L 115.704 70.145827
L 119.088 72.288374
L 122.472 72.796566
L 125.856 69.909367
L 129.24 73.54342
L 132.624 72.378084
L 136.008 72.928248
L 139.392 71.443608
L 142.776 73.649745
L 146.16 74.336653
L 149.544 72.806418
L 152.928 74.095829
L 156.312 75.060428
L 159.696 75.522244
L 163.08 74.749092
L 166.464 74.758879
L 169.848 76.85354
L 173.232 77.09899
L 176.616 75.803843
L 180 76.304067
L 183.384 77.410592
L 186.768 77.870492
L 190.152 76.066072
L 193.536 78.815158
L 196.92 80.175619
L 200.304 79.104619
L 203.688 78.375358
L 207.072 79.743746
L 210.456 78.917388
L 213.84 80.550793
L 217.224 79.690172
L 220.608 80.728055
L 223.992 79.589994
L 227.376 81.5442
L 230.76 79.778042
L 234.144 82.999621
L 237.528 80.848639
L 240.912 82.407234
L 244.296 83.590253
L 247.68 83.708343
L 251.064 83.635171
L 254.448 82.275626
L 257.832 84.24775
L 261.216 84.047682
L 264.6 84.759861
L 267.984 85.273009
L 271.368 85.838375
L 274.752 85.903057
L 278.136 86.192649
L 281.52 86.202183
L 284.904 86.939408
L 288.288 86.639591
L 291.672 87.123935
L 295.056 87.120551
L 298.44 88.015863
L 301.824 88.396034
L 305.208 88.634015
L 308.592 89.002569
L 311.976 89.575439
L 315.36 89.965919
L 318.744 89.902361
L 322.128 90.329594
L 325.512 90.973681
L 328.896 91.147229
L 332.28 91.674288
L 335.664 92.149921
L 339.048 92.444821
L 342.432 92.962233
L 345.816 93.254683
" clip-path="url(#pd4c822534d)" style="fill: none; stroke: #000000; stroke-opacity: 0.1; stroke-width: 1.5; stroke-linecap: square"/>
   </g>
   <g id="line2d_2">
    <path d="M 10.8 26.577869
L 14.184 50.023682
L 17.568 53.33774
L 20.952 56.180634
L 24.336 57.437489
L 27.72 57.199142
L 31.104 58.313314
L 34.488 59.819072
L 37.872 57.91563
L 41.256 59.870211
L 44.64 59.871753
L 48.024 62.294009
L 51.408 59.983388
L 54.792 63.255489
L 58.176 62.796956
L 61.56 62.101207
L 64.944 63.840056
L 68.328 64.087698
L 71.712 65.076662
L 75.096 64.384381
L 78.48 63.181563
L 81.864 65.303624
L 85.248 66.469904
L 88.632 65.968991
L 92.016 68.203338
L 95.4 67.853594
L 98.784 66.635043
L 102.168 69.434845
L 105.552 67.865148
L 108.936 69.266863
L 112.32 69.582104
L 115.704 70.795345
L 119.088 69.992998
L 122.472 70.469108
L 125.856 70.479143
L 129.24 72.29245
L 132.624 70.629457
L 136.008 73.082031
L 139.392 71.003655
L 142.776 71.382032
L 146.16 72.900266
L 149.544 73.925991
L 152.928 73.209879
L 156.312 74.522213
L 159.696 74.5073
L 163.08 74.84492
L 166.464 74.591959
L 169.848 73.725153
L 173.232 76.121702
L 176.616 74.763794
L 180 76.52746
L 183.384 76.792142
L 186.768 78.071139
L 190.152 78.143431
L 193.536 75.980522
L 196.92 76.506334
L 200.304 79.754553
L 203.688 78.533504
L 207.072 79.142871
L 210.456 79.283217
L 213.84 79.09738
L 217.224 79.880037
L 220.608 80.705514
L 223.992 79.285259
L 227.376 80.853132
L 230.76 81.912578
L 234.144 81.658592
L 237.528 81.822985
L 240.912 82.617655
L 244.296 81.519288
L 247.68 83.528434
L 251.064 83.238396
L 254.448 82.274664
L 257.832 83.693366
L 261.216 84.066935
L 264.6 84.438411
L 267.984 85.406833
L 271.368 84.953048
L 274.752 86.073355
L 278.136 85.456682
L 281.52 86.011922
L 284.904 86.744022
L 288.288 86.355363
L 291.672 87.258792
L 295.056 87.042947
L 298.44 88.260516
L 301.824 88.706616
L 305.208 88.587297
L 308.592 88.86267
L 311.976 88.627467
L 315.36 89.780706
L 318.744 90.111611
L 322.128 90.145531
L 325.512 90.672221
L 328.896 91.104415
L 332.28 91.285614
L 335.664 91.814537
L 339.048 92.237122
L 342.432 92.684397
L 345.816 93.015204
" clip-path="url(#pd4c822534d)" style="fill: none; stroke: #000000; stroke-opacity: 0.1; stroke-width: 1.5; stroke-linecap: square"/>
   </g>
   <g id="line2d_3">
    <path d="M 10.8 26.663544
L 14.184 49.677054
L 17.568 53.627534
L 20.952 56.549177
L 24.336 53.389917
L 27.72 57.952383
L 31.104 60.47858
L 34.488 61.531479
L 37.872 58.645686
L 41.256 61.949185
L 44.64 59.258885
L 48.024 61.256743
L 51.408 63.141394
L 54.792 62.725801
L 58.176 64.51877
L 61.56 64.043279
L 64.944 65.532276
L 68.328 66.704949
L 71.712 67.189264
L 75.096 65.204216
L 78.48 65.888161
L 81.864 67.518976
L 85.248 68.677978
L 88.632 68.41152
L 92.016 66.467355
L 95.4 69.766578
L 98.784 66.944005
L 102.168 68.422056
L 105.552 69.77588
L 108.936 71.287684
L 112.32 70.884468
L 115.704 71.864887
L 119.088 70.920809
L 122.472 69.752921
L 125.856 72.635262
L 129.24 73.149469
L 132.624 72.578506
L 136.008 74.671463
L 139.392 74.288706
L 142.776 72.287869
L 146.16 73.931293
L 149.544 74.184929
L 152.928 74.767696
L 156.312 75.397158
L 159.696 76.308745
L 163.08 76.777167
L 166.464 75.985692
L 169.848 77.302926
L 173.232 76.415072
L 176.616 76.926272
L 180 76.280728
L 183.384 77.777611
L 186.768 78.22208
L 190.152 77.617739
L 193.536 73.554902
L 196.92 81.779936
L 200.304 79.892956
L 203.688 78.11314
L 207.072 80.372056
L 210.456 80.792145
L 213.84 80.022897
L 217.224 80.455852
L 220.608 80.419769
L 223.992 81.777073
L 227.376 82.474679
L 230.76 81.691137
L 234.144 81.739785
L 237.528 82.539025
L 240.912 82.6295
L 244.296 83.021215
L 247.68 83.422629
L 251.064 84.414525
L 254.448 84.182126
L 257.832 84.038656
L 261.216 84.717847
L 264.6 85.667155
L 267.984 85.655848
L 271.368 85.727476
L 274.752 85.54814
L 278.136 85.74766
L 281.52 87.308395
L 284.904 86.636238
L 288.288 87.746322
L 291.672 88.228309
L 295.056 88.548463
L 298.44 88.261627
L 301.824 88.746322
L 305.208 89.115939
L 308.592 89.895407
L 311.976 90.324656
L 315.36 90.187075
L 318.744 90.83652
L 322.128 90.751962
L 325.512 91.70766
L 328.896 92.070896
L 332.28 92.211423
L 335.664 92.746262
L 339.048 93.269372
L 342.432 93.682009
L 345.816 93.990715
" clip-path="url(#pd4c822534d)" style="fill: none; stroke: #000000; stroke-opacity: 0.1; stroke-width: 1.5; stroke-linecap: square"/>
   </g>
   <g id="line2d_4">
    <path d="M 10.8 16.363636
L 14.184 46.270541
L 17.568 50.38876
L 20.952 53.754281
L 24.336 53.536506
L 27.72 52.784158
L 31.104 54.332449
L 34.488 54.164439
L 37.872 55.343364
L 41.256 54.612847
L 44.64 55.332187
L 48.024 56.298942
L 51.408 57.89156
L 54.792 59.613507
L 58.176 56.260032
L 61.56 61.531098
L 64.944 60.176654
L 68.328 59.155954
L 71.712 61.982128
L 75.096 60.129448
L 78.48 61.632463
L 81.864 63.868597
L 85.248 63.985371
L 88.632 63.802933
L 92.016 63.307953
L 95.4 66.568576
L 98.784 64.855919
L 102.168 62.262324
L 105.552 68.916537
L 108.936 68.517278
L 112.32 68.312185
L 115.704 68.28249
L 119.088 68.245001
L 122.472 68.848227
L 125.856 67.125612
L 129.24 70.472646
L 132.624 71.110836
L 136.008 69.901
L 139.392 69.658886
L 142.776 72.435752
L 146.16 72.812953
L 149.544 70.73272
L 152.928 75.157366
L 156.312 72.245112
L 159.696 73.502354
L 163.08 74.62904
L 166.464 73.418575
L 169.848 75.238101
L 173.232 74.18058
L 176.616 74.334337
L 180 75.6284
L 183.384 75.384417
L 186.768 76.623153
L 190.152 77.52216
L 193.536 77.08552
L 196.92 78.329116
L 200.304 76.534226
L 203.688 78.131637
L 207.072 77.972522
L 210.456 78.677571
L 213.84 80.061148
L 217.224 77.934074
L 220.608 80.199077
L 223.992 79.018444
L 227.376 81.352491
L 230.76 79.960491
L 234.144 79.947043
L 237.528 80.836931
L 240.912 81.972317
L 244.296 82.007017
L 247.68 83.368212
L 251.064 82.002049
L 254.448 82.513237
L 257.832 83.54288
L 261.216 84.128632
L 264.6 84.966996
L 267.984 83.555484
L 271.368 83.856759
L 274.752 85.794882
L 278.136 85.581576
L 281.52 85.599812
L 284.904 86.177127
L 288.288 87.840161
L 291.672 86.487585
L 295.056 87.918033
L 298.44 88.343314
L 301.824 87.965353
L 305.208 88.668945
L 308.592 89.038316
L 311.976 89.520478
L 315.36 90.068261
L 318.744 90.875254
L 322.128 91.235893
L 325.512 91.55413
L 328.896 92.168456
L 332.28 92.486197
L 335.664 93.028737
L 339.048 93.309041
L 342.432 93.867983
L 345.816 94.331513
" clip-path="url(#pd4c822534d)" style="fill: none; stroke: #000000; stroke-opacity: 0.1; stroke-width: 1.5; stroke-linecap: square"/>
   </g>
   <g id="line2d_5">
    <path d="M 10.8 21.036856
L 14.184 47.916007
L 17.568 50.872353
L 20.952 53.015535
L 24.336 50.19523
L 27.72 54.185895
L 31.104 56.66403
L 34.488 53.898347
L 37.872 57.567432
L 41.256 58.349262
L 44.64 55.1056
L 48.024 58.782842
L 51.408 57.280376
L 54.792 58.464928
L 58.176 62.35193
L 61.56 62.899277
L 64.944 59.979624
L 68.328 62.063424
L 71.712 62.954685
L 75.096 62.800813
L 78.48 64.344253
L 81.864 63.630815
L 85.248 64.515687
L 88.632 66.515793
L 92.016 64.989593
L 95.4 67.422163
L 98.784 63.668666
L 102.168 66.293696
L 105.552 71.031778
L 108.936 68.395284
L 112.32 69.863096
L 115.704 69.44344
L 119.088 68.638638
L 122.472 67.937078
L 125.856 71.110065
L 129.24 71.398917
L 132.624 71.078036
L 136.008 70.514481
L 139.392 71.687203
L 142.776 74.347863
L 146.16 70.910343
L 149.544 74.447855
L 152.928 74.019386
L 156.312 73.921117
L 159.696 72.636633
L 163.08 75.868768
L 166.464 74.451486
L 169.848 76.556534
L 173.232 76.209719
L 176.616 75.568942
L 180 76.515942
L 183.384 77.361617
L 186.768 75.157598
L 190.152 77.440346
L 193.536 79.966512
L 196.92 77.534194
L 200.304 75.969267
L 203.688 77.914461
L 207.072 79.754562
L 210.456 78.797852
L 213.84 79.525789
L 217.224 78.722176
L 220.608 82.094916
L 223.992 81.061807
L 227.376 80.087299
L 230.76 81.031297
L 234.144 82.701273
L 237.528 82.18522
L 240.912 82.430017
L 244.296 83.094144
L 247.68 83.050595
L 251.064 83.915557
L 254.448 83.377943
L 257.832 83.935437
L 261.216 84.483422
L 264.6 86.795835
L 267.984 85.951614
L 271.368 85.380794
L 274.752 86.341511
L 278.136 87.731337
L 281.52 87.01773
L 284.904 87.307282
L 288.288 88.31592
L 291.672 88.35922
L 295.056 87.626792
L 298.44 90.121742
L 301.824 89.612662
L 305.208 90.405729
L 308.592 90.695351
L 311.976 90.623893
L 315.36 91.21688
L 318.744 92.236945
L 322.128 92.307728
L 325.512 92.917991
L 328.896 93.346314
L 332.28 93.979271
L 335.664 94.453252
L 339.048 94.984929
L 342.432 95.382708
L 345.816 95.876762
" clip-path="url(#pd4c822534d)" style="fill: none; stroke: #000000; stroke-opacity: 0.1; stroke-width: 1.5; stroke-linecap: square"/>
   </g>
   <g id="line2d_6">
    <path d="M 10.8 19.962914
L 14.184 45.266859
L 17.568 52.170578
L 20.952 53.064504
L 24.336 53.077863
L 27.72 54.89561
L 31.104 56.578554
L 34.488 56.426414
L 37.872 55.860563
L 41.256 54.676502
L 44.64 58.598282
L 48.024 59.402317
L 51.408 59.841038
L 54.792 58.149614
L 58.176 60.363739
L 61.56 59.917874
L 64.944 60.514748
L 68.328 63.037227
L 71.712 62.5949
L 75.096 62.73416
L 78.48 65.324126
L 81.864 64.053626
L 85.248 63.609896
L 88.632 66.170456
L 92.016 63.231297
L 95.4 65.824129
L 98.784 67.209723
L 102.168 65.310981
L 105.552 67.358807
L 108.936 67.635084
L 112.32 66.413392
L 115.704 69.292174
L 119.088 69.866706
L 122.472 68.822155
L 125.856 70.365376
L 129.24 68.614437
L 132.624 70.947604
L 136.008 69.811973
L 139.392 70.190149
L 142.776 70.240645
L 146.16 72.349778
L 149.544 71.825327
L 152.928 71.673577
L 156.312 72.648019
L 159.696 74.568783
L 163.08 73.907897
L 166.464 74.916417
L 169.848 73.866133
L 173.232 75.167587
L 176.616 73.65595
L 180 75.941662
L 183.384 75.390016
L 186.768 75.35007
L 190.152 76.526132
L 193.536 76.99164
L 196.92 77.054932
L 200.304 75.201898
L 203.688 77.307989
L 207.072 74.566806
L 210.456 78.888173
L 213.84 77.248171
L 217.224 78.584988
L 220.608 79.16487
L 223.992 78.45561
L 227.376 79.821793
L 230.76 79.393846
L 234.144 80.669105
L 237.528 79.194101
L 240.912 80.952993
L 244.296 80.698623
L 247.68 80.985947
L 251.064 81.718644
L 254.448 81.682923
L 257.832 82.712774
L 261.216 83.381205
L 264.6 82.48157
L 267.984 82.227745
L 271.368 82.554426
L 274.752 84.044112
L 278.136 83.478036
L 281.52 83.512392
L 284.904 84.499073
L 288.288 85.032746
L 291.672 84.927272
L 295.056 86.093164
L 298.44 85.90964
L 301.824 86.42299
L 305.208 86.739998
L 308.592 87.0157
L 311.976 87.358748
L 315.36 88.078902
L 318.744 87.991818
L 322.128 88.606699
L 325.512 89.158818
L 328.896 89.420504
L 332.28 90.023485
L 335.664 90.28734
L 339.048 90.576108
L 342.432 91.000794
L 345.816 91.499911
" clip-path="url(#pd4c822534d)" style="fill: none; stroke: #000000; stroke-opacity: 0.1; stroke-width: 1.5; stroke-linecap: square"/>
   </g>
   <g id="line2d_7">
    <path d="M 10.8 26.980561
L 14.184 49.875258
L 17.568 52.469441
L 20.952 57.042268
L 24.336 55.530931
L 27.72 57.855838
L 31.104 59.913414
L 34.488 58.261155
L 37.872 61.50498
L 41.256 61.0053
L 44.64 61.742417
L 48.024 61.61182
L 51.408 62.844043
L 54.792 62.293109
L 58.176 64.22986
L 61.56 63.664543
L 64.944 65.08584
L 68.328 64.929257
L 71.712 59.898666
L 75.096 67.740395
L 78.48 67.304455
L 81.864 67.56241
L 85.248 66.416146
L 88.632 66.433338
L 92.016 68.478913
L 95.4 67.438598
L 98.784 67.919523
L 102.168 69.803338
L 105.552 68.178375
L 108.936 69.924252
L 112.32 70.743257
L 115.704 70.23697
L 119.088 70.148403
L 122.472 68.962259
L 125.856 72.996511
L 129.24 70.381891
L 132.624 71.711645
L 136.008 72.266481
L 139.392 73.745537
L 142.776 74.197957
L 146.16 72.905029
L 149.544 74.476207
L 152.928 72.452931
L 156.312 75.211665
L 159.696 74.98496
L 163.08 72.879836
L 166.464 77.436843
L 169.848 76.949115
L 173.232 76.172664
L 176.616 76.540812
L 180 76.225724
L 183.384 78.100098
L 186.768 76.005169
L 190.152 78.347534
L 193.536 78.274201
L 196.92 76.553723
L 200.304 80.022978
L 203.688 79.447596
L 207.072 79.998402
L 210.456 80.203535
L 213.84 78.928576
L 217.224 80.231543
L 220.608 80.645244
L 223.992 81.17728
L 227.376 82.688873
L 230.76 81.522181
L 234.144 81.673118
L 237.528 81.885186
L 240.912 83.747559
L 244.296 82.378813
L 247.68 83.830843
L 251.064 84.38544
L 254.448 84.788656
L 257.832 83.662429
L 261.216 85.650796
L 264.6 85.739139
L 267.984 85.861174
L 271.368 85.860186
L 274.752 85.751975
L 278.136 86.494359
L 281.52 86.919117
L 284.904 87.016083
L 288.288 87.242617
L 291.672 87.933813
L 295.056 88.740348
L 298.44 88.625707
L 301.824 89.257287
L 305.208 89.719959
L 308.592 89.802223
L 311.976 90.192593
L 315.36 90.600575
L 318.744 91.020724
L 322.128 91.519845
L 325.512 91.772767
L 328.896 92.262182
L 332.28 92.700876
L 335.664 92.867401
L 339.048 93.395657
L 342.432 93.907888
L 345.816 94.303621
" clip-path="url(#pd4c822534d)" style="fill: none; stroke: #000000; stroke-opacity: 0.1; stroke-width: 1.5; stroke-linecap: square"/>
   </g>
   <g id="line2d_8">
    <path d="M 10.8 23.312104
L 14.184 50.437207
L 17.568 54.04155
L 20.952 56.518816
L 24.336 58.126206
L 27.72 58.409303
L 31.104 59.364462
L 34.488 59.717926
L 37.872 61.595448
L 41.256 62.758913
L 44.64 61.696528
L 48.024 61.12538
L 51.408 64.135053
L 54.792 62.92164
L 58.176 62.344161
L 61.56 65.186949
L 64.944 63.492663
L 68.328 65.724161
L 71.712 63.542243
L 75.096 67.055181
L 78.48 65.991693
L 81.864 65.457509
L 85.248 69.07848
L 88.632 65.721526
L 92.016 68.987145
L 95.4 68.767177
L 98.784 68.735343
L 102.168 69.306088
L 105.552 68.652157
L 108.936 69.546823
L 112.32 68.571356
L 115.704 70.112715
L 119.088 69.644244
L 122.472 70.3892
L 125.856 71.35591
L 129.24 71.27097
L 132.624 70.722521
L 136.008 71.715647
L 139.392 72.416671
L 142.776 73.009283
L 146.16 70.468193
L 149.544 73.26717
L 152.928 72.115651
L 156.312 73.117435
L 159.696 72.880169
L 163.08 73.342547
L 166.464 73.569762
L 169.848 73.244893
L 173.232 74.45505
L 176.616 73.20218
L 180 75.600364
L 183.384 73.697963
L 186.768 75.569053
L 190.152 74.215719
L 193.536 76.334743
L 196.92 76.164884
L 200.304 76.424666
L 203.688 76.534413
L 207.072 76.399018
L 210.456 76.031462
L 213.84 77.16266
L 217.224 77.00168
L 220.608 76.676571
L 223.992 76.794218
L 227.376 78.296247
L 230.76 76.591785
L 234.144 79.136
L 237.528 78.5393
L 240.912 78.1771
L 244.296 79.565335
L 247.68 78.593624
L 251.064 78.813033
L 254.448 79.500802
L 257.832 79.395537
L 261.216 79.692981
L 264.6 79.990479
L 267.984 80.670799
L 271.368 79.964423
L 274.752 80.13842
L 278.136 81.178481
L 281.52 80.960377
L 284.904 80.940322
L 288.288 81.645156
L 291.672 81.297893
L 295.056 81.947728
L 298.44 82.387742
L 301.824 82.22377
L 305.208 82.384825
L 308.592 82.840045
L 311.976 83.206099
L 315.36 83.117945
L 318.744 83.58621
L 322.128 83.625239
L 325.512 83.978076
L 328.896 84.26744
L 332.28 84.300024
L 335.664 84.671615
L 339.048 84.8577
L 342.432 85.083024
L 345.816 85.27012
" clip-path="url(#pd4c822534d)" style="fill: none; stroke: #000000; stroke-opacity: 0.1; stroke-width: 1.5; stroke-linecap: square"/>
   </g>
   <g id="line2d_9">
    <path d="M 10.8 24.428328
L 14.184 48.906709
L 17.568 53.460768
L 20.952 55.558216
L 24.336 57.804456
L 27.72 59.67613
L 31.104 58.63819
L 34.488 59.828696
L 37.872 63.215367
L 41.256 62.525496
L 44.64 62.280594
L 48.024 63.591083
L 51.408 63.339295
L 54.792 63.582219
L 58.176 63.603877
L 61.56 65.537516
L 64.944 64.965246
L 68.328 65.434693
L 71.712 66.047606
L 75.096 67.506188
L 78.48 65.398169
L 81.864 64.226396
L 85.248 67.916727
L 88.632 67.772868
L 92.016 68.284058
L 95.4 68.394731
L 98.784 68.097181
L 102.168 69.503685
L 105.552 67.760905
L 108.936 69.850223
L 112.32 70.673559
L 115.704 69.549851
L 119.088 70.753868
L 122.472 71.532586
L 125.856 70.761697
L 129.24 71.666156
L 132.624 69.918293
L 136.008 72.670286
L 139.392 71.207133
L 142.776 73.316413
L 146.16 73.482063
L 149.544 72.412053
L 152.928 72.791527
L 156.312 73.448567
L 159.696 72.346817
L 163.08 74.375413
L 166.464 74.092834
L 169.848 73.792468
L 173.232 75.148201
L 176.616 74.571788
L 180 73.091028
L 183.384 75.064033
L 186.768 75.738385
L 190.152 74.8821
L 193.536 75.944122
L 196.92 76.265286
L 200.304 75.575721
L 203.688 76.209407
L 207.072 75.946016
L 210.456 77.261055
L 213.84 77.516749
L 217.224 77.263495
L 220.608 77.155616
L 223.992 77.001807
L 227.376 77.804731
L 230.76 78.045892
L 234.144 78.309785
L 237.528 78.073344
L 240.912 78.654172
L 244.296 78.95964
L 247.68 79.163266
L 251.064 79.518965
L 254.448 78.727124
L 257.832 79.630741
L 261.216 79.525759
L 264.6 80.363315
L 267.984 80.23325
L 271.368 80.1927
L 274.752 79.850051
L 278.136 80.32276
L 281.52 81.066852
L 284.904 81.405929
L 288.288 80.938428
L 291.672 81.361146
L 295.056 82.136497
L 298.44 82.005108
L 301.824 82.039124
L 305.208 82.522287
L 308.592 82.893243
L 311.976 82.803921
L 315.36 83.043038
L 318.744 83.01207
L 322.128 83.582653
L 325.512 83.81799
L 328.896 83.98744
L 332.28 84.033894
L 335.664 84.333665
L 339.048 84.73987
L 342.432 84.837516
L 345.816 85.042747
" clip-path="url(#pd4c822534d)" style="fill: none; stroke: #000000; stroke-opacity: 0.1; stroke-width: 1.5; stroke-linecap: square"/>
   </g>
   <g id="line2d_10">
    <path d="M 10.8 26.549451
L 14.184 50.395898
L 17.568 54.918623
L 20.952 56.127658
L 24.336 57.062901
L 27.72 56.702385
L 31.104 59.32948
L 34.488 58.347343
L 37.872 62.347221
L 41.256 60.586942
L 44.64 61.684743
L 48.024 62.481931
L 51.408 62.851979
L 54.792 61.871948
L 58.176 62.728214
L 61.56 63.799041
L 64.944 65.948217
L 68.328 62.040974
L 71.712 66.635178
L 75.096 66.852688
L 78.48 66.497704
L 81.864 66.49298
L 85.248 68.764557
L 88.632 67.283534
L 92.016 68.015803
L 95.4 67.918124
L 98.784 67.549252
L 102.168 69.3824
L 105.552 71.155758
L 108.936 67.372585
L 112.32 73.678897
L 115.704 70.43045
L 119.088 71.20261
L 122.472 70.929938
L 125.856 73.465771
L 129.24 73.476197
L 132.624 73.735144
L 136.008 72.656092
L 139.392 72.287626
L 142.776 73.540943
L 146.16 74.95995
L 149.544 74.161916
L 152.928 75.190195
L 156.312 75.596799
L 159.696 75.575284
L 163.08 72.115916
L 166.464 77.107989
L 169.848 77.4241
L 173.232 77.353093
L 176.616 78.114868
L 180 75.820692
L 183.384 77.089168
L 186.768 77.561612
L 190.152 79.312612
L 193.536 78.960862
L 196.92 79.115366
L 200.304 79.076882
L 203.688 80.138241
L 207.072 80.570441
L 210.456 80.489336
L 213.84 79.646391
L 217.224 80.721551
L 220.608 80.376283
L 223.992 81.977969
L 227.376 82.816153
L 230.76 81.69507
L 234.144 83.236824
L 237.528 82.967267
L 240.912 83.028224
L 244.296 83.391722
L 247.68 84.673446
L 251.064 84.350733
L 254.448 84.255385
L 257.832 84.929048
L 261.216 85.4553
L 264.6 85.667352
L 267.984 85.195033
L 271.368 86.438697
L 274.752 86.707217
L 278.136 86.167685
L 281.52 86.329902
L 284.904 86.936635
L 288.288 87.916
L 291.672 88.507323
L 295.056 88.699251
L 298.44 88.865448
L 301.824 90.127546
L 305.208 89.506712
L 308.592 89.962386
L 311.976 89.914886
L 315.36 90.811617
L 318.744 91.157351
L 322.128 91.267382
L 325.512 91.579276
L 328.896 92.467704
L 332.28 92.496492
L 335.664 92.809762
L 339.048 93.256573
L 342.432 93.740316
L 345.816 94.291484
" clip-path="url(#pd4c822534d)" style="fill: none; stroke: #000000; stroke-width: 1.5; stroke-linecap: square"/>
   </g>
  </g>
 </g>
 <defs>
  <clipPath id="pd4c822534d">
   <rect x="10.8" y="10.8" width="338.4" height="122.4"/>
  </clipPath>
 </defs>
</svg>
