<?xml version="1.0" encoding="utf-8" standalone="no"?>
<!DOCTYPE svg PUBLIC "-//W3C//DTD SVG 1.1//EN"
  "http://www.w3.org/Graphics/SVG/1.1/DTD/svg11.dtd">
<svg xmlns:xlink="http://www.w3.org/1999/xlink" width="360pt" height="144pt" viewBox="0 0 360 144" xmlns="http://www.w3.org/2000/svg" version="1.1">
 <metadata>
  <rdf:RDF xmlns:dc="http://purl.org/dc/elements/1.1/" xmlns:cc="http://creativecommons.org/ns#" xmlns:rdf="http://www.w3.org/1999/02/22-rdf-syntax-ns#">
   <cc:Work>
    <dc:type rdf:resource="http://purl.org/dc/dcmitype/StillImage"/>
    <dc:date>2024-04-02T17:23:23.587877</dc:date>
    <dc:format>image/svg+xml</dc:format>
    <dc:creator>
     <cc:Agent>
      <dc:title>Matplotlib v3.8.3, https://matplotlib.org/</dc:title>
     </cc:Agent>
    </dc:creator>
   </cc:Work>
  </rdf:RDF>
 </metadata>
 <defs>
  <style type="text/css">*{stroke-linejoin: round; stroke-linecap: butt}</style>
 </defs>
 <g id="figure_1">
  <g id="patch_1">
   <path d="M 0 144
L 360 144
L 360 0
L 0 0
z
" style="fill: #ffffff"/>
  </g>
  <g id="axes_1">
   <g id="LineCollection_1">
    <path d="M 10.8 127.636364
L 349.2 127.636364
" clip-path="url(#p54475b7781)" style="fill: none; stroke-dasharray: 5.55,2.4; stroke-dashoffset: 0; stroke: #000000; stroke-width: 1.5"/>
   </g>
   <g id="line2d_1">
    <path d="M 10.8 25.220696
L 14.184 40.294431
L 17.568 41.915532
L 20.952 44.445748
L 24.336 49.578118
L 27.72 53.99298
L 31.104 57.569775
L 34.488 60.67563
L 37.872 63.436446
L 41.256 64.508015
L 44.64 65.369602
L 48.024 66.656089
L 51.408 66.892716
L 54.792 67.412711
L 58.176 69.118908
L 61.56 69.984145
L 64.944 70.517534
L 68.328 71.037096
L 71.712 69.791315
L 75.096 71.333501
L 78.48 72.022238
L 81.864 72.353534
L 85.248 72.271493
L 88.632 73.729104
L 92.016 72.111701
L 95.4 73.288365
L 98.784 73.619112
L 102.168 74.804267
L 105.552 75.258604
L 108.936 75.608497
L 112.32 74.619416
L 115.704 74.630265
L 119.088 75.36457
L 122.472 75.379141
L 125.856 75.578567
L 129.24 76.798556
L 132.624 76.446248
L 136.008 77.305586
L 139.392 77.485794
L 142.776 77.027479
L 146.16 77.880988
L 149.544 77.364989
L 152.928 78.144927
L 156.312 78.431227
L 159.696 78.230948
L 163.08 79.029273
L 166.464 79.17811
L 169.848 79.939853
L 173.232 77.892837
L 176.616 78.943091
L 180 80.400341
L 183.384 80.106435
L 186.768 80.834105
L 190.152 79.978281
L 193.536 80.706931
L 196.92 80.720697
L 200.304 80.739773
L 203.688 81.37898
L 207.072 80.271308
L 210.456 81.245013
L 213.84 81.441691
L 217.224 81.693633
L 220.608 81.939732
L 223.992 82.423024
L 227.376 82.708161
L 230.76 81.351076
L 234.144 82.867221
L 237.528 82.097562
L 240.912 82.967729
L 244.296 83.051514
L 247.68 83.417022
L 251.064 83.951066
L 254.448 83.757326
L 257.832 84.151973
L 261.216 84.125098
L 264.6 84.370314
L 267.984 84.525358
L 271.368 84.988234
L 274.752 84.71485
L 278.136 85.091318
L 281.52 85.213264
L 284.904 85.867424
L 288.288 85.058068
L 291.672 85.716282
L 295.056 86.077947
L 298.44 86.247321
L 301.824 86.335638
L 305.208 86.576012
L 308.592 86.831159
L 311.976 86.870186
L 315.36 87.030626
L 318.744 87.332076
L 322.128 87.485912
L 325.512 87.416302
L 328.896 87.875531
L 332.28 87.98673
L 335.664 88.225235
L 339.048 88.436996
L 342.432 88.570646
L 345.816 88.787645
" clip-path="url(#p54475b7781)" style="fill: none; stroke: #000000; stroke-opacity: 0.1; stroke-width: 1.5; stroke-linecap: square"/>
   </g>
   <g id="line2d_2">
    <path d="M 10.8 22.57839
L 14.184 40.143648
L 17.568 41.995198
L 20.952 44.680811
L 24.336 46.56898
L 27.72 47.643436
L 31.104 48.9798
L 34.488 50.772931
L 37.872 52.572823
L 41.256 54.053735
L 44.64 57.096474
L 48.024 59.887078
L 51.408 62.401627
L 54.792 63.896465
L 58.176 62.823976
L 61.56 65.279899
L 64.944 67.331188
L 68.328 65.990083
L 71.712 68.267366
L 75.096 68.134843
L 78.48 70.122463
L 81.864 70.284452
L 85.248 67.82567
L 88.632 70.798307
L 92.016 70.46368
L 95.4 71.514447
L 98.784 71.821215
L 102.168 73.073996
L 105.552 72.144384
L 108.936 74.662422
L 112.32 73.642722
L 115.704 74.225664
L 119.088 74.302649
L 122.472 72.985686
L 125.856 75.580221
L 129.24 73.60719
L 132.624 76.147466
L 136.008 77.057614
L 139.392 76.976597
L 142.776 77.624074
L 146.16 76.344315
L 149.544 78.013676
L 152.928 77.384321
L 156.312 76.922239
L 159.696 78.153454
L 163.08 78.490191
L 166.464 78.550525
L 169.848 78.517359
L 173.232 79.564121
L 176.616 80.324635
L 180 79.130072
L 183.384 81.211943
L 186.768 79.179783
L 190.152 79.359622
L 193.536 81.650851
L 196.92 80.566148
L 200.304 80.530182
L 203.688 81.717889
L 207.072 81.799892
L 210.456 81.922004
L 213.84 81.500091
L 217.224 81.939772
L 220.608 82.859156
L 223.992 82.488825
L 227.376 82.821445
L 230.76 82.982904
L 234.144 83.725306
L 237.528 84.231748
L 240.912 83.930006
L 244.296 83.347554
L 247.68 84.60833
L 251.064 84.815613
L 254.448 85.071128
L 257.832 84.923425
L 261.216 85.334325
L 264.6 85.648292
L 267.984 85.193678
L 271.368 85.783426
L 274.752 86.210446
L 278.136 86.468263
L 281.52 86.759881
L 284.904 86.773841
L 288.288 87.03388
L 291.672 87.397227
L 295.056 87.550477
L 298.44 87.907387
L 301.824 87.111485
L 305.208 88.154735
L 308.592 88.255512
L 311.976 88.776078
L 315.36 88.803064
L 318.744 88.999141
L 322.128 89.242751
L 325.512 89.442829
L 328.896 89.663877
L 332.28 90.031696
L 335.664 90.148821
L 339.048 90.374025
L 342.432 90.615615
L 345.816 90.836899
" clip-path="url(#p54475b7781)" style="fill: none; stroke: #000000; stroke-opacity: 0.1; stroke-width: 1.5; stroke-linecap: square"/>
   </g>
   <g id="line2d_3">
    <path d="M 10.8 23.750719
L 14.184 44.051877
L 17.568 51.359826
L 20.952 56.555649
L 24.336 59.872109
L 27.72 61.629247
L 31.104 62.960874
L 34.488 64.360588
L 37.872 65.715146
L 41.256 66.167944
L 44.64 66.156711
L 48.024 67.044741
L 51.408 68.152383
L 54.792 67.842995
L 58.176 68.440798
L 61.56 69.913018
L 64.944 69.48674
L 68.328 71.326146
L 71.712 71.312479
L 75.096 71.104406
L 78.48 71.423017
L 81.864 73.66648
L 85.248 72.467911
L 88.632 73.277474
L 92.016 72.7993
L 95.4 73.899145
L 98.784 75.625664
L 102.168 73.986412
L 105.552 75.675224
L 108.936 76.133646
L 112.32 73.880364
L 115.704 75.970074
L 119.088 77.260498
L 122.472 76.468437
L 125.856 77.202047
L 129.24 77.669086
L 132.624 77.464709
L 136.008 78.895891
L 139.392 77.524475
L 142.776 78.29073
L 146.16 79.505443
L 149.544 79.765068
L 152.928 79.271983
L 156.312 79.817776
L 159.696 79.549511
L 163.08 81.926942
L 166.464 80.705911
L 169.848 80.309465
L 173.232 81.840199
L 176.616 81.388348
L 180 81.554244
L 183.384 81.67861
L 186.768 81.918911
L 190.152 82.472588
L 193.536 82.487193
L 196.92 82.844318
L 200.304 82.607659
L 203.688 83.550677
L 207.072 83.023341
L 210.456 83.240686
L 213.84 84.65582
L 217.224 85.15033
L 220.608 84.439073
L 223.992 85.324792
L 227.376 84.600729
L 230.76 85.393862
L 234.144 85.653596
L 237.528 86.281762
L 240.912 86.43472
L 244.296 86.603461
L 247.68 86.858489
L 251.064 87.343224
L 254.448 86.981242
L 257.832 87.434891
L 261.216 87.38446
L 264.6 87.841391
L 267.984 88.987369
L 271.368 88.752666
L 274.752 88.632557
L 278.136 89.569114
L 281.52 89.108146
L 284.904 89.422695
L 288.288 89.2139
L 291.672 89.788215
L 295.056 90.417426
L 298.44 90.553978
L 301.824 90.980862
L 305.208 91.660372
L 308.592 91.585357
L 311.976 91.445935
L 315.36 92.112619
L 318.744 92.282887
L 322.128 92.070582
L 325.512 92.571276
L 328.896 93.194335
L 332.28 93.365552
L 335.664 93.563393
L 339.048 93.845184
L 342.432 94.319292
L 345.816 94.527066
" clip-path="url(#p54475b7781)" style="fill: none; stroke: #000000; stroke-opacity: 0.1; stroke-width: 1.5; stroke-linecap: square"/>
   </g>
   <g id="line2d_4">
    <path d="M 10.8 21.976053
L 14.184 37.327562
L 17.568 40.314731
L 20.952 41.790969
L 24.336 42.929925
L 27.72 44.95783
L 31.104 48.021659
L 34.488 51.521589
L 37.872 54.165694
L 41.256 56.700623
L 44.64 58.903304
L 48.024 61.291081
L 51.408 63.341676
L 54.792 64.694493
L 58.176 66.312746
L 61.56 67.338241
L 64.944 68.109147
L 68.328 68.236661
L 71.712 69.445773
L 75.096 70.021439
L 78.48 70.00819
L 81.864 70.084554
L 85.248 70.058581
L 88.632 71.570716
L 92.016 71.950094
L 95.4 71.841052
L 98.784 72.441714
L 102.168 72.332651
L 105.552 72.853887
L 108.936 72.15219
L 112.32 73.381874
L 115.704 73.572795
L 119.088 74.553031
L 122.472 74.292229
L 125.856 74.815607
L 129.24 74.235958
L 132.624 74.563682
L 136.008 74.613057
L 139.392 75.612308
L 142.776 75.840389
L 146.16 76.186882
L 149.544 75.425776
L 152.928 75.788727
L 156.312 77.049745
L 159.696 77.467913
L 163.08 78.052118
L 166.464 77.240367
L 169.848 76.425268
L 173.232 78.41249
L 176.616 78.073851
L 180 78.550363
L 183.384 79.16014
L 186.768 78.980564
L 190.152 79.441713
L 193.536 79.808156
L 196.92 79.533645
L 200.304 80.51482
L 203.688 80.464476
L 207.072 81.023903
L 210.456 81.039453
L 213.84 80.567721
L 217.224 81.329646
L 220.608 80.801941
L 223.992 81.886467
L 227.376 82.001197
L 230.76 82.714028
L 234.144 82.680408
L 237.528 82.802196
L 240.912 83.257256
L 244.296 82.971433
L 247.68 83.376865
L 251.064 83.916783
L 254.448 84.250698
L 257.832 83.958416
L 261.216 84.555913
L 264.6 84.540492
L 267.984 84.706917
L 271.368 85.091132
L 274.752 85.25659
L 278.136 85.415848
L 281.52 85.6937
L 284.904 85.940735
L 288.288 86.119576
L 291.672 86.26128
L 295.056 86.411546
L 298.44 86.865712
L 301.824 87.047957
L 305.208 87.341317
L 308.592 87.442017
L 311.976 87.788041
L 315.36 87.742669
L 318.744 87.964036
L 322.128 88.258643
L 325.512 88.4828
L 328.896 88.574595
L 332.28 88.652258
L 335.664 88.968571
L 339.048 89.093797
L 342.432 89.324451
L 345.816 89.479072
" clip-path="url(#p54475b7781)" style="fill: none; stroke: #000000; stroke-opacity: 0.1; stroke-width: 1.5; stroke-linecap: square"/>
   </g>
   <g id="line2d_5">
    <path d="M 10.8 16.363636
L 14.184 22.538721
L 17.568 40.320971
L 20.952 41.941572
L 24.336 43.676292
L 27.72 46.169198
L 31.104 50.709166
L 34.488 55.89974
L 37.872 59.195956
L 41.256 61.961451
L 44.64 63.20379
L 48.024 64.805118
L 51.408 66.361182
L 54.792 66.731999
L 58.176 68.181481
L 61.56 70.00777
L 64.944 70.342681
L 68.328 70.912622
L 71.712 71.54918
L 75.096 71.93457
L 78.48 72.868843
L 81.864 73.362029
L 85.248 74.011535
L 88.632 74.065801
L 92.016 73.654739
L 95.4 74.773102
L 98.784 73.742816
L 102.168 75.162528
L 105.552 75.606432
L 108.936 76.241037
L 112.32 76.235439
L 115.704 77.225702
L 119.088 76.843423
L 122.472 76.424826
L 125.856 77.420438
L 129.24 76.911297
L 132.624 78.499862
L 136.008 77.842904
L 139.392 77.659558
L 142.776 78.676551
L 146.16 77.931729
L 149.544 79.028814
L 152.928 80.02191
L 156.312 78.865457
L 159.696 80.644265
L 163.08 80.545145
L 166.464 79.867157
L 169.848 79.73127
L 173.232 81.033985
L 176.616 79.3964
L 180 81.477351
L 183.384 81.949811
L 186.768 80.897588
L 190.152 81.466717
L 193.536 82.224401
L 196.92 81.68149
L 200.304 82.698016
L 203.688 81.923033
L 207.072 83.477062
L 210.456 82.62312
L 213.84 83.04678
L 217.224 83.550064
L 220.608 82.778998
L 223.992 83.903705
L 227.376 83.201529
L 230.76 84.034735
L 234.144 84.450458
L 237.528 84.37069
L 240.912 84.56674
L 244.296 85.245813
L 247.68 84.854915
L 251.064 84.776315
L 254.448 85.510665
L 257.832 85.200586
L 261.216 85.442347
L 264.6 85.938815
L 267.984 86.05473
L 271.368 85.990517
L 274.752 86.146713
L 278.136 86.320535
L 281.52 86.654825
L 284.904 86.659493
L 288.288 87.117863
L 291.672 87.359037
L 295.056 87.589262
L 298.44 87.672682
L 301.824 87.487739
L 305.208 87.930629
L 308.592 88.207668
L 311.976 88.226969
L 315.36 88.537649
L 318.744 88.616066
L 322.128 88.925202
L 325.512 88.969684
L 328.896 89.233137
L 332.28 89.275348
L 335.664 89.383523
L 339.048 89.733005
L 342.432 89.94418
L 345.816 90.112139
" clip-path="url(#p54475b7781)" style="fill: none; stroke: #000000; stroke-opacity: 0.1; stroke-width: 1.5; stroke-linecap: square"/>
   </g>
   <g id="line2d_6">
    <path d="M 10.8 17.168352
L 14.184 36.830418
L 17.568 39.667537
L 20.952 41.458566
L 24.336 44.04469
L 27.72 49.305264
L 31.104 55.267981
L 34.488 57.926037
L 37.872 60.926101
L 41.256 62.942664
L 44.64 63.895675
L 48.024 64.843197
L 51.408 65.909405
L 54.792 66.452536
L 58.176 67.240339
L 61.56 68.082345
L 64.944 69.502936
L 68.328 68.846519
L 71.712 70.772023
L 75.096 68.919018
L 78.48 71.753464
L 81.864 70.91423
L 85.248 71.80087
L 88.632 71.232816
L 92.016 72.610955
L 95.4 71.983424
L 98.784 73.201992
L 102.168 73.064347
L 105.552 73.388762
L 108.936 74.110902
L 112.32 73.520003
L 115.704 74.380354
L 119.088 74.186738
L 122.472 74.733822
L 125.856 74.706931
L 129.24 76.168235
L 132.624 76.295079
L 136.008 75.182105
L 139.392 76.028379
L 142.776 75.841592
L 146.16 76.380841
L 149.544 77.038205
L 152.928 77.226706
L 156.312 76.499133
L 159.696 76.930457
L 163.08 77.512992
L 166.464 77.839244
L 169.848 77.581866
L 173.232 77.568749
L 176.616 77.931704
L 180 78.666849
L 183.384 78.933362
L 186.768 79.040406
L 190.152 79.953145
L 193.536 78.910292
L 196.92 78.662565
L 200.304 80.405621
L 203.688 79.590941
L 207.072 80.292479
L 210.456 80.554746
L 213.84 80.523169
L 217.224 81.14607
L 220.608 81.268408
L 223.992 81.530388
L 227.376 81.460754
L 230.76 81.690643
L 234.144 81.869084
L 237.528 81.833524
L 240.912 82.53306
L 244.296 82.491514
L 247.68 82.765197
L 251.064 83.406057
L 254.448 82.904454
L 257.832 83.195438
L 261.216 83.725592
L 264.6 83.451652
L 267.984 84.474573
L 271.368 84.064302
L 274.752 84.015792
L 278.136 84.378635
L 281.52 85.31954
L 284.904 85.242569
L 288.288 85.100792
L 291.672 85.246141
L 295.056 85.301334
L 298.44 85.721834
L 301.824 85.82243
L 305.208 86.240484
L 308.592 86.542737
L 311.976 86.197789
L 315.36 86.836842
L 318.744 86.612818
L 322.128 87.061684
L 325.512 87.353723
L 328.896 87.342814
L 332.28 87.847538
L 335.664 88.035721
L 339.048 88.236297
L 342.432 88.419941
L 345.816 88.537648
" clip-path="url(#p54475b7781)" style="fill: none; stroke: #000000; stroke-opacity: 0.1; stroke-width: 1.5; stroke-linecap: square"/>
   </g>
   <g id="line2d_7">
    <path d="M 10.8 18.961185
L 14.184 36.80619
L 17.568 39.842529
L 20.952 41.015696
L 24.336 42.090319
L 27.72 44.097831
L 31.104 46.536312
L 34.488 48.589517
L 37.872 50.280276
L 41.256 51.866303
L 44.64 53.242044
L 48.024 54.8081
L 51.408 55.700724
L 54.792 57.596419
L 58.176 58.808821
L 61.56 60.378293
L 64.944 61.356614
L 68.328 62.22677
L 71.712 64.337222
L 75.096 65.195851
L 78.48 66.425351
L 81.864 68.03482
L 85.248 68.478821
L 88.632 69.91574
L 92.016 69.301747
L 95.4 70.958106
L 98.784 71.338901
L 102.168 71.331256
L 105.552 72.13907
L 108.936 72.481095
L 112.32 72.457764
L 115.704 73.16736
L 119.088 72.721658
L 122.472 73.987181
L 125.856 74.068833
L 129.24 73.95527
L 132.624 74.031305
L 136.008 74.443052
L 139.392 73.161959
L 142.776 74.364355
L 146.16 75.621032
L 149.544 75.941666
L 152.928 75.201766
L 156.312 75.251687
L 159.696 75.924634
L 163.08 76.415513
L 166.464 75.923037
L 169.848 76.102134
L 173.232 76.981113
L 176.616 76.941799
L 180 77.172243
L 183.384 77.452365
L 186.768 77.482341
L 190.152 77.128538
L 193.536 77.881917
L 196.92 77.203784
L 200.304 78.731893
L 203.688 78.073727
L 207.072 77.988938
L 210.456 78.474631
L 213.84 78.310078
L 217.224 78.773342
L 220.608 79.292605
L 223.992 79.213047
L 227.376 79.728161
L 230.76 79.421481
L 234.144 79.298144
L 237.528 80.449932
L 240.912 80.023264
L 244.296 79.858835
L 247.68 80.632292
L 251.064 80.479855
L 254.448 80.733506
L 257.832 80.983831
L 261.216 81.466572
L 264.6 81.378889
L 267.984 81.686205
L 271.368 81.66468
L 274.752 81.696704
L 278.136 82.072766
L 281.52 82.14523
L 284.904 82.58707
L 288.288 82.764934
L 291.672 82.603468
L 295.056 82.936842
L 298.44 83.240564
L 301.824 83.160748
L 305.208 83.607828
L 308.592 83.306664
L 311.976 83.869816
L 315.36 84.018173
L 318.744 84.161114
L 322.128 84.219333
L 325.512 84.563831
L 328.896 84.642477
L 332.28 84.83557
L 335.664 84.801929
L 339.048 85.061639
L 342.432 85.17198
L 345.816 85.295546
" clip-path="url(#p54475b7781)" style="fill: none; stroke: #000000; stroke-opacity: 0.1; stroke-width: 1.5; stroke-linecap: square"/>
   </g>
   <g id="line2d_8">
    <path d="M 10.8 21.746062
L 14.184 32.912115
L 17.568 36.303537
L 20.952 40.401467
L 24.336 43.452038
L 27.72 46.231821
L 31.104 51.326095
L 34.488 55.894822
L 37.872 59.054536
L 41.256 62.423996
L 44.64 64.717896
L 48.024 65.655466
L 51.408 66.964434
L 54.792 67.870379
L 58.176 68.042863
L 61.56 68.817323
L 64.944 69.815821
L 68.328 69.4258
L 71.712 70.356945
L 75.096 70.3077
L 78.48 71.551045
L 81.864 71.155396
L 85.248 72.359493
L 88.632 71.730726
L 92.016 72.474421
L 95.4 72.924241
L 98.784 72.796011
L 102.168 73.086417
L 105.552 73.6854
L 108.936 74.213631
L 112.32 73.855172
L 115.704 74.509031
L 119.088 75.310189
L 122.472 75.258366
L 125.856 75.023046
L 129.24 75.088075
L 132.624 75.582847
L 136.008 76.067419
L 139.392 76.212131
L 142.776 76.132898
L 146.16 76.427033
L 149.544 77.118357
L 152.928 77.069985
L 156.312 77.242831
L 159.696 77.069091
L 163.08 77.602228
L 166.464 77.57524
L 169.848 78.345656
L 173.232 77.537217
L 176.616 78.370784
L 180 78.643042
L 183.384 78.402546
L 186.768 78.444528
L 190.152 79.324132
L 193.536 79.059315
L 196.92 79.676666
L 200.304 79.79993
L 203.688 79.240139
L 207.072 79.960468
L 210.456 79.932726
L 213.84 80.051775
L 217.224 80.754179
L 220.608 80.388419
L 223.992 80.474766
L 227.376 80.265611
L 230.76 80.812178
L 234.144 81.525623
L 237.528 80.892301
L 240.912 81.547647
L 244.296 81.855281
L 247.68 81.43164
L 251.064 82.141176
L 254.448 81.765005
L 257.832 81.943355
L 261.216 82.370729
L 264.6 82.399676
L 267.984 82.428813
L 271.368 82.497638
L 274.752 82.780617
L 278.136 83.015166
L 281.52 83.06402
L 284.904 83.218317
L 288.288 83.144621
L 291.672 83.4556
L 295.056 83.578611
L 298.44 83.494582
L 301.824 83.700895
L 305.208 84.102429
L 308.592 84.050705
L 311.976 84.209003
L 315.36 84.15489
L 318.744 84.434001
L 322.128 84.645449
L 325.512 84.548982
L 328.896 84.719006
L 332.28 84.897254
L 335.664 84.977962
L 339.048 85.085417
L 342.432 85.190069
L 345.816 85.340378
" clip-path="url(#p54475b7781)" style="fill: none; stroke: #000000; stroke-opacity: 0.1; stroke-width: 1.5; stroke-linecap: square"/>
   </g>
   <g id="line2d_9">
    <path d="M 10.8 18.111982
L 14.184 36.669557
L 17.568 40.051105
L 20.952 41.340551
L 24.336 42.360599
L 27.72 43.811983
L 31.104 46.087489
L 34.488 49.145109
L 37.872 52.270953
L 41.256 56.001722
L 44.64 59.426928
L 48.024 61.591881
L 51.408 62.794874
L 54.792 64.813416
L 58.176 65.71087
L 61.56 66.825533
L 64.944 67.835036
L 68.328 69.189672
L 71.712 70.238301
L 75.096 70.73201
L 78.48 70.992125
L 81.864 72.513921
L 85.248 72.383202
L 88.632 72.979343
L 92.016 74.181357
L 95.4 73.961704
L 98.784 73.515339
L 102.168 74.339592
L 105.552 75.527776
L 108.936 75.428076
L 112.32 75.06324
L 115.704 74.769494
L 119.088 76.341285
L 122.472 76.357027
L 125.856 77.537265
L 129.24 76.804327
L 132.624 76.931752
L 136.008 77.231139
L 139.392 77.31164
L 142.776 77.833254
L 146.16 76.77982
L 149.544 77.964404
L 152.928 78.317257
L 156.312 78.026207
L 159.696 78.424077
L 163.08 78.628627
L 166.464 79.071416
L 169.848 78.938269
L 173.232 78.465483
L 176.616 78.91829
L 180 80.16366
L 183.384 80.366149
L 186.768 79.852741
L 190.152 80.031361
L 193.536 80.314549
L 196.92 80.400655
L 200.304 80.602989
L 203.688 80.749748
L 207.072 80.962614
L 210.456 81.047116
L 213.84 81.431481
L 217.224 80.90156
L 220.608 81.76172
L 223.992 82.023165
L 227.376 81.731783
L 230.76 82.279196
L 234.144 82.310224
L 237.528 82.152162
L 240.912 82.159647
L 244.296 82.570251
L 247.68 83.328712
L 251.064 83.202735
L 254.448 82.661814
L 257.832 83.011084
L 261.216 83.433593
L 264.6 83.584821
L 267.984 83.431177
L 271.368 83.55882
L 274.752 83.500167
L 278.136 84.007599
L 281.52 84.074049
L 284.904 84.088058
L 288.288 84.375042
L 291.672 84.425722
L 295.056 84.461676
L 298.44 84.768879
L 301.824 84.744482
L 305.208 84.809199
L 308.592 85.26203
L 311.976 85.158795
L 315.36 85.145766
L 318.744 85.373219
L 322.128 85.617983
L 325.512 85.712767
L 328.896 85.842943
L 332.28 85.924345
L 335.664 86.132616
L 339.048 86.199702
L 342.432 86.335203
L 345.816 86.424686
" clip-path="url(#p54475b7781)" style="fill: none; stroke: #000000; stroke-opacity: 0.1; stroke-width: 1.5; stroke-linecap: square"/>
   </g>
   <g id="line2d_10">
    <path d="M 10.8 19.779155
L 14.184 38.944534
L 17.568 40.795736
L 20.952 41.824128
L 24.336 42.679123
L 27.72 43.738162
L 31.104 45.480248
L 34.488 47.353438
L 37.872 49.17725
L 41.256 50.430888
L 44.64 51.996951
L 48.024 53.2637
L 51.408 54.374441
L 54.792 56.663914
L 58.176 57.245011
L 61.56 61.098987
L 64.944 64.071365
L 68.328 66.460411
L 71.712 67.534729
L 75.096 67.928313
L 78.48 69.232101
L 81.864 68.241085
L 85.248 69.857765
L 88.632 69.868968
L 92.016 72.545036
L 95.4 71.607628
L 98.784 72.329599
L 102.168 73.617705
L 105.552 73.219732
L 108.936 72.413524
L 112.32 73.912975
L 115.704 74.379896
L 119.088 73.402201
L 122.472 74.428689
L 125.856 74.774339
L 129.24 75.656264
L 132.624 74.597567
L 136.008 77.045034
L 139.392 76.495834
L 142.776 75.119372
L 146.16 77.204553
L 149.544 76.86866
L 152.928 77.758953
L 156.312 76.922052
L 159.696 77.77186
L 163.08 78.378485
L 166.464 78.778898
L 169.848 80.003378
L 173.232 80.00609
L 176.616 79.6731
L 180 77.839812
L 183.384 78.052708
L 186.768 81.320987
L 190.152 80.388653
L 193.536 81.013852
L 196.92 80.237035
L 200.304 81.996353
L 203.688 80.118254
L 207.072 81.437992
L 210.456 81.388781
L 213.84 82.891839
L 217.224 81.732926
L 220.608 83.410454
L 223.992 82.556989
L 227.376 83.186818
L 230.76 83.374136
L 234.144 84.026224
L 237.528 83.812731
L 240.912 83.73228
L 244.296 84.259789
L 247.68 84.653394
L 251.064 84.949979
L 254.448 85.24998
L 257.832 85.656403
L 261.216 85.393284
L 264.6 86.229116
L 267.984 85.719719
L 271.368 86.507532
L 274.752 85.928886
L 278.136 86.884155
L 281.52 87.086083
L 284.904 87.02191
L 288.288 87.764231
L 291.672 87.88858
L 295.056 88.060354
L 298.44 88.305633
L 301.824 88.527022
L 305.208 88.759816
L 308.592 89.197874
L 311.976 89.324717
L 315.36 89.358272
L 318.744 89.82504
L 322.128 90.183378
L 325.512 90.398379
L 328.896 90.335024
L 332.28 90.70117
L 335.664 90.782666
L 339.048 91.211458
L 342.432 91.458342
L 345.816 91.712332
" clip-path="url(#p54475b7781)" style="fill: none; stroke: #000000; stroke-width: 1.5; stroke-linecap: square"/>
   </g>
  </g>
 </g>
 <defs>
  <clipPath id="p54475b7781">
   <rect x="10.8" y="10.8" width="338.4" height="122.4"/>
  </clipPath>
 </defs>
</svg>
