<?xml version="1.0" encoding="utf-8" standalone="no"?>
<!DOCTYPE svg PUBLIC "-//W3C//DTD SVG 1.1//EN"
  "http://www.w3.org/Graphics/SVG/1.1/DTD/svg11.dtd">
<svg xmlns:xlink="http://www.w3.org/1999/xlink" width="360pt" height="144pt" viewBox="0 0 360 144" xmlns="http://www.w3.org/2000/svg" version="1.1">
 <metadata>
  <rdf:RDF xmlns:dc="http://purl.org/dc/elements/1.1/" xmlns:cc="http://creativecommons.org/ns#" xmlns:rdf="http://www.w3.org/1999/02/22-rdf-syntax-ns#">
   <cc:Work>
    <dc:type rdf:resource="http://purl.org/dc/dcmitype/StillImage"/>
    <dc:date>2024-04-02T17:23:23.601280</dc:date>
    <dc:format>image/svg+xml</dc:format>
    <dc:creator>
     <cc:Agent>
      <dc:title>Matplotlib v3.8.3, https://matplotlib.org/</dc:title>
     </cc:Agent>
    </dc:creator>
   </cc:Work>
  </rdf:RDF>
 </metadata>
 <defs>
  <style type="text/css">*{stroke-linejoin: round; stroke-linecap: butt}</style>
 </defs>
 <g id="figure_1">
  <g id="patch_1">
   <path d="M 0 144
L 360 144
L 360 0
L 0 0
z
" style="fill: #ffffff"/>
  </g>
  <g id="axes_1">
   <g id="LineCollection_1">
    <path d="M 10.8 127.636364
L 349.2 127.636364
" clip-path="url(#p8a884bb1b4)" style="fill: none; stroke-dasharray: 5.55,2.4; stroke-dashoffset: 0; stroke: #000000; stroke-width: 1.5"/>
   </g>
   <g id="line2d_1">
    <path d="M 10.8 22.290896
L 14.184 28.442578
L 17.568 29.116454
L 20.952 29.529731
L 24.336 29.839094
L 27.72 30.233694
L 31.104 30.736577
L 34.488 31.063423
L 37.872 31.452177
L 41.256 32.141267
L 44.64 32.527596
L 48.024 33.299665
L 51.408 34.130763
L 54.792 35.408739
L 58.176 36.975057
L 61.56 39.497967
L 64.944 42.274269
L 68.328 43.925295
L 71.712 41.695963
L 75.096 44.85892
L 78.48 46.621905
L 81.864 47.702635
L 85.248 47.104971
L 88.632 48.888365
L 92.016 50.738999
L 95.4 47.934581
L 98.784 46.602834
L 102.168 50.45846
L 105.552 50.478558
L 108.936 52.187394
L 112.32 51.043757
L 115.704 53.167031
L 119.088 52.24678
L 122.472 52.204374
L 125.856 54.176687
L 129.24 53.489845
L 132.624 53.873768
L 136.008 53.91063
L 139.392 55.3427
L 142.776 53.496113
L 146.16 55.334172
L 149.544 53.939119
L 152.928 54.957663
L 156.312 54.914644
L 159.696 55.157511
L 163.08 55.308348
L 166.464 55.178756
L 169.848 53.570339
L 173.232 56.236189
L 176.616 56.51512
L 180 56.132659
L 183.384 55.054435
L 186.768 56.257684
L 190.152 57.228143
L 193.536 55.688181
L 196.92 57.05658
L 200.304 57.475766
L 203.688 56.647691
L 207.072 57.132994
L 210.456 57.72752
L 213.84 57.268058
L 217.224 57.571719
L 220.608 57.120711
L 223.992 58.225832
L 227.376 57.468074
L 230.76 58.274872
L 234.144 57.968951
L 237.528 58.687736
L 240.912 58.399395
L 244.296 57.786702
L 247.68 58.665386
L 251.064 58.721867
L 254.448 58.837183
L 257.832 58.899235
L 261.216 59.049156
L 264.6 58.581836
L 267.984 59.388271
L 271.368 59.129268
L 274.752 59.387148
L 278.136 59.742522
L 281.52 59.712387
L 284.904 60.037222
L 288.288 60.235617
L 291.672 59.699134
L 295.056 60.214934
L 298.44 60.325971
L 301.824 60.479169
L 305.208 60.494712
L 308.592 60.60883
L 311.976 60.799344
L 315.36 60.71419
L 318.744 60.923797
L 322.128 61.081838
L 325.512 61.144401
L 328.896 61.205105
L 332.28 61.322389
L 335.664 61.419017
L 339.048 61.505233
L 342.432 61.629773
L 345.816 61.680085
" clip-path="url(#p8a884bb1b4)" style="fill: none; stroke: #000000; stroke-opacity: 0.1; stroke-width: 1.5; stroke-linecap: square"/>
   </g>
   <g id="line2d_2">
    <path d="M 10.8 21.303271
L 14.184 27.857661
L 17.568 28.546249
L 20.952 29.166427
L 24.336 29.469904
L 27.72 30.448262
L 31.104 30.945225
L 34.488 31.764584
L 37.872 32.757637
L 41.256 34.364335
L 44.64 36.263965
L 48.024 37.573443
L 51.408 41.016147
L 54.792 43.791044
L 58.176 44.719572
L 61.56 43.917299
L 64.944 46.73151
L 68.328 47.514164
L 71.712 48.706575
L 75.096 44.515609
L 78.48 48.988499
L 81.864 47.331653
L 85.248 50.014189
L 88.632 50.292255
L 92.016 48.680925
L 95.4 49.370545
L 98.784 51.496969
L 102.168 50.972655
L 105.552 51.266514
L 108.936 53.692248
L 112.32 51.83092
L 115.704 51.137955
L 119.088 52.167445
L 122.472 52.974931
L 125.856 52.041723
L 129.24 51.167568
L 132.624 53.576659
L 136.008 53.680191
L 139.392 53.695086
L 142.776 53.985665
L 146.16 53.33753
L 149.544 52.799386
L 152.928 53.933002
L 156.312 54.462788
L 159.696 54.341106
L 163.08 53.522809
L 166.464 53.080139
L 169.848 54.846207
L 173.232 54.996561
L 176.616 56.218955
L 180 55.193562
L 183.384 55.453541
L 186.768 55.454666
L 190.152 56.415376
L 193.536 55.950019
L 196.92 54.839722
L 200.304 56.481188
L 203.688 55.544067
L 207.072 57.32741
L 210.456 56.32253
L 213.84 56.465861
L 217.224 56.484508
L 220.608 57.254957
L 223.992 57.457408
L 227.376 57.600268
L 230.76 55.163653
L 234.144 57.585671
L 237.528 57.923363
L 240.912 56.356935
L 244.296 57.924793
L 247.68 58.342447
L 251.064 58.471777
L 254.448 58.712948
L 257.832 58.409198
L 261.216 57.902404
L 264.6 59.167454
L 267.984 58.948073
L 271.368 58.701777
L 274.752 59.606564
L 278.136 59.434719
L 281.52 59.319231
L 284.904 59.735119
L 288.288 60.099298
L 291.672 59.996111
L 295.056 59.988753
L 298.44 59.989106
L 301.824 60.526891
L 305.208 60.642372
L 308.592 60.598011
L 311.976 60.76811
L 315.36 60.669329
L 318.744 61.069268
L 322.128 61.142193
L 325.512 61.22236
L 328.896 61.372636
L 332.28 61.474019
L 335.664 61.62169
L 339.048 61.667572
L 342.432 61.829658
L 345.816 61.905346
" clip-path="url(#p8a884bb1b4)" style="fill: none; stroke: #000000; stroke-opacity: 0.1; stroke-width: 1.5; stroke-linecap: square"/>
   </g>
   <g id="line2d_3">
    <path d="M 10.8 33.108886
L 14.184 43.704621
L 17.568 45.772879
L 20.952 47.612846
L 24.336 48.422419
L 27.72 49.653734
L 31.104 49.527663
L 34.488 49.770994
L 37.872 50.585415
L 41.256 50.74411
L 44.64 51.372153
L 48.024 51.506986
L 51.408 51.737547
L 54.792 51.97484
L 58.176 52.174308
L 61.56 52.264412
L 64.944 52.386042
L 68.328 52.723399
L 71.712 53.076559
L 75.096 53.348664
L 78.48 53.193476
L 81.864 53.438314
L 85.248 53.604215
L 88.632 54.106629
L 92.016 53.995117
L 95.4 53.961585
L 98.784 54.203729
L 102.168 53.992543
L 105.552 54.087927
L 108.936 54.530899
L 112.32 54.669159
L 115.704 54.454846
L 119.088 54.771949
L 122.472 55.00524
L 125.856 54.98804
L 129.24 54.579106
L 132.624 55.270938
L 136.008 55.39784
L 139.392 55.302109
L 142.776 55.398913
L 146.16 55.831521
L 149.544 55.551292
L 152.928 55.775405
L 156.312 55.697824
L 159.696 55.927584
L 163.08 56.147928
L 166.464 56.277981
L 169.848 56.542246
L 173.232 56.711439
L 176.616 57.120882
L 180 57.221582
L 183.384 57.258772
L 186.768 57.188827
L 190.152 57.535138
L 193.536 57.712251
L 196.92 57.969306
L 200.304 57.937612
L 203.688 58.017938
L 207.072 58.464503
L 210.456 58.575873
L 213.84 58.375199
L 217.224 58.66956
L 220.608 58.549317
L 223.992 58.797673
L 227.376 58.877218
L 230.76 59.055342
L 234.144 58.925201
L 237.528 59.036684
L 240.912 59.291456
L 244.296 59.176073
L 247.68 59.319764
L 251.064 59.409707
L 254.448 59.432548
L 257.832 59.496031
L 261.216 59.587167
L 264.6 59.53565
L 267.984 59.677802
L 271.368 59.83997
L 274.752 59.735489
L 278.136 59.852752
L 281.52 59.876093
L 284.904 60.039027
L 288.288 60.008687
L 291.672 60.077759
L 295.056 60.004577
L 298.44 60.069718
L 301.824 60.291556
L 305.208 60.213447
L 308.592 60.255534
L 311.976 60.343567
L 315.36 60.418284
L 318.744 60.512316
L 322.128 60.438065
L 325.512 60.540542
L 328.896 60.62227
L 332.28 60.691313
L 335.664 60.70811
L 339.048 60.743614
L 342.432 60.812234
L 345.816 60.862055
" clip-path="url(#p8a884bb1b4)" style="fill: none; stroke: #000000; stroke-opacity: 0.1; stroke-width: 1.5; stroke-linecap: square"/>
   </g>
   <g id="line2d_4">
    <path d="M 10.8 31.277126
L 14.184 42.97149
L 17.568 44.550163
L 20.952 45.87324
L 24.336 47.359204
L 27.72 48.700985
L 31.104 49.45984
L 34.488 49.26969
L 37.872 50.045738
L 41.256 50.827848
L 44.64 50.865227
L 48.024 51.217243
L 51.408 50.950035
L 54.792 51.996329
L 58.176 51.784873
L 61.56 51.811285
L 64.944 52.331088
L 68.328 52.595834
L 71.712 53.017406
L 75.096 53.248912
L 78.48 52.971877
L 81.864 53.027212
L 85.248 53.094986
L 88.632 53.254714
L 92.016 53.548232
L 95.4 53.642301
L 98.784 53.765938
L 102.168 53.722484
L 105.552 54.01669
L 108.936 54.424805
L 112.32 53.686287
L 115.704 54.36847
L 119.088 54.50946
L 122.472 54.223999
L 125.856 54.70303
L 129.24 54.926247
L 132.624 54.853479
L 136.008 54.685635
L 139.392 55.179204
L 142.776 54.843319
L 146.16 55.23652
L 149.544 55.304803
L 152.928 54.896098
L 156.312 55.53699
L 159.696 55.416428
L 163.08 55.467405
L 166.464 55.474474
L 169.848 55.706674
L 173.232 55.666055
L 176.616 55.800518
L 180 55.825139
L 183.384 55.970918
L 186.768 55.993182
L 190.152 55.994733
L 193.536 55.828534
L 196.92 56.195166
L 200.304 56.046717
L 203.688 56.384179
L 207.072 56.437801
L 210.456 56.30081
L 213.84 56.482312
L 217.224 56.38076
L 220.608 56.414626
L 223.992 56.4935
L 227.376 56.59919
L 230.76 56.628866
L 234.144 56.724202
L 237.528 56.797204
L 240.912 56.836979
L 244.296 56.680251
L 247.68 56.873765
L 251.064 56.963343
L 254.448 57.220692
L 257.832 57.053933
L 261.216 57.133471
L 264.6 57.179527
L 267.984 57.222283
L 271.368 57.237179
L 274.752 57.331149
L 278.136 57.465372
L 281.52 57.438093
L 284.904 57.455439
L 288.288 57.425267
L 291.672 57.594627
L 295.056 57.610367
L 298.44 57.628067
L 301.824 57.706122
L 305.208 57.745366
L 308.592 57.831481
L 311.976 57.903166
L 315.36 57.986347
L 318.744 57.910472
L 322.128 57.991989
L 325.512 58.021626
L 328.896 58.143097
L 332.28 58.082925
L 335.664 58.209299
L 339.048 58.205911
L 342.432 58.262541
L 345.816 58.310035
" clip-path="url(#p8a884bb1b4)" style="fill: none; stroke: #000000; stroke-opacity: 0.1; stroke-width: 1.5; stroke-linecap: square"/>
   </g>
   <g id="line2d_5">
    <path d="M 10.8 27.336667
L 14.184 41.705043
L 17.568 44.15786
L 20.952 44.883238
L 24.336 45.462562
L 27.72 46.189268
L 31.104 46.80674
L 34.488 47.439094
L 37.872 48.149534
L 41.256 48.863917
L 44.64 49.163022
L 48.024 49.816291
L 51.408 50.240053
L 54.792 50.739673
L 58.176 50.823471
L 61.56 51.288274
L 64.944 51.331019
L 68.328 52.031139
L 71.712 52.173875
L 75.096 52.441257
L 78.48 52.594303
L 81.864 52.516127
L 85.248 52.997851
L 88.632 53.037046
L 92.016 53.260014
L 95.4 53.301515
L 98.784 53.387738
L 102.168 53.441305
L 105.552 53.657367
L 108.936 53.754139
L 112.32 53.642663
L 115.704 53.810545
L 119.088 53.818159
L 122.472 54.002074
L 125.856 54.145325
L 129.24 54.354638
L 132.624 54.434431
L 136.008 54.446764
L 139.392 54.441398
L 142.776 54.416306
L 146.16 54.61468
L 149.544 54.637369
L 152.928 54.764072
L 156.312 54.575755
L 159.696 54.992028
L 163.08 54.947997
L 166.464 54.92439
L 169.848 55.139625
L 173.232 54.887699
L 176.616 55.27513
L 180 55.084957
L 183.384 55.275795
L 186.768 55.508282
L 190.152 55.656686
L 193.536 55.414994
L 196.92 55.382433
L 200.304 55.60714
L 203.688 55.516947
L 207.072 55.703415
L 210.456 55.727875
L 213.84 55.727355
L 217.224 55.77804
L 220.608 55.860263
L 223.992 55.892753
L 227.376 55.789539
L 230.76 56.143301
L 234.144 55.952447
L 237.528 56.03905
L 240.912 56.055405
L 244.296 56.221457
L 247.68 56.016205
L 251.064 56.346235
L 254.448 56.384508
L 257.832 56.41943
L 261.216 56.441815
L 264.6 56.580474
L 267.984 56.474421
L 271.368 56.446966
L 274.752 56.626119
L 278.136 56.791422
L 281.52 56.758432
L 284.904 56.696148
L 288.288 56.741007
L 291.672 56.835914
L 295.056 56.742941
L 298.44 56.901343
L 301.824 56.8642
L 305.208 56.984405
L 308.592 56.984565
L 311.976 57.069511
L 315.36 57.042601
L 318.744 57.0953
L 322.128 57.181313
L 325.512 57.187257
L 328.896 57.233488
L 332.28 57.268096
L 335.664 57.288304
L 339.048 57.310614
L 342.432 57.358458
L 345.816 57.407003
" clip-path="url(#p8a884bb1b4)" style="fill: none; stroke: #000000; stroke-opacity: 0.1; stroke-width: 1.5; stroke-linecap: square"/>
   </g>
   <g id="line2d_6">
    <path d="M 10.8 31.926929
L 14.184 42.566168
L 17.568 43.989924
L 20.952 44.528545
L 24.336 45.458627
L 27.72 45.716915
L 31.104 46.209048
L 34.488 47.051436
L 37.872 47.451372
L 41.256 48.104779
L 44.64 48.571974
L 48.024 49.041889
L 51.408 49.052361
L 54.792 49.725542
L 58.176 49.956736
L 61.56 49.70155
L 64.944 50.395531
L 68.328 50.537384
L 71.712 50.803237
L 75.096 50.783942
L 78.48 50.892843
L 81.864 51.242161
L 85.248 51.249483
L 88.632 51.333278
L 92.016 51.351194
L 95.4 51.759502
L 98.784 51.758246
L 102.168 52.164865
L 105.552 52.308929
L 108.936 51.908501
L 112.32 52.178943
L 115.704 52.450611
L 119.088 52.524307
L 122.472 52.420051
L 125.856 52.56103
L 129.24 52.750687
L 132.624 52.705866
L 136.008 52.902163
L 139.392 53.06307
L 142.776 52.955526
L 146.16 53.16037
L 149.544 53.170125
L 152.928 53.180612
L 156.312 53.26887
L 159.696 53.451494
L 163.08 53.451879
L 166.464 53.572762
L 169.848 53.560655
L 173.232 53.73235
L 176.616 53.789594
L 180 53.748359
L 183.384 53.940021
L 186.768 53.98185
L 190.152 53.750723
L 193.536 53.898463
L 196.92 53.953376
L 200.304 54.001976
L 203.688 54.105104
L 207.072 54.125591
L 210.456 54.184833
L 213.84 54.216851
L 217.224 54.317926
L 220.608 54.286413
L 223.992 54.444935
L 227.376 54.482487
L 230.76 54.575977
L 234.144 54.405596
L 237.528 54.56403
L 240.912 54.458793
L 244.296 54.614517
L 247.68 54.574109
L 251.064 54.731916
L 254.448 54.680068
L 257.832 54.737907
L 261.216 54.763438
L 264.6 54.883551
L 267.984 54.908818
L 271.368 54.841291
L 274.752 54.910454
L 278.136 54.997911
L 281.52 55.063055
L 284.904 55.143846
L 288.288 55.153822
L 291.672 55.178716
L 295.056 55.183119
L 298.44 55.262625
L 301.824 55.24659
L 305.208 55.315496
L 308.592 55.276564
L 311.976 55.331833
L 315.36 55.379432
L 318.744 55.466314
L 322.128 55.533836
L 325.512 55.536439
L 328.896 55.546444
L 332.28 55.608165
L 335.664 55.61064
L 339.048 55.679392
L 342.432 55.690692
L 345.816 55.73295
" clip-path="url(#p8a884bb1b4)" style="fill: none; stroke: #000000; stroke-opacity: 0.1; stroke-width: 1.5; stroke-linecap: square"/>
   </g>
   <g id="line2d_7">
    <path d="M 10.8 19.53543
L 14.184 29.731402
L 17.568 30.710359
L 20.952 31.414754
L 24.336 32.032959
L 27.72 32.693311
L 31.104 33.48419
L 34.488 34.258847
L 37.872 35.056474
L 41.256 35.970666
L 44.64 36.834312
L 48.024 38.211243
L 51.408 39.841263
L 54.792 41.681253
L 58.176 43.116851
L 61.56 43.722237
L 64.944 44.50429
L 68.328 44.501738
L 71.712 45.147766
L 75.096 44.908334
L 78.48 45.443429
L 81.864 45.357677
L 85.248 45.973452
L 88.632 46.000475
L 92.016 46.096023
L 95.4 46.390865
L 98.784 46.283258
L 102.168 46.314278
L 105.552 46.823837
L 108.936 47.209267
L 112.32 47.213291
L 115.704 47.547894
L 119.088 47.52333
L 122.472 47.488738
L 125.856 47.86466
L 129.24 48.287308
L 132.624 48.040332
L 136.008 48.511914
L 139.392 48.671323
L 142.776 48.211189
L 146.16 48.941774
L 149.544 49.208673
L 152.928 49.052172
L 156.312 49.16318
L 159.696 49.20081
L 163.08 49.614586
L 166.464 49.561928
L 169.848 49.460907
L 173.232 49.745633
L 176.616 49.91297
L 180 49.590487
L 183.384 50.097398
L 186.768 50.073222
L 190.152 50.270085
L 193.536 50.066139
L 196.92 50.474888
L 200.304 50.532266
L 203.688 50.336264
L 207.072 50.856359
L 210.456 50.85785
L 213.84 50.920534
L 217.224 51.139351
L 220.608 51.163176
L 223.992 50.783142
L 227.376 51.332591
L 230.76 50.959118
L 234.144 50.80956
L 237.528 51.286286
L 240.912 51.46204
L 244.296 51.650768
L 247.68 51.494046
L 251.064 51.516358
L 254.448 51.814797
L 257.832 51.615321
L 261.216 51.961895
L 264.6 51.860387
L 267.984 51.888518
L 271.368 52.068667
L 274.752 52.179398
L 278.136 52.030833
L 281.52 52.061902
L 284.904 52.30862
L 288.288 52.241648
L 291.672 52.381901
L 295.056 52.353638
L 298.44 52.481187
L 301.824 52.482302
L 305.208 52.521567
L 308.592 52.504721
L 311.976 52.646394
L 315.36 52.685356
L 318.744 52.703165
L 322.128 52.816636
L 325.512 52.844247
L 328.896 52.833314
L 332.28 52.86548
L 335.664 52.951609
L 339.048 52.987821
L 342.432 53.022573
L 345.816 53.04891
" clip-path="url(#p8a884bb1b4)" style="fill: none; stroke: #000000; stroke-opacity: 0.1; stroke-width: 1.5; stroke-linecap: square"/>
   </g>
   <g id="line2d_8">
    <path d="M 10.8 18.926553
L 14.184 30.04554
L 17.568 30.797231
L 20.952 31.576191
L 24.336 32.403539
L 27.72 33.182866
L 31.104 33.980925
L 34.488 34.989481
L 37.872 36.046617
L 41.256 37.601699
L 44.64 39.689127
L 48.024 42.070774
L 51.408 42.811176
L 54.792 43.926427
L 58.176 44.447865
L 61.56 44.38687
L 64.944 44.287646
L 68.328 45.04627
L 71.712 45.31272
L 75.096 45.172841
L 78.48 45.539886
L 81.864 45.717505
L 85.248 45.687142
L 88.632 46.111584
L 92.016 46.218325
L 95.4 46.274669
L 98.784 46.435769
L 102.168 46.851924
L 105.552 47.281355
L 108.936 46.820771
L 112.32 47.402604
L 115.704 47.302242
L 119.088 47.668116
L 122.472 47.63737
L 125.856 47.786736
L 129.24 47.963651
L 132.624 47.923154
L 136.008 47.886992
L 139.392 48.155814
L 142.776 47.945564
L 146.16 48.408491
L 149.544 48.497862
L 152.928 48.378327
L 156.312 48.679025
L 159.696 48.721475
L 163.08 48.922889
L 166.464 48.954753
L 169.848 49.178837
L 173.232 49.084389
L 176.616 49.31926
L 180 49.021921
L 183.384 49.42943
L 186.768 49.309044
L 190.152 49.526102
L 193.536 49.654448
L 196.92 49.83253
L 200.304 49.718612
L 203.688 49.925441
L 207.072 49.696364
L 210.456 50.11898
L 213.84 50.195617
L 217.224 50.154756
L 220.608 50.145155
L 223.992 50.289627
L 227.376 50.436903
L 230.76 50.368645
L 234.144 50.428195
L 237.528 50.634549
L 240.912 50.653656
L 244.296 50.850148
L 247.68 50.716243
L 251.064 50.84024
L 254.448 50.803964
L 257.832 50.98809
L 261.216 50.985955
L 264.6 51.016563
L 267.984 51.154383
L 271.368 51.326396
L 274.752 51.046053
L 278.136 51.261485
L 281.52 51.267072
L 284.904 51.467125
L 288.288 51.280184
L 291.672 51.356811
L 295.056 51.451137
L 298.44 51.545562
L 301.824 51.634666
L 305.208 51.651793
L 308.592 51.708379
L 311.976 51.784539
L 315.36 51.816517
L 318.744 51.828625
L 322.128 51.878724
L 325.512 51.949127
L 328.896 51.978928
L 332.28 51.974767
L 335.664 52.031374
L 339.048 52.069571
L 342.432 52.117939
L 345.816 52.149614
" clip-path="url(#p8a884bb1b4)" style="fill: none; stroke: #000000; stroke-opacity: 0.1; stroke-width: 1.5; stroke-linecap: square"/>
   </g>
   <g id="line2d_9">
    <path d="M 10.8 16.363636
L 14.184 30.402262
L 17.568 31.707151
L 20.952 32.794137
L 24.336 33.71147
L 27.72 34.770112
L 31.104 35.685176
L 34.488 36.564974
L 37.872 37.487085
L 41.256 38.654136
L 44.64 39.986843
L 48.024 41.690227
L 51.408 42.898982
L 54.792 43.913416
L 58.176 44.412741
L 61.56 44.904472
L 64.944 45.066536
L 68.328 45.465143
L 71.712 45.427853
L 75.096 45.717726
L 78.48 45.741241
L 81.864 46.269897
L 85.248 46.139877
L 88.632 46.376267
L 92.016 46.265693
L 95.4 46.711872
L 98.784 46.864282
L 102.168 46.96448
L 105.552 47.069042
L 108.936 46.885944
L 112.32 47.106333
L 115.704 47.249363
L 119.088 47.344955
L 122.472 47.254967
L 125.856 47.746509
L 129.24 47.88869
L 132.624 47.708022
L 136.008 47.794508
L 139.392 48.00137
L 142.776 48.305502
L 146.16 48.267716
L 149.544 48.407384
L 152.928 48.09794
L 156.312 48.408789
L 159.696 48.287616
L 163.08 48.601746
L 166.464 48.570127
L 169.848 48.683407
L 173.232 49.074382
L 176.616 48.951545
L 180 48.999959
L 183.384 49.064994
L 186.768 49.03775
L 190.152 49.348894
L 193.536 49.238438
L 196.92 49.188523
L 200.304 49.243491
L 203.688 49.483347
L 207.072 49.587571
L 210.456 49.637793
L 213.84 49.467181
L 217.224 49.596882
L 220.608 49.607124
L 223.992 49.799807
L 227.376 49.730952
L 230.76 49.871108
L 234.144 49.654227
L 237.528 49.963454
L 240.912 49.979151
L 244.296 50.006885
L 247.68 50.154267
L 251.064 50.043861
L 254.448 50.065354
L 257.832 50.156773
L 261.216 50.228802
L 264.6 50.239715
L 267.984 50.406309
L 271.368 50.318286
L 274.752 50.413638
L 278.136 50.440754
L 281.52 50.501546
L 284.904 50.551292
L 288.288 50.48485
L 291.672 50.632429
L 295.056 50.667076
L 298.44 50.608071
L 301.824 50.750809
L 305.208 50.776669
L 308.592 50.8101
L 311.976 50.795556
L 315.36 50.835535
L 318.744 50.861999
L 322.128 50.893563
L 325.512 50.944293
L 328.896 50.955184
L 332.28 50.989534
L 335.664 51.01835
L 339.048 51.04533
L 342.432 51.061203
L 345.816 51.09661
" clip-path="url(#p8a884bb1b4)" style="fill: none; stroke: #000000; stroke-opacity: 0.1; stroke-width: 1.5; stroke-linecap: square"/>
   </g>
   <g id="line2d_10">
    <path d="M 10.8 27.847903
L 14.184 39.216156
L 17.568 41.803806
L 20.952 43.628863
L 24.336 45.603632
L 27.72 46.844356
L 31.104 48.466594
L 34.488 49.495856
L 37.872 49.941343
L 41.256 49.258375
L 44.64 50.70693
L 48.024 50.734165
L 51.408 51.949802
L 54.792 52.511155
L 58.176 52.02108
L 61.56 52.591158
L 64.944 52.504965
L 68.328 52.698179
L 71.712 52.986447
L 75.096 53.335399
L 78.48 54.145205
L 81.864 54.450515
L 85.248 54.604614
L 88.632 55.062193
L 92.016 56.126887
L 95.4 56.525592
L 98.784 56.613309
L 102.168 56.722036
L 105.552 57.19821
L 108.936 57.193095
L 112.32 57.559744
L 115.704 57.777799
L 119.088 58.54169
L 122.472 58.114341
L 125.856 58.57602
L 129.24 58.629815
L 132.624 58.917383
L 136.008 59.353145
L 139.392 58.891955
L 142.776 59.070269
L 146.16 59.682265
L 149.544 60.016627
L 152.928 59.897307
L 156.312 60.015731
L 159.696 60.144917
L 163.08 59.411187
L 166.464 60.545186
L 169.848 60.057195
L 173.232 61.077094
L 176.616 59.972747
L 180 60.294535
L 183.384 60.831492
L 186.768 60.879618
L 190.152 61.342115
L 193.536 61.292173
L 196.92 61.310674
L 200.304 62.114
L 203.688 62.049072
L 207.072 62.053625
L 210.456 61.929906
L 213.84 61.922612
L 217.224 62.4007
L 220.608 62.341686
L 223.992 62.472723
L 227.376 62.03655
L 230.76 62.66035
L 234.144 62.736466
L 237.528 62.982037
L 240.912 63.067218
L 244.296 63.223622
L 247.68 62.937686
L 251.064 63.23428
L 254.448 63.549983
L 257.832 63.715215
L 261.216 63.828342
L 264.6 63.940781
L 267.984 64.138006
L 271.368 64.00489
L 274.752 63.975026
L 278.136 64.071326
L 281.52 64.540113
L 284.904 64.519553
L 288.288 64.838728
L 291.672 65.017571
L 295.056 64.537098
L 298.44 64.940451
L 301.824 65.043629
L 305.208 65.155082
L 308.592 65.342209
L 311.976 65.381742
L 315.36 65.5963
L 318.744 65.704794
L 322.128 65.902891
L 325.512 65.858442
L 328.896 66.119709
L 332.28 66.127968
L 335.664 66.303234
L 339.048 66.396477
L 342.432 66.510498
L 345.816 66.639552
" clip-path="url(#p8a884bb1b4)" style="fill: none; stroke: #000000; stroke-width: 1.5; stroke-linecap: square"/>
   </g>
  </g>
 </g>
 <defs>
  <clipPath id="p8a884bb1b4">
   <rect x="10.8" y="10.8" width="338.4" height="122.4"/>
  </clipPath>
 </defs>
</svg>
